<?xml version="1.0" encoding="UTF-8" standalone="no"?>
<!-- Generator: Adobe Illustrator 26.0.2, SVG Export Plug-In . SVG Version: 6.00 Build 0)  -->

<svg
   version="1.1"
   id="Layer_1"
   x="0px"
   y="0px"
   viewBox="0 0 240.94 141.73"
   style="enable-background:new 0 0 240.94 141.73;"
   xml:space="preserve"
   xmlns:xlink="http://www.w3.org/1999/xlink"
   xmlns="http://www.w3.org/2000/svg"
   xmlns:svg="http://www.w3.org/2000/svg"><defs
   id="defs233" />
<style
   type="text/css"
   id="style2">
	.st0{fill:#6D6E71;}
	.st1{clip-path:url(#SVGID_00000043445432029772839930000003467234471238089663_);fill:#A7A9AC;}
	.st2{clip-path:url(#SVGID_00000143616002733007049710000015154254476706579363_);fill:#797B7D;}
	.st3{clip-path:url(#SVGID_00000025401955972799176040000012346378200849621653_);fill:#A7A9AC;}
	.st4{clip-path:url(#SVGID_00000081615417363522025390000004052158533564046250_);fill:#797B7D;}
	.st5{clip-path:url(#SVGID_00000024709802704658283770000003921715118265927574_);fill:#A7A9AC;}
	.st6{clip-path:url(#SVGID_00000071548404011043382320000007634784802757820601_);fill:#72BF44;}
	.st7{clip-path:url(#SVGID_00000180364890370672962040000002178039957365545351_);fill:#72BF44;}
	.st8{clip-path:url(#SVGID_00000065792570029323947330000004724528160282924421_);fill:#FFFFFF;}
	.st9{clip-path:url(#SVGID_00000149375033549509819170000011030316524749760413_);fill:#FFFFFF;}
	.st10{clip-path:url(#SVGID_00000124883988602511729770000017773019679751014285_);fill:#FFFFFF;}
	.st11{clip-path:url(#SVGID_00000123438034981260366060000014441784282890232717_);fill:#FFFFFF;}
	.st12{clip-path:url(#SVGID_00000111175491781624040930000006377024030287129002_);fill:#FFFFFF;}
	.st13{clip-path:url(#SVGID_00000017497149876832702460000000467356644232254629_);fill:#FFFFFF;}
	.st14{clip-path:url(#SVGID_00000153674693947424949910000018342528709081026194_);fill:#72BF44;}
	.st15{enable-background:new    ;}
	.st16{fill:#FFFFFF;}
</style>
<rect
   x="-14.17"
   y="-14.17"
   class="st0"
   width="269.29"
   height="170.08"
   id="rect4"
   style="fill:none" />
<g
   id="g56">
	<g
   id="g14">
		<defs
   id="defs7">
			<rect
   id="SVGID_1_"
   x="-14.17"
   y="-14.17"
   width="269.29"
   height="170.08" />
		</defs>
		<clipPath
   id="SVGID_00000037687385423331182490000006008368761653566893_">
			<use
   xlink:href="#SVGID_1_"
   style="overflow:visible;"
   id="use9" />
		</clipPath>
		<path
   style="clip-path:url(#SVGID_00000037687385423331182490000006008368761653566893_);fill:#A7A9AC;"
   d="M267.43,0.44    c0.01-1.46-1.17-2.66-2.63-2.67c-1.22-0.01-2.24,0.81-2.56,1.93l-12.1-0.09l-0.06-0.17l-0.09-0.24l-0.12-0.23l-0.14-0.21    l-0.16-0.2l-0.17-0.18l-0.2-0.18l-0.21-0.15l-0.22-0.12l-0.23-0.11l-0.25-0.08l-0.18-0.05l-0.94-13.67l0.14-0.06l0.17-0.06    l0.24-0.15l0.2-0.12l0.14-0.13l0.23-0.22l0.14-0.2l0.15-0.21c0.05-0.09,0.09-0.18,0.13-0.27l0.09-0.19l0.05-0.22    c0.02-0.1,0.05-0.19,0.07-0.29l0.01-0.17c0.01-0.12,0.02-0.24,0.01-0.36v-0.02l-0.04-0.25l-0.04-0.25l-0.01-0.01    c-0.03-0.12-0.08-0.23-0.12-0.33l-0.06-0.16l-0.15-0.25l-0.12-0.19l-0.14-0.15l-0.21-0.22l-0.2-0.15l-0.21-0.15    c-0.09-0.05-0.19-0.09-0.28-0.13l-0.18-0.08l-0.23-0.05c-0.09-0.02-0.18-0.05-0.28-0.07l-0.18-0.01    c-0.12-0.01-0.23-0.02-0.35-0.01h-0.02l-0.25,0.04l-0.24,0.04l-0.02,0.01c-0.12,0.03-0.23,0.08-0.34,0.13l-0.16,0.06    c-0.09,0.05-0.17,0.1-0.25,0.16l-0.19,0.12l-0.16,0.15l-0.21,0.2l-0.16,0.2L244-19.8c-0.05,0.09-0.09,0.18-0.13,0.28l-0.08,0.18    l-0.05,0.22c-0.02,0.09-0.05,0.19-0.07,0.28l-0.01,0.17l-0.01,0.16l-20.98,5.52l-0.12-0.19l-0.01-0.02l20.15-24.89    c1.07,0.46,2.35,0.19,3.12-0.76c0.92-1.14,0.75-2.81-0.39-3.73s-2.81-0.75-3.73,0.39c-0.77,0.95-0.77,2.26-0.09,3.21l-20.16,24.89    l-0.09-0.04h-0.01l-0.06-0.02l-0.05-0.02c-0.12-0.04-0.25-0.07-0.37-0.1h-0.02l-0.05-0.01l-0.07-0.01    c-0.13-0.02-0.26-0.03-0.39-0.02h-0.01h-0.03h-0.01h-0.07c-0.13,0.01-0.26,0.03-0.4,0.06l-0.06,0.01h-0.01h-0.03l-0.02,0.01    c-0.13,0.03-0.25,0.08-0.37,0.13l-0.06,0.03l-0.02,0.01l-0.05,0.02c-0.11,0.06-0.22,0.12-0.32,0.19l-0.04,0.03l-0.03,0.02    l-0.05,0.04c-0.1,0.07-0.19,0.16-0.27,0.24l-0.03,0.04l-0.02,0.03l-0.05,0.05l-0.05,0.05l-0.17,0.24l-0.02,0.03l-0.03,0.05    l-0.03,0.05c-0.06,0.11-0.12,0.22-0.16,0.34v0.01l-0.02,0.06l-0.02,0.05l-0.06,0.21l-16.34,0.42c-0.03-0.11-0.07-0.21-0.12-0.31    l-0.02-0.03c-0.07-0.14-0.14-0.28-0.24-0.41l-0.02-0.03c-0.09-0.13-0.2-0.25-0.31-0.36l-0.02-0.01c-0.12-0.11-0.25-0.21-0.38-0.3    l-0.01-0.01c-0.14-0.09-0.28-0.16-0.44-0.22l-0.02-0.01c-0.15-0.06-0.31-0.1-0.47-0.13h-0.02c-0.36-0.06-0.72-0.05-1.05,0.03    h-0.02c-0.16,0.04-0.32,0.09-0.47,0.16l-0.04,0.02c-0.14,0.07-0.28,0.15-0.41,0.24l-0.03,0.02c-0.13,0.09-0.25,0.2-0.36,0.31    L197-12.91c-0.11,0.12-0.21,0.25-0.3,0.38l-0.01,0.01c-0.09,0.14-0.16,0.29-0.23,0.44l-0.01,0.02c-0.06,0.15-0.11,0.31-0.14,0.48    v0.02c-0.06,0.36-0.05,0.72,0.03,1.05l0.01,0.01c0.04,0.16,0.09,0.32,0.16,0.47l0.02,0.03c0.07,0.14,0.15,0.28,0.24,0.41    l0.02,0.03c0.09,0.13,0.2,0.25,0.31,0.36l0.02,0.02c0.12,0.11,0.24,0.21,0.38,0.3l0.02,0.01c0.09,0.05,0.18,0.1,0.27,0.15    l-2.97,16.55l-0.08,0.01l-0.16,0.03l-0.1,0.02c-0.17,0.04-0.34,0.1-0.5,0.17l0,0l-0.04,0.02l-0.19,0.09l-0.12,0.07l-0.1,0.06    l-0.13,0.1l-0.07,0.06l-0.12,0.11l-0.07,0.07l-0.09,0.11l-0.08,0.09l-0.07,0.1l-0.08,0.12l-0.05,0.09l-0.08,0.14l-0.04,0.08    l-0.07,0.15l-0.04,0.11l-0.04,0.14l-0.05,0.2l-0.01,0.05l0,0c-0.03,0.17-0.04,0.35-0.04,0.53l0.01,0.1l0.01,0.16l0.02,0.15    l0.02,0.11l0.07,0.24v0.01l0.1,0.25l0,0l0.03,0.05l0.09,0.18l0.08,0.12l0.06,0.09l0.1,0.13l0.06,0.07l0.11,0.12l0.07,0.07    l0.11,0.1l0.09,0.08l0.1,0.07l0.12,0.08l0.09,0.05l0.14,0.08l0.08,0.04l0.15,0.07l0.1,0.04l0.14,0.05l0.19,0.04l0.06,0.01l0,0    l0.26,0.03h0.02l0.24,0.01l0.11-0.01l0.15-0.01l0.16-0.03l0.1-0.02c0.17-0.04,0.34-0.09,0.5-0.17l0,0l0.04-0.02l0.18-0.09    l0.12-0.08l0.1-0.06l0.13-0.1l0.07-0.06l0.12-0.11l0.07-0.07l0.09-0.11l0.08-0.09l0.07-0.1l0.08-0.12l0.05-0.08l0.08-0.14    l0.04-0.08l0.07-0.15l0.04-0.11l0.05-0.14l0.04-0.19l0.01-0.06l0,0l0.03-0.26v-0.01l0.01-0.25l-0.01-0.1l-0.01-0.15l-0.01-0.08    l14.99-6.68c0.74,0.9,2.01,1.24,3.12,0.74c1.34-0.6,1.94-2.16,1.34-3.5s-2.16-1.94-3.5-1.34c-1.11,0.5-1.71,1.67-1.54,2.82    L197.1,8.79l-0.04-0.04l-0.11-0.12l-0.07-0.07l-0.11-0.09l-0.09-0.08l-0.1-0.07l-0.12-0.08l-0.09-0.05l-0.14-0.08l-0.05-0.02    l2.98-16.55c0.12-0.01,0.24-0.03,0.35-0.05h0.02c0.16-0.04,0.32-0.09,0.47-0.16l0.04-0.02c0.14-0.07,0.28-0.15,0.41-0.24    l0.03-0.02c0.13-0.09,0.25-0.2,0.36-0.31l0.01-0.02c0.11-0.12,0.21-0.25,0.3-0.38l0.01-0.01c0.09-0.14,0.16-0.29,0.23-0.44    l0.01-0.02c0.04-0.1,0.07-0.21,0.1-0.31l16.34-0.42c0.03,0.1,0.07,0.2,0.11,0.3l0.02,0.05l0.01,0.02l0.02,0.05    c0.06,0.11,0.12,0.22,0.19,0.32l0.03,0.04l0.02,0.03l0.04,0.05c0.07,0.1,0.16,0.19,0.24,0.27l0.04,0.03l0.03,0.02l0.05,0.05    l0.05,0.05l0.24,0.17l0.03,0.01l0.05,0.03l0.05,0.03c0.11,0.06,0.22,0.12,0.34,0.16l0.01,0.01l0.06,0.02l0.05,0.02    c0.12,0.04,0.25,0.07,0.37,0.1h0.02l0.05,0.01l0.07,0.01c0.14,0.01,0.27,0.02,0.4,0.01h0.01h0.03h0.01h0.07    c0.13-0.01,0.27-0.03,0.4-0.06l0.06-0.02h0.01l0.03-0.01l0.02-0.01c0.13-0.03,0.25-0.08,0.37-0.13l0.05-0.03l0.02-0.01l0.05-0.02    c0.11-0.06,0.22-0.12,0.32-0.19l0.04-0.03l0.03-0.02L222-9.56c0.09-0.08,0.19-0.16,0.27-0.25l0.03-0.04l0.02-0.02l0.05-0.05    l0.05-0.06l0.17-0.24l0.02-0.03l0.03-0.04l0.03-0.05c0.06-0.11,0.12-0.22,0.16-0.33l0.01-0.02l0.02-0.06l0.02-0.05    c0.04-0.12,0.08-0.25,0.1-0.37v-0.02l0.01-0.04L223-11.3c0.01-0.1,0.02-0.21,0.02-0.31L244-17.13l0.07,0.11l0.12,0.19l0.14,0.15    l0.21,0.22l0.2,0.15l0.21,0.15c0.09,0.05,0.18,0.09,0.27,0.13l0.19,0.09l0.22,0.05l0.12,0.03L246.7-2.2l-0.23,0.09l-0.23,0.12    l-0.21,0.14l-0.2,0.16l-0.19,0.18l-0.16,0.19l-0.15,0.21l-0.12,0.22l-0.11,0.24l-0.08,0.25l-0.06,0.25    c-0.02,0.09-0.02,0.18-0.03,0.27l-0.02,0.17l0.01,0.1v0.1l0.03,0.16c0.01,0.09,0.02,0.18,0.05,0.27l0.07,0.24l0.1,0.24l0.12,0.23    l0.13,0.21l0.16,0.2l0.17,0.18l0.19,0.16l0.21,0.15l0.22,0.12l0.23,0.11l0.25,0.08l0.25,0.06c0.09,0.02,0.18,0.02,0.27,0.03    l0.17,0.02l0.1-0.01h0.1l0.16-0.03c0.09-0.01,0.18-0.02,0.27-0.04l0.24-0.07l0.24-0.09l0.23-0.12l0.21-0.14l0.2-0.16l0.18-0.17    l0.16-0.19l0.15-0.21l0.12-0.22l0.11-0.24l0.08-0.23l12.11,0.09c0.3,1.12,1.31,1.96,2.53,1.97C266.23,3.08,267.42,1.9,267.43,0.44     M250.79,23.33c0.64-1.31,0.1-2.9-1.22-3.55c-1.1-0.53-2.38-0.24-3.15,0.63l-16.69-8.16l0.02-0.14l0.01-0.12l0.01-0.11v-0.03    v-0.13V11.6l-0.01-0.14l-0.01-0.11v-0.02v-0.01l-0.02-0.12l-0.03-0.11l-0.04-0.13l-0.04-0.11v-0.01l-0.01-0.03l-0.03-0.08    l-0.05-0.12l-0.06-0.11l-0.07-0.12l-0.01-0.02l-0.01-0.02l-0.04-0.05l-0.08-0.12l-0.07-0.09l-0.09-0.11l-0.03-0.03l0,0l-0.05-0.05    l-0.1-0.09l-0.1-0.09l-0.1-0.08l-0.11-0.08l3.82-11.6c1.16,0.06,2.27-0.66,2.65-1.82c0.46-1.39-0.3-2.89-1.69-3.35    s-2.89,0.3-3.35,1.69c-0.38,1.16,0.08,2.39,1.05,3.03l-3.82,11.6h-0.01h-0.03h-0.13h-0.12l-0.14,0.01l-0.11,0.01h-0.02h-0.01    l-0.12,0.02l-0.11,0.03l-0.13,0.04l-0.11,0.04h-0.01l-0.03,0.01l-0.08,0.03l-0.12,0.05l-0.11,0.06l-0.12,0.07l-0.02,0.01    l-0.02,0.01l-0.05,0.04l-0.12,0.08l-0.09,0.07l-0.11,0.09l-0.03,0.03l0,0l-0.05,0.05l-0.09,0.1l-0.09,0.1l-0.08,0.1l-0.08,0.12    l-0.06,0.1l-0.07,0.13l-0.04,0.07l-0.02,0.04l-0.01,0.03l-0.04,0.1l-0.05,0.13l-0.01,0.04l-0.02,0.07l-0.04,0.12l-0.01,0.03    l-0.02,0.11l-0.03,0.15l-0.01,0.12l-0.01,0.11v0.03v0.13v0.12l0.01,0.14l0.01,0.11v0.02v0.01l0.02,0.12l0.03,0.11l0.04,0.13    l0.04,0.12v0.01l0.01,0.03l0.03,0.08l0.05,0.12l0.05,0.11l0.07,0.12l0.01,0.02l0.01,0.02l0.04,0.06l0.08,0.11l0.07,0.09l0.09,0.11    l0.08,0.09l0.1,0.09l0.1,0.09l0.1,0.07l0.12,0.09l0.1,0.06l0.14,0.08l0.07,0.04l0.04,0.01l0.03,0.01l0.1,0.04l0.13,0.05l0.04,0.01    l0.07,0.02l0.12,0.03l0.03,0.01l0.11,0.02l0.14,0.02l0.06,0.01l3.47,21.42l-0.12,0.06l-0.19,0.1l-0.17,0.13l-0.23,0.18l-0.18,0.2    l-0.16,0.18c-0.06,0.08-0.11,0.18-0.16,0.27l-0.1,0.17l-0.08,0.21l-0.04,0.12l-13.7-0.38c-0.03-0.1-0.06-0.2-0.09-0.3l-0.02-0.05    c-0.06-0.14-0.13-0.28-0.21-0.41l-0.03-0.04c-0.08-0.13-0.18-0.25-0.28-0.37l-0.03-0.03c-0.11-0.11-0.22-0.21-0.35-0.31    l-0.03-0.02c-0.13-0.09-0.26-0.17-0.4-0.23l-0.04-0.02c-0.14-0.06-0.29-0.11-0.44-0.15l-0.06-0.01c-0.1-0.02-0.21-0.04-0.31-0.05    l-0.17-0.01h-0.03h-0.02c-0.17,0-0.33,0.01-0.49,0.03l-0.04,0.01c-0.16,0.03-0.31,0.07-0.46,0.13l-0.05,0.02    c-0.14,0.06-0.28,0.13-0.41,0.21l-0.04,0.03c-0.13,0.08-0.25,0.18-0.36,0.28l-0.03,0.03c-0.11,0.11-0.21,0.23-0.31,0.35    l-0.03,0.03c-0.09,0.13-0.17,0.26-0.23,0.4l-0.02,0.04c-0.06,0.14-0.11,0.29-0.15,0.44l-0.01,0.06c-0.02,0.1-0.04,0.2-0.05,0.31    l-0.01,0.17v0.03v0.02c0,0.16,0.01,0.33,0.04,0.49l0.01,0.05c0.03,0.16,0.07,0.31,0.13,0.46l0.02,0.05    c0.06,0.14,0.13,0.28,0.21,0.41l0.03,0.04c0.08,0.13,0.18,0.25,0.28,0.36l0.03,0.03c0.11,0.11,0.23,0.21,0.35,0.3l0.03,0.03    c0.13,0.09,0.26,0.17,0.4,0.23l0.04,0.02l0.12,0.05l-1.26,12.02c-1.15,0.19-2.07,1.13-2.2,2.34c-0.15,1.46,0.91,2.76,2.36,2.91    c1.46,0.15,2.76-0.91,2.91-2.36c0.13-1.21-0.59-2.32-1.67-2.74l1.25-12.03l0.04-0.01c0.16-0.03,0.31-0.07,0.45-0.13l0.05-0.02    c0.14-0.06,0.28-0.13,0.41-0.21l0.04-0.03c0.13-0.08,0.25-0.18,0.36-0.28l0.03-0.03c0.11-0.11,0.21-0.22,0.31-0.35l0.03-0.03    c0.09-0.13,0.17-0.26,0.23-0.4l0.02-0.04c0.05-0.1,0.08-0.2,0.12-0.31l13.7,0.38L228.9,39l0.05,0.17    c0.04,0.09,0.08,0.17,0.13,0.26l0.11,0.21l0.12,0.15l0.2,0.25l0.18,0.16l0.2,0.18l0.26,0.15l0.18,0.11l0.21,0.07    c0.09,0.03,0.18,0.07,0.28,0.1l0.17,0.02c0.12,0.02,0.24,0.04,0.36,0.05h0.02l0.25-0.02l0.25-0.02h0.02    c0.12-0.02,0.23-0.06,0.34-0.09l0.17-0.05l0.26-0.13l0.21-0.1l0.15-0.12l0.25-0.2l0.16-0.18l0.18-0.2l0.15-0.26l0.1-0.18    l0.07-0.21c0.03-0.09,0.07-0.18,0.1-0.28l0.02-0.17c0.02-0.12,0.04-0.24,0.05-0.36v-0.02l-0.02-0.25l-0.01-0.25v-0.02    c-0.02-0.12-0.06-0.23-0.09-0.35l-0.05-0.16c-0.04-0.09-0.09-0.18-0.13-0.26l-0.1-0.2l-0.13-0.17l-0.18-0.24l-0.2-0.17l-0.18-0.16    c-0.08-0.06-0.18-0.11-0.27-0.16l-0.17-0.1l-0.22-0.08c-0.09-0.03-0.18-0.07-0.27-0.09l-0.17-0.02l-0.15-0.02l-3.48-21.42    l0.04-0.02l0.11-0.06l0.12-0.07l0.02-0.01l0.02-0.01l0.06-0.04l0.11-0.08l0.09-0.07l0.1-0.09l0.09-0.09l0.09-0.09l0.02-0.03    l16.68,8.16c-0.21,1.14,0.34,2.33,1.44,2.87C248.55,25.19,250.14,24.65,250.79,23.33"
   clip-path="url(#SVGID_00000037687385423331182490000006008368761653566893_)"
   id="path12" />
	</g>
	<g
   id="g24">
		<defs
   id="defs17">
			<rect
   id="SVGID_00000091734402143590938490000013865031519258105242_"
   x="-14.17"
   y="-14.17"
   width="269.29"
   height="170.08" />
		</defs>
		<clipPath
   id="SVGID_00000174573040052392124570000018036103671273787047_">
			<use
   xlink:href="#SVGID_00000091734402143590938490000013865031519258105242_"
   style="overflow:visible;"
   id="use19" />
		</clipPath>
		<path
   style="clip-path:url(#SVGID_00000174573040052392124570000018036103671273787047_);fill:#797B7D;"
   d="M3.87,125.44    c-0.7,0-1.41-0.18-2.06-0.55c-1.68-0.95-2.45-2.89-2-4.68l-13.98-7.92v-2.57l15.08,8.54c0.8-0.8,1.88-1.24,2.98-1.24    c0.7,0,1.41,0.18,2.06,0.54c2.02,1.14,2.73,3.71,1.58,5.72C6.76,124.67,5.34,125.44,3.87,125.44 M31.01,138.22    c-1.92,0-3.65-1.32-4.09-3.28c-0.43-1.88,0.49-3.76,2.12-4.62l-4.26-18.86h-0.01h-0.05l-0.2-0.02l-0.19-0.03l-0.21-0.04    l-0.17-0.04h-0.03l-0.02-0.01l-0.18-0.05l-0.17-0.06l-0.2-0.08l-0.18-0.08l-0.02-0.01l-0.05-0.02l-0.11-0.06l-0.18-0.1l-0.16-0.1    l-0.18-0.13l-0.03-0.02l-0.03-0.02l-0.08-0.07l-0.17-0.15l-0.13-0.12l-0.15-0.16l-0.05-0.05l0,0l-0.08-0.1l-0.13-0.17l-0.12-0.17    l-0.11-0.17l-0.11-0.2l-0.08-0.16l-0.1-0.22l-0.05-0.11l-0.02-0.06l-0.02-0.04l-0.05-0.16l-0.06-0.22l-0.02-0.06l-0.02-0.11    l-0.04-0.19l-0.01-0.06l-0.02-0.17l-0.02-0.24v-0.19v-0.17v-0.04l0.02-0.2l0.03-0.19l0.04-0.21l0.04-0.17v-0.02l0.01-0.02    l0.06-0.18l0.06-0.17l0.08-0.2l0.08-0.18l0.01-0.02l0.02-0.05l0.06-0.11l0.1-0.18l0.1-0.16l0.12-0.18l0.02-0.03l0.02-0.03    l0.07-0.08l0.14-0.17l0.13-0.13l0.16-0.15l0.15-0.13l0.16-0.13l0.18-0.12l0.16-0.1l0.21-0.11l0.16-0.08l0.22-0.1l0.11-0.05    l0.06-0.02l0.04-0.02l0.17-0.05l0.21-0.06l0.06-0.02l0.12-0.02l0.19-0.04l0.05-0.01l0.18-0.02l0.23-0.02h0.1l8.73-33.23    l-0.18-0.11c-0.1-0.06-0.2-0.11-0.29-0.18l-0.25-0.23c-0.11-0.11-0.24-0.2-0.34-0.32c-0.09-0.11-0.17-0.23-0.25-0.34    c-0.07-0.1-0.16-0.2-0.22-0.31c-0.08-0.14-0.14-0.3-0.21-0.45c-0.04-0.1-0.1-0.19-0.13-0.28c-0.04-0.11-0.06-0.23-0.09-0.35    l-0.05-0.19L9.97,65.64c-0.06,0.16-0.12,0.31-0.19,0.46l-0.03,0.07c-0.11,0.22-0.25,0.43-0.39,0.62L9.35,66.8    c-0.15,0.19-0.32,0.37-0.5,0.53L8.8,67.38c-0.19,0.16-0.39,0.3-0.6,0.43l-0.06,0.03c-0.21,0.12-0.44,0.22-0.67,0.31L7.4,68.18    c-0.23,0.08-0.47,0.13-0.72,0.17l-0.09,0.01c-0.16,0.02-0.33,0.03-0.5,0.04l-0.27-0.01H5.77l-0.03-0.01    c-0.26-0.02-0.52-0.06-0.76-0.13L4.9,68.23c-0.24-0.07-0.47-0.16-0.7-0.27l-0.07-0.03c-0.22-0.11-0.42-0.25-0.62-0.39l-0.06-0.05    c-0.19-0.15-0.37-0.32-0.53-0.5l-0.05-0.05c-0.16-0.19-0.3-0.39-0.43-0.6L2.4,66.28c-0.12-0.21-0.22-0.44-0.31-0.67l-0.03-0.07    C2,65.31,1.94,65.07,1.9,64.82l-0.02-0.09c-0.02-0.16-0.03-0.33-0.04-0.5l0.01-0.26v-0.05v-0.03c0.02-0.26,0.06-0.51,0.13-0.76    L2,63.06c0.07-0.24,0.16-0.47,0.27-0.7l0.03-0.07c0.11-0.22,0.25-0.42,0.39-0.62l0.05-0.06c0.15-0.19,0.32-0.37,0.5-0.53    l0.05-0.05c0.19-0.16,0.39-0.3,0.6-0.43l0.06-0.04c0.21-0.12,0.44-0.22,0.67-0.31l0.07-0.03l0.19-0.06L4.75,41.01    c-1.78-0.48-3.1-2.09-3.11-4.02c-0.02-2.32,1.85-4.21,4.17-4.23c0.01,0,0.02,0,0.03,0c2.3,0,4.18,1.86,4.2,4.17    c0.01,1.93-1.28,3.57-3.05,4.07l0.15,19.15l0.07,0.02c0.24,0.07,0.47,0.16,0.69,0.27l0.07,0.03c0.22,0.11,0.42,0.24,0.62,0.39    l0.06,0.05c0.19,0.15,0.37,0.32,0.53,0.5l0.05,0.05c0.16,0.19,0.3,0.39,0.43,0.6l0.04,0.06c0.12,0.21,0.22,0.44,0.31,0.67    l0.03,0.07c0.06,0.16,0.1,0.33,0.14,0.5l21.65,1.48l0.09-0.23l0.1-0.26c0.07-0.14,0.16-0.26,0.24-0.39    c0.07-0.1,0.12-0.21,0.2-0.31l0.21-0.22c0.11-0.12,0.22-0.26,0.35-0.37c0.09-0.08,0.2-0.15,0.31-0.22    c0.11-0.08,0.22-0.17,0.34-0.24c0.14-0.08,0.29-0.14,0.43-0.2c0.1-0.04,0.2-0.1,0.3-0.14c0.11-0.04,0.23-0.05,0.34-0.08    c0.15-0.04,0.3-0.09,0.46-0.11l0.27-0.01c0.14-0.01,0.29-0.02,0.43-0.02c0.05,0,0.09,0,0.14,0h0.03c0.13,0.01,0.25,0.04,0.38,0.07    c0.13,0.02,0.27,0.03,0.4,0.06l0.03,0.01c0.18,0.05,0.35,0.12,0.53,0.2l0.26,0.1c0.14,0.07,0.26,0.16,0.38,0.24    c0.1,0.07,0.22,0.12,0.31,0.2l0.22,0.21c0.12,0.11,0.26,0.22,0.37,0.35c0.08,0.1,0.15,0.21,0.22,0.31    c0.08,0.11,0.17,0.22,0.25,0.34c0.08,0.14,0.14,0.29,0.2,0.44c0.04,0.1,0.1,0.19,0.14,0.29c0.04,0.11,0.06,0.23,0.08,0.35    c0.04,0.15,0.09,0.3,0.11,0.45c0.01,0.09,0,0.18,0.01,0.27c0.01,0.19,0.03,0.38,0.02,0.57v0.03c-0.01,0.14-0.05,0.26-0.07,0.39    s-0.03,0.26-0.06,0.39l-0.01,0.02c-0.05,0.19-0.13,0.36-0.2,0.54l-0.1,0.25c-0.07,0.14-0.16,0.27-0.25,0.4    c-0.07,0.1-0.12,0.2-0.19,0.3l-0.23,0.24c-0.11,0.12-0.21,0.24-0.33,0.34c-0.11,0.09-0.23,0.17-0.34,0.25    c-0.1,0.07-0.2,0.16-0.31,0.22c-0.14,0.08-0.3,0.14-0.45,0.21c-0.09,0.04-0.18,0.1-0.28,0.13c-0.11,0.04-0.24,0.06-0.36,0.09    c-0.15,0.04-0.29,0.08-0.44,0.1c-0.09,0.01-0.19,0.01-0.28,0.01l-0.25,0.01l-8.73,33.23l0.06,0.04l0.16,0.11l0.17,0.12l0.03,0.02    l0.03,0.02l0.08,0.07l0.17,0.14l0.14,0.13l0.15,0.16l0.13,0.15l0.13,0.16l0.04,0.04l27.54-10.32c-0.16-1.84,0.9-3.63,2.71-4.31    c0.49-0.18,0.98-0.27,1.47-0.27c1.7,0,3.3,1.04,3.93,2.73c0.81,2.17-0.29,4.59-2.46,5.41c-0.48,0.18-0.98,0.27-1.47,0.27    c-1.33,0-2.61-0.64-3.4-1.74L29.16,106.9l0.01,0.22v0.2v0.17v0.04l-0.02,0.21l-0.03,0.19l-0.04,0.22l-0.04,0.17v0.03l-0.01,0.02    l-0.05,0.18l-0.06,0.17l-0.08,0.2l-0.08,0.18l-0.01,0.02l-0.02,0.05l-0.06,0.11l-0.1,0.18l-0.1,0.16l-0.12,0.18l-0.02,0.03    l-0.02,0.03l-0.07,0.08l-0.14,0.17l-0.13,0.13l-0.16,0.15l-0.05,0.05l0,0l-0.1,0.08l-0.17,0.13l-0.17,0.12l-0.16,0.11l-0.19,0.11    l4.26,18.86c1.84,0.09,3.47,1.38,3.9,3.27c0.51,2.26-0.91,4.51-3.17,5.02C31.63,138.19,31.32,138.22,31.01,138.22 M54.32,155.91    h-12.2l-27.92-10.3c-0.07,0.1-0.14,0.19-0.22,0.28l-0.03,0.03l6.61,9.99h-2.68l-5.8-8.76l-0.14,0.05l-0.02,0.01l-0.1,0.02    l-0.09,0.02c-0.2,0.05-0.4,0.08-0.6,0.1H11.1h-0.07l-0.11,0.01c-0.05,0-0.1,0-0.15,0c-0.16,0-0.31-0.01-0.47-0.03h-0.02    l-0.04-0.01h-0.02l-0.11-0.02c-0.21-0.03-0.41-0.08-0.61-0.15l-0.09-0.03H9.4l-0.05-0.01l-0.04-0.02    c-0.19-0.07-0.38-0.16-0.56-0.26l-0.08-0.05l-0.04-0.02l-0.07-0.04c-0.17-0.11-0.33-0.23-0.48-0.36L8,146.29l-0.04-0.04    l-0.07-0.06c-0.14-0.13-0.27-0.27-0.39-0.43l-0.05-0.06l-0.03-0.04l-0.07-0.09l-0.07-0.09c-0.09-0.13-0.16-0.26-0.23-0.4    l-0.02-0.04L7,144.96l-0.04-0.09c-0.08-0.18-0.15-0.37-0.21-0.56l-0.01-0.02l-0.02-0.1l-0.02-0.08c-0.03-0.11-0.05-0.22-0.06-0.33    l-20.81-2.54v-2.25l21.08,2.57c0.06-0.16,0.14-0.31,0.22-0.46l0.05-0.08l0.02-0.04l0.04-0.07c0.11-0.17,0.22-0.33,0.35-0.48    l0.05-0.06l0.04-0.04l0.06-0.07c0.13-0.14,0.28-0.27,0.43-0.39l0.06-0.05l0.04-0.03l0.09-0.07l0.09-0.07    c0.13-0.09,0.26-0.16,0.4-0.23l0.04-0.02l0.08-0.04l0.09-0.04c0.18-0.08,0.37-0.15,0.56-0.21l0.02-0.01l0.1-0.02l0.09-0.02    c0.2-0.05,0.4-0.08,0.6-0.1h0.03h0.07h0.11c0.05,0,0.1,0,0.15,0c0.16,0,0.31,0.01,0.47,0.03h0.02l0.04,0.01h0.02l0.11,0.02    c0.21,0.04,0.41,0.08,0.62,0.15l0.09,0.03h0.01l0.05,0.01l0.04,0.02c0.19,0.07,0.38,0.16,0.56,0.26l0.08,0.05l0.03,0.02L13,139.6    c0.17,0.11,0.33,0.22,0.48,0.36l0.06,0.05l0.04,0.04l0.07,0.06c0.14,0.13,0.27,0.27,0.39,0.43l0.05,0.07l0.03,0.04l0.07,0.09    l0.07,0.09c0.08,0.13,0.16,0.26,0.23,0.4l0.02,0.04l0.03,0.08l0.04,0.09c0.08,0.18,0.15,0.37,0.21,0.55l0.01,0.03l0.02,0.1    l0.02,0.08c0.05,0.2,0.08,0.4,0.1,0.6v0.04v0.07v0.11c0.01,0.16,0,0.33-0.01,0.49l32.24,11.89l0.12-0.16    c0.07-0.09,0.14-0.19,0.22-0.28l0.25-0.22c0.12-0.11,0.23-0.22,0.36-0.32c0.11-0.08,0.23-0.13,0.34-0.2    c0.12-0.07,0.23-0.15,0.35-0.2c0.14-0.07,0.3-0.11,0.45-0.16c0.1-0.04,0.2-0.08,0.31-0.11s0.23-0.03,0.35-0.05l0.2-0.03    l3.56-21.42c-0.12-0.06-0.23-0.11-0.34-0.18c-0.12-0.07-0.23-0.14-0.34-0.22s-0.22-0.16-0.32-0.25s-0.19-0.18-0.29-0.28    c-0.09-0.1-0.18-0.2-0.26-0.3c-0.08-0.1-0.15-0.21-0.22-0.33s-0.14-0.23-0.21-0.35c-0.06-0.12-0.11-0.24-0.16-0.37    c-0.05-0.13-0.1-0.25-0.13-0.39c-0.04-0.13-0.06-0.27-0.09-0.4c-0.02-0.13-0.04-0.27-0.06-0.4c-0.01-0.14-0.01-0.29-0.01-0.43    v-0.26l0.03-0.16l0.01-0.16l0.07-0.25c0.03-0.14,0.07-0.28,0.11-0.42c0.04-0.13,0.1-0.25,0.15-0.37c0.06-0.13,0.12-0.25,0.19-0.37    s0.15-0.23,0.22-0.34c0.08-0.11,0.16-0.22,0.25-0.32s0.18-0.2,0.28-0.29c0.1-0.09,0.2-0.18,0.3-0.26    c0.11-0.08,0.22-0.15,0.33-0.23c0.12-0.07,0.23-0.14,0.35-0.2s0.24-0.11,0.37-0.16c0.13-0.05,0.25-0.1,0.39-0.13    c0.13-0.04,0.27-0.06,0.4-0.09c0.13-0.02,0.26-0.04,0.4-0.06c0.08-0.01,0.16-0.01,0.24-0.01c0.07,0,0.13,0,0.2,0h0.26l0.16,0.03    l0.16,0.01l0.25,0.07c0.14,0.03,0.28,0.07,0.42,0.11c0.13,0.04,0.25,0.1,0.38,0.15c0.13,0.06,0.25,0.12,0.37,0.19    s0.23,0.15,0.34,0.23s0.22,0.16,0.32,0.25s0.2,0.19,0.29,0.28c0.09,0.1,0.18,0.2,0.26,0.3c0.08,0.11,0.15,0.22,0.23,0.33    c0.07,0.11,0.14,0.23,0.2,0.35c0.06,0.12,0.11,0.24,0.16,0.37c0.05,0.13,0.1,0.25,0.13,0.39c0.03,0.12,0.06,0.25,0.08,0.37    l19.1,1.7c0.61-1.61,2.14-2.73,3.91-2.73c0.12,0,0.25,0,0.37,0.02c2.31,0.21,4.02,2.24,3.81,4.55c-0.19,2.18-2.03,3.83-4.18,3.83    c-0.12,0-0.25-0.01-0.38-0.02c-1.92-0.17-3.41-1.62-3.74-3.43l-19.09-1.7c-0.03,0.09-0.08,0.18-0.12,0.26    c-0.06,0.13-0.12,0.25-0.19,0.37s-0.15,0.23-0.23,0.34c-0.08,0.11-0.16,0.21-0.25,0.32c-0.09,0.1-0.19,0.2-0.28,0.29    c-0.1,0.09-0.2,0.18-0.3,0.26c-0.11,0.08-0.22,0.15-0.33,0.23c-0.11,0.07-0.23,0.14-0.35,0.2s-0.24,0.11-0.37,0.16    c-0.13,0.05-0.25,0.1-0.38,0.13c-0.13,0.04-0.27,0.06-0.4,0.09c-0.1,0.02-0.19,0.04-0.29,0.05l-3.56,21.41l0.22,0.11l0.25,0.13    c0.13,0.08,0.24,0.18,0.36,0.28c0.1,0.08,0.2,0.14,0.29,0.23l0.2,0.23c0.11,0.12,0.23,0.24,0.33,0.38    c0.07,0.1,0.13,0.22,0.19,0.33C54.24,155.79,54.28,155.85,54.32,155.91"
   clip-path="url(#SVGID_00000174573040052392124570000018036103671273787047_)"
   id="path22" />
	</g>
	<g
   id="g34">
		<defs
   id="defs27">
			<rect
   id="SVGID_00000121999800245487107500000001811837451098558341_"
   x="-14.17"
   y="-14.17"
   width="269.29"
   height="170.08" />
		</defs>
		<clipPath
   id="SVGID_00000102513375672454776240000016709738139238537406_">
			<use
   xlink:href="#SVGID_00000121999800245487107500000001811837451098558341_"
   style="overflow:visible;"
   id="use29" />
		</clipPath>
		<path
   style="clip-path:url(#SVGID_00000102513375672454776240000016709738139238537406_);fill:#A7A9AC;"
   d="M0.41,92.78    c-1.22-0.27-2-1.48-1.73-2.7s1.48-2,2.7-1.73c1.02,0.22,1.73,1.1,1.78,2.1l15.85,3.47c0.46-0.88,1.47-1.38,2.49-1.16    c1.22,0.27,2,1.48,1.73,2.7c-0.27,1.22-1.48,2-2.7,1.73c-1.02-0.22-1.73-1.1-1.78-2.1L2.91,91.62C2.44,92.5,1.43,93,0.41,92.78     M15.64,131.19l-0.03,0.01l-0.11,0.01l-0.08,0.01h-0.03l-0.12,0.01h-0.06H15.2h-0.02l-0.12-0.01h-0.03l-0.07-0.01l-0.1-0.02    l-0.04-0.01l-0.05-0.01l-0.03-0.01l-0.07-0.02l-0.06-0.01l-0.06-0.02l-0.03-0.01l-0.05-0.02l-0.05-0.02l-0.08-0.03l-0.02-0.01    l-0.07-0.03L14.23,131l-0.1-0.05l-0.02-0.01l-0.08-0.05l-0.1-0.06l-0.01-0.01l-0.09-0.07l-0.08-0.06l0,0l-0.1-0.09l-0.07-0.06    l-0.08-0.09l-0.06-0.07v-0.01l-0.01-0.01l-0.05-0.07l-0.07-0.09l-0.02-0.02l-0.01-0.01l-0.03-0.06l-0.06-0.1l-0.02-0.03    l-0.03-0.07l-0.04-0.1l-0.02-0.04l-0.03-0.08l-0.03-0.09l-0.01-0.04L13,129.48l-0.02-0.09l-0.01-0.03l-0.01-0.11l-0.01-0.08v-0.03    v-0.12v-0.07v-0.01v-0.02l0.01-0.12v-0.03l0.01-0.07l0.02-0.1v-0.03l0.01-0.06l0.01-0.03l0.02-0.07l0.01-0.05l0.02-0.07l0.01-0.03    l0.02-0.05l0.02-0.05l0.03-0.08l0.01-0.02l0.03-0.07l0,0l0.05-0.1l0.01-0.01l0.05-0.08l0.06-0.09l0.01-0.01l0.07-0.09l0.06-0.08    l0,0l0.09-0.1l0.06-0.07l0.09-0.08l0.07-0.06h0.01l0.01-0.01l0.08-0.06l0.09-0.07l0.02-0.02l0.01-0.01l0.06-0.03l0.1-0.06    l0.03-0.02l0.07-0.03l0.1-0.04l0.04-0.02l0.08-0.03l0.09-0.03l0.04-0.01l0.01-0.01l0.04-15.94l-0.02-0.01l-0.12-0.04l-0.09-0.03    l-0.12-0.05l-0.08-0.04l-0.11-0.06l-0.08-0.05l-0.09-0.06l-0.09-0.07l-0.08-0.06l-0.09-0.08l-0.06-0.06l-0.09-0.1l-0.06-0.07    l-0.08-0.1l-0.02-0.02l-11.1,3.75l0.01,0.1v0.11V114l-0.01,0.1l-0.02,0.11l-0.02,0.1l-0.03,0.11l-0.03,0.1l-0.04,0.11l-0.04,0.1    l-0.04,0.1l-0.06,0.1L1.93,115l-0.07,0.1l-0.06,0.08l-0.08,0.09l-0.07,0.08l-0.08,0.08L1.5,115.5l-0.08,0.07l-0.09,0.07    l-0.09,0.06l-0.1,0.07l-0.09,0.05l-0.11,0.06l-0.03,0.01l-0.08,0.03l-0.08,0.03l-0.03,0.01l-0.12,0.03l-0.1,0.02l-0.12,0.02    l-0.1,0.02l-0.12,0.01l-0.11,0.01h-0.11l-0.11-0.01l-0.1-0.01l-0.12-0.02l-0.1-0.02l-0.12-0.03l-0.1-0.03l-0.11-0.04l-0.1-0.04    l-0.1-0.05l-0.1-0.06l-0.09-0.05l-0.1-0.07l-0.08-0.06l-0.09-0.07l-0.08-0.07l-0.08-0.08l-0.07-0.08l-0.07-0.08l-0.07-0.09    l-0.06-0.08l-0.07-0.11l-0.02-0.1l-0.06-0.11l-0.01-0.03l-0.03-0.08l-0.03-0.08l-0.01-0.03l-0.03-0.12l-0.02-0.1l-0.02-0.12    l-0.02-0.1l-0.01-0.12l-0.01-0.11v-0.11l0.01-0.11l0.01-0.1l0.02-0.12l0.02-0.1l0.03-0.12l0.03-0.09l0.04-0.11l0.04-0.1l0.05-0.1    l0.05-0.1l0.05-0.09l0.07-0.09l0.06-0.08l0.07-0.09l0.07-0.08l0.08-0.08l0.08-0.08l0.08-0.06l-4.05-9.52    c-0.99,0.13-1.98-0.4-2.39-1.36c-0.49-1.15,0.05-2.49,1.2-2.97c1.15-0.49,2.49,0.05,2.98,1.2c0.41,0.96,0.1,2.04-0.68,2.66    l4.05,9.52h0.05l0.12-0.01H0h0.11l0.11,0.01l0.1,0.01l0.11,0.02l0.1,0.02l0.11,0.03l0.1,0.03l0.11,0.04l0.1,0.04l0.1,0.04    l0.1,0.06l0.09,0.05l0.1,0.07L1.41,112l0.09,0.08l0.08,0.07l0.08,0.08l0.07,0.08l0.07,0.08l0.07,0.09l0.03,0.04l11.1-3.75v-0.11    v-0.02v-0.06l0.01-0.14l0.01-0.1l0.02-0.12l0.03-0.11l0.03-0.1l0.04-0.12l0.03-0.08l0.05-0.12l0.04-0.08l0.06-0.11l0.05-0.08    l0.06-0.09l0.07-0.09l0.06-0.08l0.08-0.09L13.7,107l0.1-0.09l0.07-0.06l0.1-0.08l0.09-0.06l0.1-0.06l0.11-0.06l0.08-0.04    l0.14-0.06l0.05-0.02l0.02-0.01l0.14-0.04l0.08-0.02l0.12-0.02l0.11-0.02l0.09-0.01l0.14-0.01h0.02h0.06l0.15,0.01l0.09,0.01    l0.12,0.02l0.11,0.03l0.1,0.03l0.12,0.04l0.08,0.03l0.12,0.05l0.08,0.04l0.11,0.06l0.08,0.05l0.09,0.06l0.09,0.07l0.07,0.06    l0.09,0.09l0.06,0.06l0.09,0.1l0.05,0.07l0.08,0.1l0.05,0.08l0.06,0.1l0.06,0.11l0.04,0.09l0.05,0.14l0.02,0.05l0.01,0.02    l0.04,0.14l0.02,0.08l0.02,0.11l0.02,0.12l0.01,0.09l0.01,0.15v0.02v0.06l-0.01,0.15l-0.01,0.09l-0.02,0.12l-0.02,0.11l-0.03,0.1    l-0.04,0.12l-0.03,0.08l-0.05,0.12l-0.04,0.08l-0.06,0.11l-0.05,0.08l-0.06,0.09l-0.07,0.09l-0.06,0.07l-0.09,0.09l-0.06,0.06    l-0.1,0.09l-0.07,0.06l-0.1,0.08l-0.08,0.05l-0.1,0.06l-0.11,0.06l-0.09,0.04l-0.13,0.05l-0.05,0.02l-0.02,0.01l-0.11,0.03    l-0.04,15.95l0.06,0.02l0.03,0.01l0.05,0.02l0.04,0.02l0.08,0.03l0.02,0.01l0.08,0.04l0.1,0.05l0.01,0.01l0.08,0.05l0.1,0.06    l0.01,0.01l0.09,0.07l0.08,0.06l0,0l0.07,0.06l14.29-9.1c-0.29-0.95,0.07-2.02,0.95-2.58c1.06-0.67,2.46-0.36,3.13,0.69    c0.67,1.06,0.36,2.46-0.69,3.13c-0.88,0.56-2,0.44-2.74-0.23l-14.29,9.1v0.02l0.01,0.04l0.02,0.09l0.02,0.09l0.01,0.03l0.02,0.11    l0.01,0.08v0.03v0.12v0.07v0.01v0.02l-0.01,0.12v0.02l-0.01,0.08l-0.02,0.1l-0.01,0.05l-0.01,0.04l-0.01,0.03l-0.02,0.07    l-0.01,0.06l-0.02,0.06l-0.01,0.03l-0.02,0.05l-0.02,0.05l-0.03,0.08l-0.01,0.02l-0.03,0.07l-0.01,0.01l-0.05,0.1l-0.01,0.01    l-0.05,0.08l-0.06,0.09l-0.01,0.01l-0.03,0.04l8.99,11.1c0.91-0.4,2.01-0.16,2.67,0.65c0.79,0.97,0.64,2.4-0.33,3.19    c-0.97,0.79-2.4,0.64-3.19-0.33c-0.66-0.81-0.66-1.94-0.08-2.75l-8.99-11.1l-0.05,0.02l-0.03,0.01l-0.08,0.03l-0.09,0.03    l-0.04,0.01l-0.09,0.02L15.64,131.19 M1.45,159.39L1.45,159.39l-0.22,0.03h-0.1H1.01l-0.14-0.01l-0.08-0.01l-0.15-0.02l-0.07-0.01    l-0.13-0.04l-0.08-0.02l-0.11-0.04l-0.09-0.04l-0.09-0.04l-0.11-0.05l-0.07-0.04l-0.12-0.07l-0.05-0.04l-0.12-0.09l-0.06-0.05    l-0.1-0.1l-0.08-0.09l-0.07-0.08l-0.12-0.17l-0.01-0.01c-0.08-0.13-0.15-0.26-0.21-0.41c-0.06-0.15-0.1-0.29-0.12-0.44v-0.01    l-0.03-0.21v-0.1v-0.11l0.01-0.14l0.01-0.07l0.02-0.15l0.01-0.07l0.04-0.14l0.02-0.07l0.04-0.12l0.03-0.09l0.04-0.09l0.05-0.11    l0.04-0.07l0.07-0.12l0.04-0.06l0.09-0.12l0.06-0.06l0.09-0.1l0.05-0.04l-6.59-12.79l-0.07,0.01l-0.11,0.02l-0.11,0.01l-0.19,0.01    h-0.03l-0.23-0.02l0,0l-0.06-0.01l-0.15-0.03l-0.12-0.03l-0.09-0.02l-0.13-0.05l-0.07-0.03l-0.12-0.06l-0.07-0.04l-0.1-0.06    l-0.09-0.06l-0.08-0.06L-9,142.2l-0.06-0.06l-0.1-0.1l-0.05-0.06l-0.09-0.11l-0.06-0.08l-0.07-0.1l-0.09-0.15l-0.02-0.04l0,0    l-0.09-0.21l0,0l-0.07-0.21L-9.73,141l-0.03-0.13l-0.02-0.13l-0.01-0.09l-0.01-0.21v-0.01l0.02-0.23l0,0l0.01-0.05l0.03-0.16    l0.03-0.12l0.02-0.09l0.05-0.13l0.03-0.07l0.06-0.12l0.04-0.07l0.07-0.1l0.05-0.08l0.06-0.08l0.07-0.1l0.06-0.06l0.09-0.1    l0.06-0.05l0.11-0.09l0.08-0.06l0.1-0.07l0.14-0.08l0.05-0.03l0,0l0.21-0.09l0.01-0.01l0.2-0.07l0.1-0.02l0.12-0.03l0.14-0.02    l0.08-0.01c0.15-0.01,0.3-0.01,0.45,0.01l0,0l0.03,0.01l0.18,0.03l0.11,0.03l0.1,0.03l0.13,0.05l0.08,0.03l0.12,0.06l0.08,0.04    l0.1,0.06l0.09,0.06l0.08,0.06l0.1,0.08l0.06,0.06l0.1,0.1l0.05,0.06l0.09,0.11l0.06,0.08l0.07,0.1l0.08,0.14l0.03,0.05l0,0    l0.09,0.21v0.01l0.07,0.2l0.02,0.09l0.03,0.13l0.01,0.07l13.95,1.7c0.38-0.92,1.34-1.51,2.37-1.39c1.24,0.15,2.13,1.28,1.98,2.53    c-0.15,1.24-1.28,2.13-2.53,1.98c-1.04-0.13-1.82-0.93-1.97-1.92l-13.95-1.7l-0.02,0.04l-0.06,0.12l-0.04,0.08l-0.06,0.1    l-0.06,0.09l-0.06,0.08l-0.08,0.1l-0.06,0.06l-0.09,0.1l-0.04,0.03l6.59,12.79l0.08-0.02l0,0l0.22-0.03h0.1h0.12l0.14,0.01    l0.08,0.01l0.15,0.02l0.07,0.01l0.14,0.04l0.07,0.02l0.12,0.04l0.09,0.04l0.09,0.04l0.11,0.05l0.07,0.04l0.12,0.07l0.06,0.04    l0.12,0.09l0.06,0.06l0.1,0.09l0.08,0.09l0.06,0.07l0.13,0.18l0,0l0.04,0.07l13.48-3.76v-0.02v-0.09L16.5,152l0.01-0.12l0.01-0.08    l0.01-0.04l0.02-0.09l0.03-0.12l0.03-0.09l0.03-0.09l0.01-0.04l0.03-0.07l0.06-0.11l0.05-0.08l0.06-0.1l0.01-0.02l0.01-0.01    l0.04-0.06l0.07-0.08l0.07-0.09l0.07-0.07l0.03-0.03l0.01-0.01l0.05-0.04l0.07-0.06l0.1-0.08l0.08-0.06l0.05-0.03l0.01-0.01    l0.04-0.03l0.1-0.05l0.09-0.05l0.12-0.05l0.02-0.01l0.02-0.01l0.04-0.02l0.14-0.04l0.06-0.02l0.02-0.01l0.12-0.03l0.04-0.01    l0.07-0.01l0.1-0.01l0.13-0.01h0.03h0.06l0,0h0.04h0.1l0.09,0.01l0.13,0.01l0.08,0.01L19.2,150l0.09,0.02l0.11,0.03l0.09,0.03    l0.09,0.03l0.04,0.02l0.07,0.03l0.11,0.06l0.08,0.05l0.1,0.06l0,0l0.02,0.01l0.01,0.01l0.06,0.04l0.08,0.06l0.09,0.08l0.07,0.07    l0.03,0.03l0.01,0.01l0.04,0.05l0.06,0.07l0.08,0.1l0.06,0.08l0.03,0.05l0.01,0.01l0.03,0.05l0.05,0.09l0.05,0.1l0.05,0.12    l0.01,0.02l0.01,0.02l0.02,0.04l0.04,0.11l18.54-0.75l0.02-0.08l0.02-0.07l0.05-0.14l0.01-0.03l0.08-0.18v-0.01l0.1-0.18    l0.03-0.04l0.09-0.13l0.11-0.12l0.03-0.04l0.15-0.14l0.01-0.01l0.14-0.12l0.03-0.02l0.12-0.08l0.06-0.04l0.07-0.04l-2.66-11.41    l-0.1-0.01l-0.11-0.01l-0.11-0.02l-0.1-0.02l-0.11-0.03l-0.1-0.03l-0.11-0.04l-0.1-0.04l-0.1-0.05l-0.1-0.05l-0.09-0.05    l-0.09-0.06l-0.08-0.06l-0.09-0.07l-0.08-0.07l-0.08-0.09l-0.07-0.07l-0.07-0.09l-0.07-0.09l-0.06-0.09l-0.06-0.1l-0.05-0.09    l-0.06-0.11l-0.04-0.1l-0.04-0.12l-0.01-0.03l-0.02-0.08l-0.02-0.08v-0.03l-0.02-0.13l-0.01-0.1l-0.01-0.13v-0.1v-0.12v-0.11    l0.01-0.11l0.02-0.11l0.02-0.1l0.03-0.11l0.03-0.09l0.04-0.11l0.04-0.09l0.05-0.1l0.05-0.09l0.05-0.09l0.07-0.09l0.06-0.08    l0.08-0.09l0.07-0.08l0.08-0.08l0.08-0.07l0.09-0.07l0.09-0.07l0.09-0.06l0.1-0.06l0.09-0.04l0.12-0.06l0.09-0.04l0.12-0.05    l0.03-0.01l0.08-0.02l0.08-0.03h0.03l0.12-0.02l0.1-0.02l0.12-0.01l0.1-0.01h0.12l0.11,0.01l0.11,0.01l0.11,0.02l0.1,0.02    l0.11,0.03l0.1,0.03l0.11,0.04l0.09,0.04l0.1,0.05l0.09,0.05l0.09,0.05l0.09,0.07l0.08,0.06l0.09,0.08l0.08,0.07l0.08,0.08    l0.07,0.07l0.07,0.09l0.07,0.09l0.05,0.08l9.87-3.11c-0.04-0.99,0.59-1.93,1.58-2.25c1.2-0.38,2.47,0.29,2.85,1.48    c0.38,1.2-0.29,2.47-1.48,2.85c-1,0.31-2.04-0.1-2.58-0.93l-9.87,3.11v0.05v0.12v0.11l-0.01,0.11l-0.02,0.11l-0.02,0.1l-0.03,0.12    l-0.03,0.09l-0.04,0.11l-0.04,0.09l-0.05,0.11l-0.05,0.09l-0.06,0.09l-0.07,0.09L39.8,137l-0.08,0.09l-0.07,0.08l-0.08,0.08    l-0.07,0.07l-0.09,0.07l-0.09,0.07l-0.09,0.06l-0.1,0.06l-0.04,0.02l2.66,11.41h0.06l0.15,0.02l0.08,0.01l0.11,0.02l0.11,0.02    l0.07,0.02l0.14,0.05l0.02,0.01c0.13,0.05,0.25,0.11,0.37,0.18l0.04,0.03l0.14,0.1l0.12,0.1l0.05,0.04l0.14,0.15l0.01,0.01    l0.12,0.14l0.02,0.03l0.08,0.12l0.04,0.07l0.05,0.09l0.06,0.11l0.03,0.07l0.06,0.14l0.02,0.06l0.05,0.16v0.01l0.01,0.07l0.03,0.14    l0.01,0.14l0.01,0.08v0.01v0.16v0.07l-0.02,0.15l-0.01,0.08l-0.02,0.11l-0.02,0.11l-0.02,0.07l-0.05,0.15l-0.01,0.02    c-0.05,0.13-0.11,0.25-0.18,0.37l-0.03,0.04l-0.1,0.14l-0.1,0.12l-0.04,0.05l-0.15,0.14L43.19,153l-0.15,0.12l-0.02,0.02    l-0.13,0.08l-0.06,0.04l-0.1,0.05l-0.1,0.05l-0.07,0.03l-0.14,0.06l-0.06,0.02l-0.16,0.04h-0.01l-0.08,0.01l-0.13,0.02l-0.14,0.01    l-0.07,0.01h-0.01h-0.17h-0.06l-0.15-0.02l-0.07-0.01l-0.12-0.03l-0.1-0.02L41,153.45l-0.14-0.05l-0.03-0.01l-0.17-0.07h-0.01    l-0.18-0.1l-0.05-0.03l-0.13-0.09l-0.12-0.1l-0.04-0.04l-0.15-0.15v-0.01l-0.12-0.15l-0.01-0.02l-0.08-0.12l-0.04-0.06l-0.05-0.1    l-0.06-0.11l-0.03-0.07l-0.06-0.14l-0.02-0.05l-18.54,0.75l-0.01,0.03l-0.03,0.11l-0.02,0.06l-0.67,1h-0.01l-0.1,0.08l-0.08,0.06    L20,154.1l-0.01,0.01l-0.05,0.03l-0.09,0.06l-0.1,0.05l-0.12,0.05l-0.02,0.01l-0.02,0.01l-0.04,0.02l-0.14,0.05l-0.06,0.02    l-0.03,0.01l-0.12,0.03l-0.04,0.01l-0.07,0.01l-0.1,0.01l-0.13,0.01h-0.03h-0.06h-0.01h-0.04h-0.1l-0.09-0.01l-0.13-0.01    l-0.08-0.01l-0.04-0.01l-0.09-0.02l-0.11-0.03L18,154.35l-0.09-0.04l-0.04-0.01l-0.07-0.03l-0.11-0.06l-0.08-0.05l-0.1-0.06    l-0.02-0.01l-0.01-0.01l-0.06-0.04l-0.08-0.07l-0.09-0.07l-0.07-0.07l-0.03-0.03l-0.01-0.01l-0.04-0.04l-0.06-0.07l-0.08-0.1    l-0.06-0.08l-0.03-0.04l-0.01-0.01l-0.03-0.04l-0.02-0.02l-13.47,3.76v0.06l-0.01,0.14l-0.01,0.08l-0.03,0.15l-0.01,0.07    l-0.04,0.14l-0.02,0.08l-0.04,0.11l-0.04,0.09l-0.04,0.09l-0.06,0.11L3,158.34l-0.08,0.12l-0.04,0.05l-0.09,0.12l-0.05,0.06    l-0.1,0.1l-0.09,0.08l-0.08,0.07l-0.17,0.13l0,0c-0.13,0.08-0.26,0.15-0.41,0.21C1.75,159.32,1.6,159.36,1.45,159.39"
   clip-path="url(#SVGID_00000102513375672454776240000016709738139238537406_)"
   id="path32" />
	</g>
	<g
   id="g44">
		<defs
   id="defs37">
			<rect
   id="SVGID_00000168806232085508166860000011445406775909433233_"
   x="-14.17"
   y="-14.17"
   width="269.29"
   height="170.08" />
		</defs>
		<clipPath
   id="SVGID_00000136404237964210308650000006338486452852483991_">
			<use
   xlink:href="#SVGID_00000168806232085508166860000011445406775909433233_"
   style="overflow:visible;"
   id="use39" />
		</clipPath>
		<path
   style="clip-path:url(#SVGID_00000136404237964210308650000006338486452852483991_);fill:#797B7D;"
   d="M221.44-14.08    l-0.09-0.04l-0.01-0.01l-0.06-0.02l-0.05-0.02c-0.01-0.01-0.03-0.01-0.04-0.01h0.34L221.44-14.08z M219.08-13.95l-0.19-0.22h0.69    c-0.09,0.03-0.18,0.06-0.27,0.1l-0.06,0.03l-0.02,0.01l-0.05,0.02C219.15-13.99,219.11-13.97,219.08-13.95 M222.67-12.98    l-0.12-0.19l-0.01-0.02l0.44-0.54l0.48,0.55L222.67-12.98 M230.56-0.92l-8.06-9.14l0.11-0.15l0.02-0.03l0.03-0.04l0.03-0.05    c0.06-0.11,0.12-0.22,0.16-0.33l0.01-0.02l0.02-0.06l0.02-0.05c0.04-0.12,0.07-0.25,0.1-0.37v-0.02l0.01-0.04l0.01-0.07    c0.01-0.1,0.02-0.21,0.02-0.31l1.46-0.4l5.58,6.33c-0.02,0.05-0.04,0.11-0.06,0.16c-0.38,1.16,0.08,2.39,1.05,3.03L230.56-0.92     M197.1,8.79l-0.03-0.04l-0.11-0.12l-0.07-0.07l-0.11-0.09l-0.05-0.04l1.82-0.28L197.1,8.79 M197.62,11.1l0.02-0.1l0.01-0.06l0,0    l0.03-0.26v-0.01l0.01-0.25l-0.01-0.1l-0.01-0.15l-0.01-0.08l6.17-2.75l25.29-3.89l-0.98,2.96L197.62,11.1 M187.99,16.4    c-2.53,0-4.76-1.85-5.16-4.43c-0.44-2.85,1.52-5.52,4.37-5.96c0.27-0.04,0.53-0.06,0.8-0.06c2.07,0,3.93,1.23,4.76,3.09l0.07-0.01    l-0.02,0.03l-0.05,0.09l-0.08,0.14l-0.04,0.08l-0.07,0.15l-0.04,0.11l-0.04,0.13l-0.05,0.2l-0.01,0.05l0,0    c-0.03,0.17-0.04,0.35-0.04,0.53l0.01,0.1l0.01,0.16l0.03,0.15l0.02,0.11l0.07,0.24v0.01l0.1,0.25l0,0l0.03,0.05l0.09,0.18    l0.08,0.12l0.06,0.09l0.1,0.13l0.06,0.07l0.06,0.07c-0.44,2.06-2.11,3.73-4.31,4.07C188.52,16.38,188.26,16.4,187.99,16.4     M238.39,16.49l-2.84-1.39l-0.25-6.3l-0.11-0.03h-0.02l-0.24-0.07l-0.21-0.07l-0.04-0.01l-0.23-0.1l-0.02-0.01l-0.16-0.07    l-0.05-0.03l-0.17-0.09l-0.11-0.06l-0.11-0.06l-0.06-0.04l-0.12-0.08L233.53,8l-0.13-0.09l-0.06-0.04l-0.08-0.07l-0.09-0.07    l-0.18-0.15l-0.13-0.13l-0.04-0.04l-0.19-0.2l-0.04-0.04l-0.01-0.01l-0.09-0.12l-0.18-0.22l-0.04-0.06l-0.1-0.15l-0.14-0.21    l-0.04-0.07l-0.1-0.18l-0.1-0.19l-0.04-0.08l-0.02-0.04l-2.02,0.31l0.98-2.96l0.62-0.1l0.02-0.21V2.87l0.05-0.22l0.05-0.26    l0.01-0.02l0.08-0.25l0.07-0.21l0.01-0.04l0.1-0.24l0.08-0.18l0.02-0.05l0.1-0.18l0.05-0.1l0.06-0.11l0.04-0.06l0.08-0.12    l-0.49-0.55l0.77-2.34c0.04,0,0.09,0,0.13,0c0.23,0,0.45-0.03,0.67-0.09l1,1.13L234.24-1l0.08-0.04l0.21-0.09l0.18-0.07l0.09-0.03    l0.24-0.07l0.17-0.05l0.08-0.02l0.27-0.05l0.15-0.03h0.02l0.07-0.01l0.26-0.02l0.21-0.02h0.03h0.02h0.21c0.04,0,0.08,0,0.12,0    c0.06,0,0.11,0,0.17,0l0.21,0.02c0.1,0.01,0.21,0.02,0.31,0.04h0.01l0.22,0.05l0.26,0.05l0.02,0.01l0.25,0.08l0.21,0.06l0.04,0.01    l0.24,0.1l0.01,0.01L238.77-1l0.05,0.02l0.18,0.1l0.1,0.06l0.11,0.06l0.06,0.04l0.13,0.09l0.1,0.07l0.13,0.09l0.06,0.04l0.11,0.09    l0.06,0.05l0.18,0.15l0.12,0.12l0.05,0.05l0.19,0.19l0.04,0.04l0.01,0.01l0.09,0.12l0.18,0.22l0.04,0.06l0.1,0.15L241,1.03    l0.04,0.07l0.1,0.18l0.1,0.2l0.04,0.08l0.09,0.21l0.07,0.18l0.03,0.09l0.07,0.24l0.05,0.17l0.02,0.08l0.05,0.27l0.03,0.15v0.03    l0.01,0.06l0.02,0.26l0.02,0.21v0.02v0.02v0.21c0,0.09,0,0.19,0,0.28l-0.02,0.21c-0.01,0.1-0.02,0.21-0.03,0.31v0.01l-0.05,0.22    l-0.05,0.26l-0.01,0.02l-0.08,0.25l-0.06,0.2l-0.01,0.04l-0.1,0.24l-0.01,0.03l-0.07,0.15L241.2,6l-0.1,0.17l-0.06,0.11l-0.05,0.1    l-0.04,0.06l-0.08,0.12l-0.08,0.11L240.7,6.8l-0.04,0.06l-0.08,0.09l-0.06,0.08l-0.15,0.18l-0.12,0.12l-0.05,0.05l-0.19,0.19    l-0.04,0.04l-0.01,0.01l-0.12,0.09l-0.22,0.18l-0.06,0.04l-0.15,0.1l-0.21,0.14l-0.07,0.04l-0.18,0.1l-0.2,0.1l-0.08,0.04    l-0.21,0.09l-0.18,0.07l-0.08,0.03l-0.12,0.04L238.39,16.49 M238.17,51.86c-2.79,0-5.11-2.21-5.22-5.02    c-0.09-2.4,1.45-4.48,3.64-5.18l-0.97-24.96l2.83,1.39l0.92,23.46c2.23,0.52,3.94,2.48,4.03,4.88c0.11,2.88-2.14,5.31-5.02,5.42    C238.31,51.86,238.24,51.86,238.17,51.86 M211.83,52.1l0.36-3.51l0.05,0.2l0.04,0.27l0.04,0.24l0.02,0.25l0.01,0.26l-0.01,0.24    c0,0.09-0.01,0.18-0.01,0.27l-0.03,0.23l-0.04,0.27l-0.05,0.23l-0.06,0.25l-0.08,0.23l-0.08,0.24l-0.11,0.24L211.83,52.1     M176.12,68.72c-2.01,0-3.92-1.17-4.79-3.12c-1.16-2.64,0.04-5.72,2.68-6.89c0.68-0.3,1.39-0.44,2.1-0.44    c1.56,0,3.06,0.7,4.06,1.93l21.8-9.6l-0.03-0.22l-0.01-0.25l-0.01-0.26l0.01-0.24c0-0.09,0.01-0.18,0.01-0.27l0.03-0.23l0.04-0.27    l0.05-0.23l0.06-0.25l0.08-0.24l0.08-0.24l0.11-0.24l0.1-0.21l0.13-0.24l0.12-0.2l0.16-0.22l0.14-0.19l0.17-0.2l0.16-0.19    l0.18-0.17l0.2-0.18l0.19-0.15l0.23-0.17l0.2-0.13l0.25-0.15l0.06-0.03l0.18-0.09l0.17-0.09l0.06-0.02    c0.09-0.04,0.19-0.07,0.28-0.11l0.21-0.07c0.1-0.03,0.19-0.05,0.29-0.08l0.22-0.05c0.09-0.02,0.18-0.03,0.27-0.04l0.24-0.03    l0.25-0.02l0.26-0.01l0.24,0.01l0.27,0.01l0.23,0.03l0.26,0.04l0.23,0.05l0.25,0.06l0.24,0.08l0.24,0.08l0.24,0.11l0.22,0.1    l0.24,0.13l0.2,0.12l0.22,0.15l0.19,0.14l0.2,0.17l0.19,0.17l0.17,0.18l0.09,0.1l-0.61,5.83c-1.15,0.19-2.07,1.13-2.2,2.34    c-0.01,0.15-0.02,0.29-0.01,0.43h-0.02L207.91,55l-0.24,0.03l-0.25,0.02l-0.26,0.01l-0.24-0.01c-0.09,0-0.18-0.01-0.27-0.01    l-0.23-0.03l-0.27-0.04l-0.23-0.05l-0.26-0.06l-0.24-0.08l-0.23-0.08l-0.24-0.11l-0.21-0.1l-0.24-0.13l-0.2-0.12l-0.23-0.16    l-0.18-0.14l-0.2-0.17l-0.18-0.16l-0.18-0.18l-0.18-0.2l-0.07-0.08l-21.8,9.6c0.33,2.27-0.86,4.57-3.06,5.54    C177.54,68.58,176.82,68.72,176.12,68.72 M224.58,87.74c-0.02,0-0.03,0-0.05,0h-0.02c-0.16,0-0.32-0.01-0.47-0.03l-0.14-0.02    c-0.12-0.02-0.24-0.03-0.35-0.06c-0.13-0.03-0.26-0.06-0.38-0.1l-0.1-0.03c-0.3-0.09-0.59-0.21-0.87-0.36l-0.05-0.03    c-0.1-0.06-0.2-0.12-0.3-0.18l-0.14-0.08l-0.21-0.15l-0.21-0.16l-0.14-0.12l-0.26-0.23l-0.1-0.11c-0.09-0.09-0.17-0.18-0.25-0.28    l-0.02-0.02l-0.1-0.14l-0.19-0.26c-0.06-0.09-0.11-0.18-0.17-0.28l-0.09-0.14l-0.01-0.02c-0.06-0.11-0.11-0.23-0.17-0.35    l-0.06-0.13c-0.04-0.11-0.08-0.22-0.12-0.34l-0.05-0.16c-0.03-0.09-0.05-0.18-0.07-0.27l-0.05-0.23l-0.02-0.18    c-0.02-0.11-0.04-0.22-0.04-0.33v-0.08c-0.01-0.14-0.02-0.28-0.01-0.43v-0.03c0-0.16,0.01-0.31,0.03-0.47l0.02-0.15    c0.02-0.11,0.03-0.23,0.05-0.34c0.03-0.13,0.06-0.25,0.1-0.38l0.03-0.1c0.09-0.3,0.21-0.59,0.36-0.87l0.03-0.06    c0.05-0.1,0.12-0.2,0.18-0.3l0.08-0.14l0.15-0.2l0.16-0.21l0.12-0.13l0.23-0.26l0.1-0.09L209.41,57c0.34,0.23,0.74,0.37,1.18,0.42    c0.09,0.01,0.19,0.01,0.28,0.01c0.61,0,1.17-0.21,1.63-0.56l10.97,20.53l0.18-0.04l0.17-0.02c0.11-0.02,0.22-0.04,0.33-0.05h0.08    c0.13-0.01,0.26-0.02,0.39-0.02c0.01,0,0.03,0,0.04,0h0.03c0.16,0,0.31,0.01,0.47,0.03l0.12,0.02c0.12,0.02,0.25,0.03,0.37,0.06    c0.12,0.02,0.24,0.06,0.36,0.09l0.12,0.03c0.15,0.05,0.31,0.1,0.46,0.16l0.01,0.01c0.14,0.06,0.27,0.12,0.4,0.19l0.06,0.03    c0.1,0.05,0.2,0.11,0.3,0.18l0.14,0.08l0.15,0.11l27.49-22.2v3.57L229.4,80.42l0.05,0.12c0.04,0.11,0.08,0.22,0.12,0.33l0.06,0.17    l0.07,0.26l0.06,0.24l0.02,0.17c0.02,0.11,0.04,0.23,0.04,0.34v0.06c0.01,0.15,0.02,0.3,0.02,0.45v0.02    c0,0.16-0.01,0.32-0.03,0.48l-0.02,0.13c-0.02,0.12-0.03,0.25-0.06,0.36c-0.02,0.12-0.06,0.23-0.09,0.34l-0.04,0.14    c-0.05,0.15-0.1,0.3-0.16,0.45l-0.01,0.02c-0.05,0.13-0.12,0.26-0.18,0.39l-0.03,0.07c-0.05,0.1-0.11,0.2-0.17,0.29l-0.09,0.15    l-0.14,0.2l-0.17,0.22l-0.11,0.12l-0.24,0.26l-0.1,0.09c-0.09,0.09-0.19,0.18-0.29,0.26l-0.02,0.02l-0.13,0.1    c-0.09,0.07-0.17,0.13-0.26,0.19c-0.09,0.06-0.18,0.11-0.27,0.16l-0.15,0.09l-0.03,0.01c-0.11,0.06-0.23,0.11-0.34,0.16    l-0.14,0.06c-0.11,0.04-0.21,0.08-0.32,0.11l-0.17,0.06l-0.26,0.06l-0.25,0.06l-0.16,0.02c-0.11,0.02-0.23,0.04-0.35,0.05H225    C224.84,87.73,224.71,87.74,224.58,87.74"
   clip-path="url(#SVGID_00000136404237964210308650000006338486452852483991_)"
   id="path42" />
	</g>
	<g
   id="g54">
		<defs
   id="defs47">
			<rect
   id="SVGID_00000075851645891734388500000003089617127040713857_"
   x="-14.17"
   y="-14.17"
   width="269.29"
   height="170.08" />
		</defs>
		<clipPath
   id="SVGID_00000052086906258721936200000008229089435748218021_">
			<use
   xlink:href="#SVGID_00000075851645891734388500000003089617127040713857_"
   style="overflow:visible;"
   id="use49" />
		</clipPath>
		<path
   style="clip-path:url(#SVGID_00000052086906258721936200000008229089435748218021_);fill:#A7A9AC;"
   d="M222.5-10.07    l-3.43-3.89c0.04-0.02,0.07-0.04,0.11-0.06l0.05-0.02l0.02-0.01l0.05-0.03c0.09-0.04,0.18-0.07,0.27-0.1h1.6    c0.01,0,0.03,0.01,0.04,0.01l0.05,0.02l0.06,0.02h0.01l0.09,0.04l0.08-0.1h1.07l0.39,0.44l-0.44,0.54l0.01,0.02l0.12,0.19    l0.79-0.21L224.5-12l-1.47,0.39c0,0.1-0.01,0.21-0.02,0.31L223-11.24l-0.01,0.04v0.02c-0.02,0.12-0.06,0.25-0.1,0.37l-0.02,0.05    l-0.02,0.06l-0.01,0.02c-0.04,0.11-0.1,0.23-0.16,0.34l-0.03,0.05l-0.03,0.04l-0.02,0.03L222.5-10.07z M231.64,0.3l-1.08-1.23    l0.51-1.55c-0.97-0.64-1.43-1.88-1.05-3.03c0.02-0.06,0.04-0.11,0.06-0.16l3.13,3.55c-0.22,0.06-0.44,0.09-0.67,0.09    c-0.04,0-0.09,0-0.13,0L231.64,0.3 M228.15,6.4l0.97-2.96l1.56-0.24l-0.97,2.96L228.15,6.4 M193.1,12.27l-0.06-0.07l-0.06-0.07    l-0.1-0.13l-0.06-0.09l-0.08-0.12l-0.09-0.17l-0.03-0.05l0,0l-0.1-0.25v-0.01l-0.07-0.24l-0.02-0.11l-0.03-0.15l-0.01-0.16    l-0.01-0.1c0-0.18,0.01-0.35,0.04-0.53l0,0l0.01-0.05l0.05-0.2l0.04-0.13l0.04-0.11l0.07-0.15l0.04-0.08l0.08-0.14l0.05-0.09    l0.02-0.03l3.89-0.6l0.05,0.04l0.11,0.09l0.07,0.07l0.11,0.12l0.04,0.04l1.45-0.65l5.29-0.81l-6.17,2.75l0.01,0.08l0.01,0.15    l0.01,0.1l-0.01,0.25v0.01l-0.03,0.26l0,0l0,0.06l-0.02,0.1l-4.44,0.68C193.16,11.95,193.14,12.11,193.1,12.27 M238.45,18.09    l-2.84-1.39l-0.06-1.6l2.84,1.39L238.45,18.09 M210.85,57.45c-0.09,0-0.18,0-0.28-0.01c-0.44-0.05-0.84-0.19-1.18-0.42l-1.11-2.08    l-0.08,0.02c-0.01-0.14-0.01-0.28,0.01-0.43c0.13-1.21,1.05-2.15,2.2-2.34l0.61-5.83l0.1,0.11l0.14,0.18l0.17,0.23l0.12,0.19    l0.15,0.25l0.03,0.06l0.08,0.18l0.09,0.18l0.02,0.06c0.04,0.09,0.07,0.18,0.1,0.27l0.08,0.22c0.03,0.09,0.05,0.18,0.07,0.28    l0.01,0.03l-0.37,3.51l-0.06,0.13l-0.13,0.24l-0.12,0.2l-0.16,0.22l-0.14,0.19l-0.17,0.2l-0.16,0.19l-0.16,0.16l1.75,3.27    C212.02,57.24,211.45,57.45,210.85,57.45"
   clip-path="url(#SVGID_00000052086906258721936200000008229089435748218021_)"
   id="path52" />
	</g>
</g>
<g
   id="g148">
	<g
   id="g66">
		<defs
   id="defs59">
			<rect
   id="SVGID_00000126305352059341569870000015361770892689915577_"
   x="-14.17"
   y="-14.17"
   width="269.29"
   height="170.08" />
		</defs>
		<clipPath
   id="SVGID_00000080178903962363158540000009175296397841137556_">
			<use
   xlink:href="#SVGID_00000126305352059341569870000015361770892689915577_"
   style="overflow:visible;"
   id="use61" />
		</clipPath>
		<path
   style="clip-path:url(#SVGID_00000080178903962363158540000009175296397841137556_);fill:#72BF44;"
   d="M108.1,38.23    l4.64-2.33c0.81,1.08,2.09,1.78,3.55,1.78c2.44,0,4.43-1.99,4.43-4.43c0-2.45-1.98-4.43-4.43-4.43s-4.43,1.98-4.43,4.43    c0,0.44,0.07,0.86,0.18,1.26l-4.27,2.14l-3.4-5.84c0.95-0.81,1.56-2.02,1.56-3.37c0-2.45-1.98-4.43-4.43-4.43    s-4.43,1.98-4.43,4.43s1.98,4.43,4.43,4.43c0.54,0,1.04-0.1,1.52-0.27l3.59,6.16l-7.19,20.78l-8.1-12.25    c0.85-0.81,1.38-1.94,1.38-3.21c0-2.45-1.98-4.43-4.43-4.43s-4.43,1.98-4.43,4.43s1.98,4.43,4.43,4.43c0.62,0,1.22-0.13,1.76-0.36    l9.84,14.88L108.1,38.23z"
   clip-path="url(#SVGID_00000080178903962363158540000009175296397841137556_)"
   id="path64" />
	</g>
	<g
   id="g76">
		<defs
   id="defs69">
			<rect
   id="SVGID_00000170990375298280655410000011641669720212517814_"
   x="-14.17"
   y="-14.17"
   width="269.29"
   height="170.08" />
		</defs>
		<clipPath
   id="SVGID_00000075155272269551171670000002258682400307786654_">
			<use
   xlink:href="#SVGID_00000170990375298280655410000011641669720212517814_"
   style="overflow:visible;"
   id="use71" />
		</clipPath>
		<path
   style="clip-path:url(#SVGID_00000075155272269551171670000002258682400307786654_);fill:#72BF44;"
   d="M131.71,45.31    c-2.45,0-4.43,1.98-4.43,4.43c0,0.6,0.12,1.17,0.34,1.69l-10.67,7.24l-1.1-9.12c1.82-0.56,3.14-2.24,3.14-4.24    c0-2.45-1.98-4.43-4.43-4.43s-4.43,1.98-4.43,4.43c0,2.36,1.85,4.29,4.18,4.42l1.4,11.67l12.75-8.65    c0.81,0.88,1.97,1.43,3.26,1.43c2.45,0,4.43-1.99,4.43-4.43C136.14,47.29,134.16,45.31,131.71,45.31"
   clip-path="url(#SVGID_00000075155272269551171670000002258682400307786654_)"
   id="path74" />
	</g>
	<g
   id="g86">
		<defs
   id="defs79">
			<rect
   id="SVGID_00000153680498148228333400000005675053934777878712_"
   x="-14.17"
   y="-14.17"
   width="269.29"
   height="170.08" />
		</defs>
		<clipPath
   id="SVGID_00000083782321525241234100000011762547220339602335_">
			<use
   xlink:href="#SVGID_00000153680498148228333400000005675053934777878712_"
   style="overflow:visible;"
   id="use81" />
		</clipPath>
		<path
   style="clip-path:url(#SVGID_00000083782321525241234100000011762547220339602335_);fill:#666666"
   d="M131.48,81.53    c-2.79,0-5.06-1.01-6.8-3.02c-1.74-2.04-2.62-4.65-2.62-7.85c0-3.19,0.87-5.81,2.62-7.85c1.75-2.01,4.01-3.02,6.8-3.02    c2.84,0,5.12,1.01,6.84,3.02c1.74,2.04,2.62,4.65,2.62,7.85c0,3.19-0.87,5.81-2.62,7.85C136.61,80.53,134.33,81.53,131.48,81.53     M137.12,77.47c1.4-1.72,2.09-3.98,2.09-6.8s-0.7-5.08-2.09-6.8c-1.4-1.72-3.27-2.58-5.63-2.58c-2.33,0-4.2,0.86-5.59,2.58    c-1.4,1.72-2.09,3.98-2.09,6.8s0.69,5.08,2.09,6.8c1.4,1.72,3.26,2.58,5.59,2.58C133.84,80.04,135.72,79.19,137.12,77.47"
   clip-path="url(#SVGID_00000083782321525241234100000011762547220339602335_)"
   id="path84" />
	</g>
	<g
   id="g96">
		<defs
   id="defs89">
			<rect
   id="SVGID_00000111151744668767207780000007475186454104802217_"
   x="-14.17"
   y="-14.17"
   width="269.29"
   height="170.08" />
		</defs>
		<clipPath
   id="SVGID_00000054962699503602119040000014831707230502921903_">
			<use
   xlink:href="#SVGID_00000111151744668767207780000007475186454104802217_"
   style="overflow:visible;"
   id="use91" />
		</clipPath>
		<path
   style="clip-path:url(#SVGID_00000054962699503602119040000014831707230502921903_);fill:#666666"
   d="M68.75,81.05    c0,0-0.54-3.19-0.54-5.93v-9.64c0-1.74-0.62-3.11-1.87-4.1c-1.25-0.99-3.09-1.49-5.53-1.49c-2.74,0-4.76,0.55-6.08,1.65    c-1.31,1.1-2,2.75-2.05,4.95h1.61c0.08-1.83,0.62-3.14,1.63-3.94c1.01-0.8,2.64-1.21,4.89-1.21c3.86,0,5.8,1.38,5.8,4.14v3.84h-4    c-4.07,0-10.81,0.18-10.81,6.33c0,1.8,0.6,3.23,1.79,4.29c1.19,1.06,2.86,1.59,5.01,1.59c3.94,0,6.74-1.52,8.18-4.6    c0.04,1.49,0.48,4.12,0.48,4.12S68.75,81.05,68.75,81.05z M66.6,72.48c0,2.47-0.72,4.36-2.17,5.68c-1.45,1.31-3.37,1.97-5.76,1.97    c-1.66,0-2.94-0.4-3.84-1.21s-1.35-1.9-1.35-3.3c0-4.02,3.74-4.88,9.03-4.88h4.09V72.48z"
   clip-path="url(#SVGID_00000054962699503602119040000014831707230502921903_)"
   id="path94" />
	</g>
	<g
   id="g106">
		<defs
   id="defs99">
			<rect
   id="SVGID_00000077297859567744721600000000130895800889904309_"
   x="-14.17"
   y="-14.17"
   width="269.29"
   height="170.08" />
		</defs>
		<clipPath
   id="SVGID_00000008831313024805234730000009645722141617254800_">
			<use
   xlink:href="#SVGID_00000077297859567744721600000000130895800889904309_"
   style="overflow:visible;"
   id="use101" />
		</clipPath>
		<path
   style="clip-path:url(#SVGID_00000008831313024805234730000009645722141617254800_);fill:#666666"
   d="M189.15,81.05    c0,0-0.54-3.19-0.54-5.93v-9.64c0-1.74-0.62-3.11-1.87-4.1c-1.25-0.99-3.09-1.49-5.53-1.49c-2.74,0-4.76,0.55-6.08,1.65    c-1.31,1.1-2,2.75-2.05,4.95h1.61c0.08-1.83,0.62-3.14,1.63-3.94c1.01-0.8,2.64-1.21,4.89-1.21c3.86,0,5.8,1.38,5.8,4.14v3.84h-4    c-4.07,0-10.81,0.18-10.81,6.33c0,1.8,0.6,3.23,1.79,4.29c1.19,1.06,2.86,1.59,5.01,1.59c3.95,0,6.74-1.52,8.18-4.6    c0.04,1.49,0.48,4.12,0.48,4.12S189.15,81.05,189.15,81.05z M187.01,72.48c0,2.47-0.72,4.36-2.18,5.68    c-1.45,1.31-3.37,1.97-5.75,1.97c-1.66,0-2.94-0.4-3.84-1.21s-1.35-1.9-1.35-3.3c0-4.02,3.74-4.88,9.03-4.88h4.09V72.48z"
   clip-path="url(#SVGID_00000008831313024805234730000009645722141617254800_)"
   id="path104" />
	</g>
	<g
   id="g116">
		<defs
   id="defs109">
			<rect
   id="SVGID_00000078005107483889642300000014514987834852640421_"
   x="-14.17"
   y="-14.17"
   width="269.29"
   height="170.08" />
		</defs>
		<clipPath
   id="SVGID_00000090287789361234342670000009444094154549282495_">
			<use
   xlink:href="#SVGID_00000078005107483889642300000014514987834852640421_"
   style="overflow:visible;"
   id="use111" />
		</clipPath>
		<path
   style="clip-path:url(#SVGID_00000090287789361234342670000009444094154549282495_);fill:#666666"
   d="M94.67,81.05    l-5.4-9.49c2.67-0.69,4.89-2.25,4.89-5.79c0-1.8-0.6-3.23-1.79-4.29s-2.86-1.59-5.01-1.59c-3.95,0-6.74,1.52-8.18,4.6    c-0.04-1.49-0.48-4.11-0.48-4.11h-1.5c0,0,0.54,3.18,0.54,5.92v9.64v5.11h1.61c0-5.09,0-5.1,0-5.11V72.1h4    c1.23,0,2.71-0.02,4.17-0.21l5.26,9.16H94.67z M79.35,70.7v-1.74c0-2.47,0.73-4.36,2.17-5.67c1.45-1.31,3.37-1.97,5.75-1.97    c1.66,0,2.94,0.4,3.84,1.21c0.9,0.8,1.35,1.9,1.35,3.3c0,4.03-3.74,4.88-9.03,4.88h-4.08V70.7z"
   clip-path="url(#SVGID_00000090287789361234342670000009444094154549282495_)"
   id="path114" />
	</g>
	<g
   id="g126">
		<defs
   id="defs119">
			<rect
   id="SVGID_00000162347801148829573620000010032683929557197446_"
   x="-14.17"
   y="-14.17"
   width="269.29"
   height="170.08" />
		</defs>
		<clipPath
   id="SVGID_00000144308924516846598620000003004294029825333653_">
			<use
   xlink:href="#SVGID_00000162347801148829573620000010032683929557197446_"
   style="overflow:visible;"
   id="use121" />
		</clipPath>
		<path
   style="clip-path:url(#SVGID_00000144308924516846598620000003004294029825333653_);fill:#666666"
   d="M165.89,81.05    l-5.4-9.49c2.66-0.69,4.89-2.25,4.89-5.79c0-1.8-0.6-3.23-1.79-4.29c-1.2-1.06-2.87-1.59-5.01-1.59c-3.95,0-6.74,1.52-8.18,4.6    c-0.04-1.49-0.48-4.11-0.48-4.11h-1.49c0,0,0.54,3.18,0.54,5.92v9.64v5.11h1.61c0-5.09,0-5.1,0-5.11V72.1h4    c1.23,0,2.71-0.02,4.17-0.21l5.26,9.16H165.89z M150.57,70.7v-1.74c0-2.47,0.72-4.36,2.17-5.67c1.45-1.31,3.37-1.97,5.75-1.97    c1.66,0,2.95,0.4,3.84,1.21c0.9,0.8,1.35,1.9,1.35,3.3c0,4.03-3.74,4.88-9.03,4.88h-4.08V70.7z"
   clip-path="url(#SVGID_00000144308924516846598620000003004294029825333653_)"
   id="path124" />
	</g>
	<g
   id="g136">
		<defs
   id="defs129">
			<rect
   id="SVGID_00000011031771310372341200000011625105044243241617_"
   x="-14.17"
   y="-14.17"
   width="269.29"
   height="170.08" />
		</defs>
		<clipPath
   id="SVGID_00000041263043200965134910000008745430012839042734_">
			<use
   xlink:href="#SVGID_00000011031771310372341200000011625105044243241617_"
   style="overflow:visible;"
   id="use131" />
		</clipPath>
		<path
   style="clip-path:url(#SVGID_00000041263043200965134910000008745430012839042734_);fill:#666666"
   d="M115.53,60.29    c0,0-2.2,11.77-7.53,19.04c-5.32-7.27-7.53-19.04-7.53-19.04H98.7c0,0,2.42,12.81,8.59,20.77h1.41    c6.18-7.96,8.59-20.77,8.59-20.77S115.53,60.29,115.53,60.29z"
   clip-path="url(#SVGID_00000041263043200965134910000008745430012839042734_)"
   id="path134" />
	</g>
	<g
   id="g146">
		<defs
   id="defs139">
			<rect
   id="SVGID_00000029747736839247882920000015807071203720784003_"
   x="-14.17"
   y="-14.17"
   width="269.29"
   height="170.08" />
		</defs>
		<clipPath
   id="SVGID_00000131326438786456357230000018135962481285122436_">
			<use
   xlink:href="#SVGID_00000029747736839247882920000015807071203720784003_"
   style="overflow:visible;"
   id="use141" />
		</clipPath>
		<path
   style="clip-path:url(#SVGID_00000131326438786456357230000018135962481285122436_);fill:#72BF44;"
   d="M180.98,109.56H59.94    c-4.51,0-8.17-3.66-8.17-8.17c0-4.51,3.66-8.17,8.17-8.17h121.04c4.51,0,8.17,3.66,8.17,8.17    C189.15,105.9,185.5,109.56,180.98,109.56"
   clip-path="url(#SVGID_00000131326438786456357230000018135962481285122436_)"
   id="path144" />
	</g>
</g>
<g
   class="st15"
   id="g152">
	<path
   class="st16"
   d="M58.13,104.13v-5.43h1.86c0.61,0,1.08,0.12,1.4,0.37c0.32,0.25,0.48,0.61,0.48,1.1c0,0.25-0.07,0.47-0.2,0.67   c-0.13,0.2-0.33,0.35-0.59,0.46c0.29,0.08,0.52,0.23,0.68,0.45c0.16,0.22,0.24,0.48,0.24,0.79c0,0.51-0.16,0.9-0.49,1.17   s-0.79,0.41-1.4,0.41H58.13z M59.07,100.99H60c0.29,0,0.52-0.07,0.69-0.2c0.17-0.13,0.25-0.32,0.25-0.56   c0-0.27-0.08-0.46-0.23-0.58s-0.39-0.18-0.71-0.18h-0.92V100.99z M59.07,101.68v1.7h1.05c0.3,0,0.53-0.07,0.69-0.22   s0.25-0.35,0.25-0.61c0-0.56-0.29-0.85-0.86-0.86H59.07z"
   id="path150" />
</g>
<g
   class="st15"
   id="g156">
	<path
   class="st16"
   d="M65.32,102.05h-1.05v2.09h-0.94v-5.43h1.91c0.63,0,1.11,0.14,1.45,0.42s0.51,0.69,0.51,1.22   c0,0.36-0.09,0.67-0.26,0.91c-0.18,0.25-0.42,0.43-0.73,0.57l1.22,2.26v0.05h-1.01L65.32,102.05z M64.27,101.29h0.97   c0.32,0,0.57-0.08,0.75-0.24c0.18-0.16,0.27-0.38,0.27-0.66c0-0.29-0.08-0.51-0.25-0.67c-0.17-0.16-0.41-0.24-0.74-0.25h-1V101.29z   "
   id="path154" />
</g>
<g
   class="st15"
   id="g160">
	<path
   class="st16"
   d="M71.5,102.87h-2.1l-0.44,1.26h-0.98l2.05-5.43h0.85l2.05,5.43h-0.98L71.5,102.87z M69.66,102.11h1.57   l-0.79-2.25L69.66,102.11z"
   id="path158" />
</g>
<g
   class="st15"
   id="g164">
	<path
   class="st16"
   d="M74.92,104.13h-0.94v-5.43h0.94V104.13z"
   id="path162" />
</g>
<g
   class="st15"
   id="g168">
	<path
   class="st16"
   d="M80.75,104.13h-0.94l-2.42-3.85v3.85h-0.94v-5.43h0.94l2.43,3.86v-3.86h0.94V104.13z"
   id="path166" />
</g>
<g
   class="st15"
   id="g172">
	<path
   class="st16"
   d="M88.66,102.37c-0.05,0.58-0.27,1.03-0.64,1.35s-0.87,0.49-1.49,0.49c-0.43,0-0.81-0.1-1.14-0.31   c-0.33-0.21-0.58-0.5-0.76-0.87c-0.18-0.38-0.27-0.82-0.28-1.32v-0.51c0-0.51,0.09-0.96,0.27-1.35c0.18-0.39,0.44-0.69,0.78-0.9   c0.34-0.21,0.73-0.32,1.18-0.32c0.6,0,1.08,0.16,1.45,0.49s0.58,0.78,0.64,1.38h-0.94c-0.04-0.39-0.16-0.67-0.34-0.84   s-0.45-0.26-0.8-0.26c-0.41,0-0.72,0.15-0.94,0.45c-0.22,0.3-0.33,0.74-0.34,1.32v0.48c0,0.59,0.1,1.03,0.31,1.34   c0.21,0.31,0.52,0.46,0.92,0.46c0.37,0,0.65-0.08,0.83-0.25c0.19-0.17,0.3-0.44,0.35-0.83H88.66z"
   id="path170" />
</g>
<g
   class="st15"
   id="g180">
	<path
   class="st16"
   d="M94.22,101.56c0,0.53-0.09,1-0.28,1.4c-0.18,0.4-0.45,0.71-0.79,0.92c-0.34,0.21-0.73,0.32-1.18,0.32   c-0.44,0-0.83-0.11-1.18-0.32c-0.34-0.21-0.61-0.52-0.8-0.92s-0.28-0.86-0.29-1.38v-0.31c0-0.53,0.09-1,0.28-1.4   c0.19-0.4,0.45-0.71,0.79-0.93c0.34-0.21,0.73-0.32,1.18-0.32c0.44,0,0.83,0.11,1.18,0.32c0.34,0.21,0.61,0.52,0.79,0.92   c0.19,0.4,0.28,0.86,0.28,1.39V101.56z M93.28,101.28c0-0.6-0.11-1.06-0.34-1.38c-0.23-0.32-0.55-0.48-0.97-0.48   c-0.41,0-0.73,0.16-0.96,0.48c-0.23,0.32-0.35,0.77-0.35,1.35v0.31c0,0.6,0.12,1.06,0.35,1.38c0.23,0.33,0.55,0.49,0.97,0.49   c0.42,0,0.74-0.16,0.96-0.48c0.22-0.32,0.34-0.78,0.34-1.39V101.28z"
   id="path174" />
	<path
   class="st16"
   d="M96.38,98.71l1.57,4.16l1.56-4.16h1.22v5.43h-0.94v-1.79l0.09-2.39l-1.6,4.18H97.6l-1.6-4.18l0.09,2.39v1.79   h-0.94v-5.43H96.38z"
   id="path176" />
	<path
   class="st16"
   d="M102.78,102.12v2.01h-0.94v-5.43h2.08c0.61,0,1.09,0.16,1.44,0.47c0.36,0.32,0.53,0.73,0.53,1.25   c0,0.53-0.17,0.95-0.52,1.24s-0.84,0.44-1.47,0.44H102.78z M102.78,101.36h1.13c0.34,0,0.59-0.08,0.77-0.24   c0.18-0.16,0.26-0.39,0.26-0.68c0-0.29-0.09-0.53-0.27-0.7c-0.18-0.18-0.42-0.27-0.74-0.27h-1.16V101.36z"
   id="path178" />
</g>
<g
   class="st15"
   id="g184">
	<path
   class="st16"
   d="M111.81,98.71v3.63c0,0.58-0.18,1.03-0.55,1.37c-0.37,0.34-0.86,0.5-1.47,0.5c-0.62,0-1.11-0.17-1.48-0.5   s-0.55-0.79-0.55-1.38v-3.62h0.94v3.63c0,0.36,0.09,0.64,0.28,0.83c0.18,0.19,0.45,0.29,0.81,0.29c0.73,0,1.09-0.38,1.09-1.15v-3.6   H111.81z"
   id="path182" />
</g>
<g
   class="st15"
   id="g190">
	<path
   class="st16"
   d="M117.11,99.47h-1.69v4.67h-0.94v-4.67h-1.68v-0.76h4.3V99.47z"
   id="path186" />
	<path
   class="st16"
   d="M120.41,102.87h-2.1l-0.44,1.26h-0.98l2.05-5.43h0.85l2.05,5.43h-0.98L120.41,102.87z M118.58,102.11h1.57   l-0.79-2.25L118.58,102.11z"
   id="path188" />
</g>
<g
   class="st15"
   id="g194">
	<path
   class="st16"
   d="M126.7,99.47h-1.69v4.67h-0.94v-4.67h-1.68v-0.76h4.3V99.47z"
   id="path192" />
</g>
<g
   class="st15"
   id="g200">
	<path
   class="st16"
   d="M128.79,104.13h-0.94v-5.43h0.94V104.13z"
   id="path196" />
	<path
   class="st16"
   d="M134.28,101.56c0,0.53-0.09,1-0.28,1.4c-0.18,0.4-0.45,0.71-0.79,0.92c-0.34,0.21-0.73,0.32-1.18,0.32   c-0.44,0-0.83-0.11-1.18-0.32s-0.61-0.52-0.8-0.92s-0.28-0.86-0.29-1.38v-0.31c0-0.53,0.09-1,0.28-1.4   c0.19-0.4,0.45-0.71,0.79-0.93s0.73-0.32,1.18-0.32s0.83,0.11,1.18,0.32c0.34,0.21,0.61,0.52,0.79,0.92   c0.19,0.4,0.28,0.86,0.28,1.39V101.56z M133.33,101.28c0-0.6-0.11-1.06-0.34-1.38s-0.55-0.48-0.97-0.48   c-0.41,0-0.73,0.16-0.96,0.48c-0.23,0.32-0.35,0.77-0.35,1.35v0.31c0,0.6,0.12,1.06,0.35,1.38c0.23,0.33,0.55,0.49,0.97,0.49   c0.42,0,0.74-0.16,0.96-0.48c0.22-0.32,0.34-0.78,0.34-1.39V101.28z"
   id="path198" />
</g>
<g
   class="st15"
   id="g204">
	<path
   class="st16"
   d="M140.26,104.13h-0.94l-2.42-3.85v3.85h-0.94v-5.43h0.94l2.43,3.86v-3.86h0.93V104.13z"
   id="path202" />
</g>
<g
   class="st15"
   id="g212">
	<path
   class="st16"
   d="M144.86,102.87h-2.1l-0.44,1.26h-0.98l2.05-5.43h0.85l2.05,5.43h-0.98L144.86,102.87z M143.02,102.11h1.57   l-0.79-2.25L143.02,102.11z"
   id="path206" />
	<path
   class="st16"
   d="M147.84,103.38h2.46v0.75h-3.41v-5.43h0.94V103.38z"
   id="path208" />
	<path
   class="st16"
   d="M155.76,102.74c0-0.24-0.08-0.42-0.25-0.55c-0.17-0.13-0.47-0.26-0.91-0.39c-0.44-0.13-0.78-0.28-1.04-0.44   c-0.49-0.31-0.74-0.72-0.74-1.21c0-0.44,0.18-0.8,0.53-1.08s0.82-0.42,1.39-0.42c0.38,0,0.71,0.07,1.01,0.21   c0.29,0.14,0.53,0.34,0.7,0.59c0.17,0.26,0.25,0.54,0.25,0.86h-0.94c0-0.28-0.09-0.5-0.27-0.67s-0.43-0.24-0.76-0.24   c-0.31,0-0.55,0.07-0.72,0.2c-0.17,0.13-0.26,0.32-0.26,0.55c0,0.2,0.09,0.36,0.28,0.5c0.18,0.13,0.49,0.26,0.91,0.39   c0.42,0.13,0.76,0.27,1.02,0.43s0.44,0.34,0.56,0.55c0.12,0.21,0.18,0.45,0.18,0.73c0,0.45-0.17,0.81-0.52,1.08   c-0.35,0.27-0.82,0.4-1.41,0.4c-0.39,0-0.75-0.07-1.08-0.22c-0.33-0.15-0.58-0.35-0.77-0.6s-0.27-0.55-0.27-0.89h0.94   c0,0.31,0.1,0.55,0.31,0.72c0.2,0.17,0.5,0.25,0.88,0.25c0.33,0,0.57-0.07,0.74-0.2C155.68,103.13,155.76,102.95,155.76,102.74z"
   id="path210" />
</g>
<g
   class="st15"
   id="g216">
	<path
   class="st16"
   d="M163.17,102.37c-0.05,0.58-0.27,1.03-0.64,1.35c-0.37,0.32-0.87,0.49-1.49,0.49c-0.43,0-0.81-0.1-1.14-0.31   c-0.33-0.21-0.58-0.5-0.76-0.87c-0.18-0.38-0.27-0.82-0.28-1.32v-0.51c0-0.51,0.09-0.96,0.27-1.35s0.44-0.69,0.78-0.9   c0.34-0.21,0.73-0.32,1.18-0.32c0.6,0,1.08,0.16,1.45,0.49s0.58,0.78,0.64,1.38h-0.94c-0.04-0.39-0.16-0.67-0.34-0.84   s-0.45-0.26-0.8-0.26c-0.41,0-0.72,0.15-0.94,0.45s-0.33,0.74-0.34,1.32v0.48c0,0.59,0.1,1.03,0.31,1.34   c0.21,0.31,0.52,0.46,0.92,0.46c0.37,0,0.65-0.08,0.83-0.25c0.19-0.17,0.3-0.44,0.35-0.83H163.17z"
   id="path214" />
</g>
<g
   class="st15"
   id="g224">
	<path
   class="st16"
   d="M168.71,104.13h-0.94v-2.41h-2.43v2.41h-0.94v-5.43h0.94v2.26h2.43v-2.26h0.94V104.13z"
   id="path218" />
	<path
   class="st16"
   d="M174.15,101.56c0,0.53-0.09,1-0.28,1.4s-0.45,0.71-0.79,0.92s-0.73,0.32-1.18,0.32   c-0.44,0-0.83-0.11-1.18-0.32c-0.34-0.21-0.61-0.52-0.8-0.92s-0.28-0.86-0.29-1.38v-0.31c0-0.53,0.09-1,0.28-1.4   c0.19-0.4,0.45-0.71,0.79-0.93c0.34-0.21,0.73-0.32,1.18-0.32c0.44,0,0.83,0.11,1.17,0.32c0.34,0.21,0.61,0.52,0.79,0.92   s0.28,0.86,0.28,1.39V101.56z M173.21,101.28c0-0.6-0.11-1.06-0.34-1.38c-0.23-0.32-0.55-0.48-0.97-0.48   c-0.41,0-0.73,0.16-0.96,0.48s-0.35,0.77-0.35,1.35v0.31c0,0.6,0.12,1.06,0.35,1.38s0.55,0.49,0.97,0.49   c0.42,0,0.74-0.16,0.96-0.48c0.22-0.32,0.34-0.78,0.34-1.39V101.28z"
   id="path220" />
	<path
   class="st16"
   d="M179.42,101.56c0,0.53-0.09,1-0.28,1.4c-0.18,0.4-0.45,0.71-0.79,0.92c-0.34,0.21-0.73,0.32-1.18,0.32   c-0.44,0-0.83-0.11-1.18-0.32s-0.61-0.52-0.8-0.92s-0.28-0.86-0.29-1.38v-0.31c0-0.53,0.09-1,0.28-1.4   c0.19-0.4,0.45-0.71,0.79-0.93s0.73-0.32,1.18-0.32s0.83,0.11,1.18,0.32c0.34,0.21,0.61,0.52,0.79,0.92   c0.19,0.4,0.28,0.86,0.28,1.39V101.56z M178.48,101.28c0-0.6-0.11-1.06-0.34-1.38s-0.55-0.48-0.97-0.48   c-0.41,0-0.73,0.16-0.96,0.48c-0.23,0.32-0.35,0.77-0.35,1.35v0.31c0,0.6,0.12,1.06,0.35,1.38c0.23,0.33,0.55,0.49,0.97,0.49   c0.42,0,0.74-0.16,0.96-0.48c0.22-0.32,0.34-0.78,0.34-1.39V101.28z"
   id="path222" />
</g>
<g
   class="st15"
   id="g228">
	<path
   class="st16"
   d="M182.42,103.38h2.46v0.75h-3.41v-5.43h0.94V103.38z"
   id="path226" />
</g>
</svg>
