<?xml version="1.0" encoding="UTF-8" standalone="no"?>
<!-- Generator: Adobe Illustrator 26.0.2, SVG Export Plug-In . SVG Version: 6.00 Build 0)  -->

<svg
   version="1.1"
   id="Layer_1"
   x="0px"
   y="0px"
   viewBox="0 0 240.94 141.73"
   style="enable-background:new 0 0 240.94 141.73;"
   xml:space="preserve"
   sodipodi:docname="construindo.svg"
   inkscape:version="1.1.2 (0a00cf5339, 2022-02-04)"
   xmlns:inkscape="http://www.inkscape.org/namespaces/inkscape"
   xmlns:sodipodi="http://sodipodi.sourceforge.net/DTD/sodipodi-0.dtd"
   xmlns:xlink="http://www.w3.org/1999/xlink"
   xmlns="http://www.w3.org/2000/svg"
   xmlns:svg="http://www.w3.org/2000/svg"><defs
   id="defs233">
	
	
	
	
	
</defs><sodipodi:namedview
   id="namedview231"
   pagecolor="#ffffff"
   bordercolor="#666666"
   borderopacity="1.0"
   inkscape:pageshadow="2"
   inkscape:pageopacity="0.0"
   inkscape:pagecheckerboard="0"
   showgrid="false"
   inkscape:zoom="3.9014854"
   inkscape:cx="154.42836"
   inkscape:cy="88.556015"
   inkscape:window-width="1920"
   inkscape:window-height="1016"
   inkscape:window-x="0"
   inkscape:window-y="0"
   inkscape:window-maximized="1"
   inkscape:current-layer="Layer_1" />
<style
   type="text/css"
   id="style2">
	.st0{fill:#6D6E71;}
	.st1{clip-path:url(#SVGID_00000043445432029772839930000003467234471238089663_);fill:#A7A9AC;}
	.st2{clip-path:url(#SVGID_00000143616002733007049710000015154254476706579363_);fill:#797B7D;}
	.st3{clip-path:url(#SVGID_00000025401955972799176040000012346378200849621653_);fill:#A7A9AC;}
	.st4{clip-path:url(#SVGID_00000081615417363522025390000004052158533564046250_);fill:#797B7D;}
	.st5{clip-path:url(#SVGID_00000024709802704658283770000003921715118265927574_);fill:#A7A9AC;}
	.st6{clip-path:url(#SVGID_00000071548404011043382320000007634784802757820601_);fill:#72BF44;}
	.st7{clip-path:url(#SVGID_00000180364890370672962040000002178039957365545351_);fill:#72BF44;}
	.st8{clip-path:url(#SVGID_00000065792570029323947330000004724528160282924421_);fill:#FFFFFF;}
	.st9{clip-path:url(#SVGID_00000149375033549509819170000011030316524749760413_);fill:#FFFFFF;}
	.st10{clip-path:url(#SVGID_00000124883988602511729770000017773019679751014285_);fill:#FFFFFF;}
	.st11{clip-path:url(#SVGID_00000123438034981260366060000014441784282890232717_);fill:#FFFFFF;}
	.st12{clip-path:url(#SVGID_00000111175491781624040930000006377024030287129002_);fill:#FFFFFF;}
	.st13{clip-path:url(#SVGID_00000017497149876832702460000000467356644232254629_);fill:#FFFFFF;}
	.st14{clip-path:url(#SVGID_00000153674693947424949910000018342528709081026194_);fill:#72BF44;}
	.st15{enable-background:new    ;}
	.st16{fill:#FFFFFF;}
</style>
<rect
   x="-14.17"
   y="-14.17"
   class="st0"
   width="269.29"
   height="170.08"
   id="rect4" />
<g
   id="g14"
   transform="rotate(-64.266283,211.82916,51.357492)">
		<defs
   id="defs7">
			<rect
   id="SVGID_1_"
   x="-14.17"
   y="-14.17"
   width="269.29001"
   height="170.08" />
		</defs>
		<clipPath
   id="SVGID_00000037687385423331182490000006008368761653566893_">
			<use
   xlink:href="#SVGID_1_"
   style="overflow:visible"
   id="use9"
   x="0"
   y="0"
   width="100%"
   height="100%" />
		</clipPath>
		<path
   style="fill:#a7a9ac"
   d="m 267.43,0.44 c 0.01,-1.46 -1.17,-2.66 -2.63,-2.67 -1.22,-0.01 -2.24,0.81 -2.56,1.93 l -12.1,-0.09 -0.06,-0.17 -0.09,-0.24 -0.12,-0.23 -0.14,-0.21 -0.16,-0.2 -0.17,-0.18 -0.2,-0.18 -0.21,-0.15 -0.22,-0.12 -0.23,-0.11 -0.25,-0.08 -0.18,-0.05 -0.94,-13.67 0.14,-0.06 0.17,-0.06 0.24,-0.15 0.2,-0.12 0.14,-0.13 0.23,-0.22 0.14,-0.2 0.15,-0.21 c 0.05,-0.09 0.09,-0.18 0.13,-0.27 l 0.09,-0.19 0.05,-0.22 c 0.02,-0.1 0.05,-0.19 0.07,-0.29 l 0.01,-0.17 c 0.01,-0.12 0.02,-0.24 0.01,-0.36 v -0.02 l -0.04,-0.25 -0.04,-0.25 -0.01,-0.01 c -0.03,-0.12 -0.08,-0.23 -0.12,-0.33 l -0.06,-0.16 -0.15,-0.25 -0.12,-0.19 -0.14,-0.15 -0.21,-0.22 -0.2,-0.15 -0.21,-0.15 c -0.09,-0.05 -0.19,-0.09 -0.28,-0.13 l -0.18,-0.08 -0.23,-0.05 c -0.09,-0.02 -0.18,-0.05 -0.28,-0.07 l -0.18,-0.01 c -0.12,-0.01 -0.23,-0.02 -0.35,-0.01 h -0.02 l -0.25,0.04 -0.24,0.04 -0.02,0.01 c -0.12,0.03 -0.23,0.08 -0.34,0.13 l -0.16,0.06 c -0.09,0.05 -0.17,0.1 -0.25,0.16 l -0.19,0.12 -0.16,0.15 -0.21,0.2 -0.16,0.2 -0.14,0.2 c -0.05,0.09 -0.09,0.18 -0.13,0.28 l -0.08,0.18 -0.05,0.22 c -0.02,0.09 -0.05,0.19 -0.07,0.28 l -0.01,0.17 -0.01,0.16 -20.98,5.52 -0.12,-0.19 -0.01,-0.02 20.15,-24.89 c 1.07,0.46 2.35,0.19 3.12,-0.76 0.92,-1.14 0.75,-2.81 -0.39,-3.73 -1.14,-0.92 -2.81,-0.75 -3.73,0.39 -0.77,0.95 -0.77,2.26 -0.09,3.21 l -20.16,24.89 -0.09,-0.04 h -0.01 l -0.06,-0.02 -0.05,-0.02 c -0.12,-0.04 -0.25,-0.07 -0.37,-0.1 h -0.02 l -0.05,-0.01 -0.07,-0.01 c -0.13,-0.02 -0.26,-0.03 -0.39,-0.02 h -0.01 -0.03 -0.01 -0.07 c -0.13,0.01 -0.26,0.03 -0.4,0.06 l -0.06,0.01 h -0.01 -0.03 l -0.02,0.01 c -0.13,0.03 -0.25,0.08 -0.37,0.13 l -0.06,0.03 -0.02,0.01 -0.05,0.02 c -0.11,0.06 -0.22,0.12 -0.32,0.19 l -0.04,0.03 -0.03,0.02 -0.05,0.04 c -0.1,0.07 -0.19,0.16 -0.27,0.24 l -0.03,0.04 -0.02,0.03 -0.05,0.05 -0.05,0.05 -0.17,0.24 -0.02,0.03 -0.03,0.05 -0.03,0.05 c -0.06,0.11 -0.12,0.22 -0.16,0.34 v 0.01 l -0.02,0.06 -0.02,0.05 -0.06,0.21 -16.34,0.42 c -0.03,-0.11 -0.07,-0.21 -0.12,-0.31 l -0.02,-0.03 c -0.07,-0.14 -0.14,-0.28 -0.24,-0.41 l -0.02,-0.03 c -0.09,-0.13 -0.2,-0.25 -0.31,-0.36 l -0.02,-0.01 c -0.12,-0.11 -0.25,-0.21 -0.38,-0.3 l -0.01,-0.01 c -0.14,-0.09 -0.28,-0.16 -0.44,-0.22 l -0.02,-0.01 c -0.15,-0.06 -0.31,-0.1 -0.47,-0.13 h -0.02 c -0.36,-0.06 -0.72,-0.05 -1.05,0.03 h -0.02 c -0.16,0.04 -0.32,0.09 -0.47,0.16 l -0.04,0.02 c -0.14,0.07 -0.28,0.15 -0.41,0.24 l -0.03,0.02 c -0.13,0.09 -0.25,0.2 -0.36,0.31 l -0.03,0.02 c -0.11,0.12 -0.21,0.25 -0.3,0.38 l -0.01,0.01 c -0.09,0.14 -0.16,0.29 -0.23,0.44 l -0.01,0.02 c -0.06,0.15 -0.11,0.31 -0.14,0.48 v 0.02 c -0.06,0.36 -0.05,0.72 0.03,1.05 l 0.01,0.01 c 0.04,0.16 0.09,0.32 0.16,0.47 l 0.02,0.03 c 0.07,0.14 0.15,0.28 0.24,0.41 l 0.02,0.03 c 0.09,0.13 0.2,0.25 0.31,0.36 l 0.02,0.02 c 0.12,0.11 0.24,0.21 0.38,0.3 l 0.02,0.01 c 0.09,0.05 0.18,0.1 0.27,0.15 l -2.97,16.55 -0.08,0.01 -0.16,0.03 -0.1,0.02 c -0.17,0.04 -0.34,0.1 -0.5,0.17 v 0 l -0.04,0.02 -0.19,0.09 -0.12,0.07 -0.1,0.06 -0.13,0.1 -0.07,0.06 -0.12,0.11 -0.07,0.07 -0.09,0.11 -0.08,0.09 -0.07,0.1 -0.08,0.12 -0.05,0.09 -0.08,0.14 -0.04,0.08 -0.07,0.15 -0.04,0.11 -0.04,0.14 -0.05,0.2 -0.01,0.05 v 0 c -0.03,0.17 -0.04,0.35 -0.04,0.53 l 0.01,0.1 0.01,0.16 0.02,0.15 0.02,0.11 0.07,0.24 v 0.01 l 0.1,0.25 v 0 l 0.03,0.05 0.09,0.18 0.08,0.12 0.06,0.09 0.1,0.13 0.06,0.07 0.11,0.12 0.07,0.07 0.11,0.1 0.09,0.08 0.1,0.07 0.12,0.08 0.09,0.05 0.14,0.08 0.08,0.04 0.15,0.07 0.1,0.04 0.14,0.05 0.19,0.04 0.06,0.01 v 0 l 0.26,0.03 h 0.02 l 0.24,0.01 0.11,-0.01 0.15,-0.01 0.16,-0.03 0.1,-0.02 c 0.17,-0.04 0.34,-0.09 0.5,-0.17 v 0 l 0.04,-0.02 0.18,-0.09 0.12,-0.08 0.1,-0.06 0.13,-0.1 0.07,-0.06 0.12,-0.11 0.07,-0.07 0.09,-0.11 0.08,-0.09 0.07,-0.1 0.08,-0.12 0.05,-0.08 0.08,-0.14 0.04,-0.08 0.07,-0.15 0.04,-0.11 0.05,-0.14 0.04,-0.19 0.01,-0.06 v 0 l 0.03,-0.26 v -0.01 l 0.01,-0.25 -0.01,-0.1 -0.01,-0.15 -0.01,-0.08 14.99,-6.68 c 0.74,0.9 2.01,1.24 3.12,0.74 1.34,-0.6 1.94,-2.16 1.34,-3.5 -0.6,-1.34 -2.16,-1.94 -3.5,-1.34 -1.11,0.5 -1.71,1.67 -1.54,2.82 l -14.99,6.65 -0.04,-0.04 -0.11,-0.12 -0.07,-0.07 -0.11,-0.09 -0.09,-0.08 -0.1,-0.07 -0.12,-0.08 -0.09,-0.05 -0.14,-0.08 -0.05,-0.02 2.98,-16.55 c 0.12,-0.01 0.24,-0.03 0.35,-0.05 h 0.02 c 0.16,-0.04 0.32,-0.09 0.47,-0.16 l 0.04,-0.02 c 0.14,-0.07 0.28,-0.15 0.41,-0.24 l 0.03,-0.02 c 0.13,-0.09 0.25,-0.2 0.36,-0.31 l 0.01,-0.02 c 0.11,-0.12 0.21,-0.25 0.3,-0.38 l 0.01,-0.01 c 0.09,-0.14 0.16,-0.29 0.23,-0.44 l 0.01,-0.02 c 0.04,-0.1 0.07,-0.21 0.1,-0.31 l 16.34,-0.42 c 0.03,0.1 0.07,0.2 0.11,0.3 l 0.02,0.05 0.01,0.02 0.02,0.05 c 0.06,0.11 0.12,0.22 0.19,0.32 l 0.03,0.04 0.02,0.03 0.04,0.05 c 0.07,0.1 0.16,0.19 0.24,0.27 l 0.04,0.03 0.03,0.02 0.05,0.05 0.05,0.05 0.24,0.17 0.03,0.01 0.05,0.03 0.05,0.03 c 0.11,0.06 0.22,0.12 0.34,0.16 l 0.01,0.01 0.06,0.02 0.05,0.02 c 0.12,0.04 0.25,0.07 0.37,0.1 h 0.02 l 0.05,0.01 0.07,0.01 c 0.14,0.01 0.27,0.02 0.4,0.01 h 0.01 0.03 0.01 0.07 c 0.13,-0.01 0.27,-0.03 0.4,-0.06 l 0.06,-0.02 h 0.01 l 0.03,-0.01 0.02,-0.01 c 0.13,-0.03 0.25,-0.08 0.37,-0.13 l 0.05,-0.03 0.02,-0.01 0.05,-0.02 c 0.11,-0.06 0.22,-0.12 0.32,-0.19 l 0.04,-0.03 0.03,-0.02 0.05,-0.03 c 0.09,-0.08 0.19,-0.16 0.27,-0.25 l 0.03,-0.04 0.02,-0.02 0.05,-0.05 0.05,-0.06 0.17,-0.24 0.02,-0.03 0.03,-0.04 0.03,-0.05 c 0.06,-0.11 0.12,-0.22 0.16,-0.33 l 0.01,-0.02 0.02,-0.06 0.02,-0.05 c 0.04,-0.12 0.08,-0.25 0.1,-0.37 v -0.02 l 0.01,-0.04 0.01,-0.07 c 0.01,-0.1 0.02,-0.21 0.02,-0.31 l 20.98,-5.52 0.07,0.11 0.12,0.19 0.14,0.15 0.21,0.22 0.2,0.15 0.21,0.15 c 0.09,0.05 0.18,0.09 0.27,0.13 l 0.19,0.09 0.22,0.05 0.12,0.03 0.95,13.66 -0.23,0.09 -0.23,0.12 -0.21,0.14 -0.2,0.16 -0.19,0.18 -0.16,0.19 -0.15,0.21 -0.12,0.22 -0.11,0.24 -0.08,0.25 -0.06,0.25 c -0.02,0.09 -0.02,0.18 -0.03,0.27 l -0.02,0.17 0.01,0.1 v 0.1 l 0.03,0.16 c 0.01,0.09 0.02,0.18 0.05,0.27 l 0.07,0.24 0.1,0.24 0.12,0.23 0.13,0.21 0.16,0.2 0.17,0.18 0.19,0.16 0.21,0.15 0.22,0.12 0.23,0.11 0.25,0.08 0.25,0.06 c 0.09,0.02 0.18,0.02 0.27,0.03 l 0.17,0.02 0.1,-0.01 h 0.1 l 0.16,-0.03 c 0.09,-0.01 0.18,-0.02 0.27,-0.04 l 0.24,-0.07 0.24,-0.09 0.23,-0.12 0.21,-0.14 0.2,-0.16 0.18,-0.17 0.16,-0.19 0.15,-0.21 0.12,-0.22 0.11,-0.24 0.08,-0.23 12.11,0.09 c 0.3,1.12 1.31,1.96 2.53,1.97 1.5,-0.01 2.69,-1.19 2.7,-2.65 m -16.64,22.89 c 0.64,-1.31 0.1,-2.9 -1.22,-3.55 -1.1,-0.53 -2.38,-0.24 -3.15,0.63 l -16.69,-8.16 0.02,-0.14 0.01,-0.12 0.01,-0.11 V 11.85 11.72 11.6 l -0.01,-0.14 -0.01,-0.11 v -0.02 -0.01 l -0.02,-0.12 -0.03,-0.11 -0.04,-0.13 -0.04,-0.11 v -0.01 l -0.01,-0.03 -0.03,-0.08 -0.05,-0.12 -0.06,-0.11 -0.07,-0.12 -0.01,-0.02 -0.01,-0.02 -0.04,-0.05 -0.08,-0.12 -0.07,-0.09 -0.09,-0.11 -0.03,-0.03 v 0 l -0.05,-0.05 -0.1,-0.09 -0.1,-0.09 -0.1,-0.08 -0.11,-0.08 3.82,-11.6 c 1.16,0.06 2.27,-0.66 2.65,-1.82 0.46,-1.39 -0.3,-2.89 -1.69,-3.35 -1.39,-0.46 -2.89,0.3 -3.35,1.69 -0.38,1.16 0.08,2.39 1.05,3.03 l -3.82,11.6 h -0.01 -0.03 -0.13 -0.12 l -0.14,0.01 -0.11,0.01 h -0.02 -0.01 l -0.12,0.02 -0.11,0.03 -0.13,0.04 -0.11,0.04 h -0.01 l -0.03,0.01 -0.08,0.03 -0.12,0.05 -0.11,0.06 -0.12,0.07 -0.02,0.01 -0.02,0.01 -0.05,0.04 -0.12,0.08 -0.09,0.07 -0.11,0.09 -0.03,0.03 v 0 l -0.05,0.05 -0.09,0.1 -0.09,0.1 -0.08,0.1 -0.08,0.12 -0.06,0.1 -0.07,0.13 -0.04,0.07 -0.02,0.04 -0.01,0.03 -0.04,0.1 -0.05,0.13 -0.01,0.04 -0.02,0.07 -0.04,0.12 -0.01,0.03 -0.02,0.11 -0.03,0.15 -0.01,0.12 -0.01,0.11 v 0.03 0.13 0.12 l 0.01,0.14 0.01,0.11 v 0.02 0.01 l 0.02,0.12 0.03,0.11 0.04,0.13 0.04,0.12 v 0.01 l 0.01,0.03 0.03,0.08 0.05,0.12 0.05,0.11 0.07,0.12 0.01,0.02 0.01,0.02 0.04,0.06 0.08,0.11 0.07,0.09 0.09,0.11 0.08,0.09 0.1,0.09 0.1,0.09 0.1,0.07 0.12,0.09 0.1,0.06 0.14,0.08 0.07,0.04 0.04,0.01 0.03,0.01 0.1,0.04 0.13,0.05 0.04,0.01 0.07,0.02 0.12,0.03 0.03,0.01 0.11,0.02 0.14,0.02 0.06,0.01 3.47,21.42 -0.12,0.06 -0.19,0.1 -0.17,0.13 -0.23,0.18 -0.18,0.2 -0.16,0.18 c -0.06,0.08 -0.11,0.18 -0.16,0.27 l -0.1,0.17 -0.08,0.21 -0.04,0.12 -13.7,-0.38 c -0.03,-0.1 -0.06,-0.2 -0.09,-0.3 l -0.02,-0.05 c -0.06,-0.14 -0.13,-0.28 -0.21,-0.41 l -0.03,-0.04 c -0.08,-0.13 -0.18,-0.25 -0.28,-0.37 l -0.03,-0.03 c -0.11,-0.11 -0.22,-0.21 -0.35,-0.31 l -0.03,-0.02 c -0.13,-0.09 -0.26,-0.17 -0.4,-0.23 l -0.04,-0.02 c -0.14,-0.06 -0.29,-0.11 -0.44,-0.15 l -0.06,-0.01 c -0.1,-0.02 -0.21,-0.04 -0.31,-0.05 l -0.17,-0.01 h -0.03 -0.02 c -0.17,0 -0.33,0.01 -0.49,0.03 l -0.04,0.01 c -0.16,0.03 -0.31,0.07 -0.46,0.13 l -0.05,0.02 c -0.14,0.06 -0.28,0.13 -0.41,0.21 l -0.04,0.03 c -0.13,0.08 -0.25,0.18 -0.36,0.28 l -0.03,0.03 c -0.11,0.11 -0.21,0.23 -0.31,0.35 l -0.03,0.03 c -0.09,0.13 -0.17,0.26 -0.23,0.4 l -0.02,0.04 c -0.06,0.14 -0.11,0.29 -0.15,0.44 l -0.01,0.06 c -0.02,0.1 -0.04,0.2 -0.05,0.31 l -0.01,0.17 v 0.03 0.02 c 0,0.16 0.01,0.33 0.04,0.49 l 0.01,0.05 c 0.03,0.16 0.07,0.31 0.13,0.46 l 0.02,0.05 c 0.06,0.14 0.13,0.28 0.21,0.41 l 0.03,0.04 c 0.08,0.13 0.18,0.25 0.28,0.36 l 0.03,0.03 c 0.11,0.11 0.23,0.21 0.35,0.3 l 0.03,0.03 c 0.13,0.09 0.26,0.17 0.4,0.23 l 0.04,0.02 0.12,0.05 -1.26,12.02 c -1.15,0.19 -2.07,1.13 -2.2,2.34 -0.15,1.46 0.91,2.76 2.36,2.91 1.46,0.15 2.76,-0.91 2.91,-2.36 0.13,-1.21 -0.59,-2.32 -1.67,-2.74 l 1.25,-12.03 0.04,-0.01 c 0.16,-0.03 0.31,-0.07 0.45,-0.13 l 0.05,-0.02 c 0.14,-0.06 0.28,-0.13 0.41,-0.21 l 0.04,-0.03 c 0.13,-0.08 0.25,-0.18 0.36,-0.28 l 0.03,-0.03 c 0.11,-0.11 0.21,-0.22 0.31,-0.35 l 0.03,-0.03 c 0.09,-0.13 0.17,-0.26 0.23,-0.4 l 0.02,-0.04 c 0.05,-0.1 0.08,-0.2 0.12,-0.31 l 13.7,0.38 0.06,0.17 0.05,0.17 c 0.04,0.09 0.08,0.17 0.13,0.26 l 0.11,0.21 0.12,0.15 0.2,0.25 0.18,0.16 0.2,0.18 0.26,0.15 0.18,0.11 0.21,0.07 c 0.09,0.03 0.18,0.07 0.28,0.1 l 0.17,0.02 c 0.12,0.02 0.24,0.04 0.36,0.05 h 0.02 l 0.25,-0.02 0.25,-0.02 h 0.02 c 0.12,-0.02 0.23,-0.06 0.34,-0.09 l 0.17,-0.05 0.26,-0.13 0.21,-0.1 0.15,-0.12 0.25,-0.2 0.16,-0.18 0.18,-0.2 0.15,-0.26 0.1,-0.18 0.07,-0.21 c 0.03,-0.09 0.07,-0.18 0.1,-0.28 l 0.02,-0.17 c 0.02,-0.12 0.04,-0.24 0.05,-0.36 v -0.02 l -0.02,-0.25 -0.01,-0.25 v -0.02 c -0.02,-0.12 -0.06,-0.23 -0.09,-0.35 l -0.05,-0.16 C 233.89,37.17 233.84,37.08 233.8,37 l -0.1,-0.2 -0.13,-0.17 -0.18,-0.24 -0.2,-0.17 -0.18,-0.16 C 232.93,36 232.83,35.95 232.74,35.9 l -0.17,-0.1 -0.22,-0.08 c -0.09,-0.03 -0.18,-0.07 -0.27,-0.09 l -0.17,-0.02 -0.15,-0.02 -3.48,-21.42 0.04,-0.02 0.11,-0.06 0.12,-0.07 0.02,-0.01 0.02,-0.01 0.06,-0.04 0.11,-0.08 0.09,-0.07 0.1,-0.09 0.09,-0.09 0.09,-0.09 0.02,-0.03 16.68,8.16 c -0.21,1.14 0.34,2.33 1.44,2.87 1.28,0.65 2.87,0.11 3.52,-1.21"
   clip-path="url(#SVGID_00000037687385423331182490000006008368761653566893_)"
   id="path12" />
	</g><g
   id="g24">
		<defs
   id="defs17">
			<rect
   id="SVGID_00000091734402143590938490000013865031519258105242_"
   x="-14.17"
   y="-14.17"
   width="269.29001"
   height="170.08" />
		</defs>
		<clipPath
   id="SVGID_00000174573040052392124570000018036103671273787047_">
			<use
   xlink:href="#SVGID_00000091734402143590938490000013865031519258105242_"
   style="overflow:visible"
   id="use19"
   x="0"
   y="0"
   width="100%"
   height="100%" />
		</clipPath>
		<path
   style="fill:#797b7d"
   d="m 3.87,125.44 c -0.7,0 -1.41,-0.18 -2.06,-0.55 -1.68,-0.95 -2.45,-2.89 -2,-4.68 l -13.98,-7.92 v -2.57 l 15.08,8.54 c 0.8,-0.8 1.88,-1.24 2.98,-1.24 0.7,0 1.41,0.18 2.06,0.54 2.02,1.14 2.73,3.71 1.58,5.72 -0.77,1.39 -2.19,2.16 -3.66,2.16 m 27.14,12.78 c -1.92,0 -3.65,-1.32 -4.09,-3.28 -0.43,-1.88 0.49,-3.76 2.12,-4.62 l -4.26,-18.86 h -0.01 -0.05 l -0.2,-0.02 -0.19,-0.03 -0.21,-0.04 -0.17,-0.04 h -0.03 l -0.02,-0.01 -0.18,-0.05 -0.17,-0.06 -0.2,-0.08 -0.18,-0.08 -0.02,-0.01 -0.05,-0.02 -0.11,-0.06 -0.18,-0.1 -0.16,-0.1 -0.18,-0.13 -0.03,-0.02 -0.03,-0.02 -0.08,-0.07 -0.17,-0.15 -0.13,-0.12 -0.15,-0.16 -0.05,-0.05 v 0 l -0.08,-0.1 -0.13,-0.17 -0.12,-0.17 -0.11,-0.17 -0.11,-0.2 -0.08,-0.16 -0.1,-0.22 -0.05,-0.11 -0.02,-0.06 -0.02,-0.04 -0.05,-0.16 -0.06,-0.22 -0.02,-0.06 -0.02,-0.11 -0.04,-0.19 -0.01,-0.06 -0.02,-0.17 -0.02,-0.24 v -0.19 -0.17 -0.04 l 0.02,-0.2 0.03,-0.19 0.04,-0.21 0.04,-0.17 v -0.02 l 0.01,-0.02 0.06,-0.18 0.06,-0.17 0.08,-0.2 0.08,-0.18 0.01,-0.02 0.02,-0.05 0.06,-0.11 0.1,-0.18 0.1,-0.16 0.12,-0.18 0.02,-0.03 0.02,-0.03 0.07,-0.08 0.14,-0.17 0.13,-0.13 0.16,-0.15 0.15,-0.13 0.16,-0.13 0.18,-0.12 0.16,-0.1 0.21,-0.11 0.16,-0.08 0.22,-0.1 0.11,-0.05 0.06,-0.02 0.04,-0.02 0.17,-0.05 0.21,-0.06 0.06,-0.02 0.12,-0.02 0.19,-0.04 0.05,-0.01 0.18,-0.02 0.23,-0.02 h 0.1 l 8.73,-33.23 -0.18,-0.11 c -0.1,-0.06 -0.2,-0.11 -0.29,-0.18 L 32.91,69.35 C 32.8,69.24 32.67,69.15 32.57,69.03 32.48,68.92 32.4,68.8 32.32,68.69 32.25,68.59 32.16,68.49 32.1,68.38 32.02,68.24 31.96,68.08 31.89,67.93 31.85,67.83 31.79,67.74 31.76,67.65 31.72,67.54 31.7,67.42 31.67,67.3 L 31.62,67.11 9.97,65.64 C 9.91,65.8 9.85,65.95 9.78,66.1 L 9.75,66.17 C 9.64,66.39 9.5,66.6 9.36,66.79 L 9.35,66.8 C 9.2,66.99 9.03,67.17 8.85,67.33 L 8.8,67.38 c -0.19,0.16 -0.39,0.3 -0.6,0.43 L 8.14,67.84 C 7.93,67.96 7.7,68.06 7.47,68.15 L 7.4,68.18 C 7.17,68.26 6.93,68.31 6.68,68.35 L 6.59,68.36 C 6.43,68.38 6.26,68.39 6.09,68.4 L 5.82,68.39 H 5.77 L 5.74,68.38 C 5.48,68.36 5.22,68.32 4.98,68.25 L 4.9,68.23 C 4.66,68.16 4.43,68.07 4.2,67.96 L 4.13,67.93 C 3.91,67.82 3.71,67.68 3.51,67.54 L 3.45,67.49 C 3.26,67.34 3.08,67.17 2.92,66.99 L 2.87,66.94 C 2.71,66.75 2.57,66.55 2.44,66.34 L 2.4,66.28 C 2.28,66.07 2.18,65.84 2.09,65.61 L 2.06,65.54 C 2,65.31 1.94,65.07 1.9,64.82 L 1.88,64.73 C 1.86,64.57 1.85,64.4 1.84,64.23 L 1.85,63.97 V 63.92 63.89 C 1.87,63.63 1.91,63.38 1.98,63.13 L 2,63.06 c 0.07,-0.24 0.16,-0.47 0.27,-0.7 L 2.3,62.29 c 0.11,-0.22 0.25,-0.42 0.39,-0.62 l 0.05,-0.06 c 0.15,-0.19 0.32,-0.37 0.5,-0.53 l 0.05,-0.05 c 0.19,-0.16 0.39,-0.3 0.6,-0.43 L 3.95,60.56 C 4.16,60.44 4.39,60.34 4.62,60.25 L 4.69,60.22 4.88,60.16 4.75,41.01 C 2.97,40.53 1.65,38.92 1.64,36.99 1.62,34.67 3.49,32.78 5.81,32.76 c 0.01,0 0.02,0 0.03,0 2.3,0 4.18,1.86 4.2,4.17 0.01,1.93 -1.28,3.57 -3.05,4.07 l 0.15,19.15 0.07,0.02 c 0.24,0.07 0.47,0.16 0.69,0.27 l 0.07,0.03 c 0.22,0.11 0.42,0.24 0.62,0.39 l 0.06,0.05 c 0.19,0.15 0.37,0.32 0.53,0.5 l 0.05,0.05 c 0.16,0.19 0.3,0.39 0.43,0.6 l 0.04,0.06 c 0.12,0.21 0.22,0.44 0.31,0.67 l 0.03,0.07 c 0.06,0.16 0.1,0.33 0.14,0.5 l 21.65,1.48 0.09,-0.23 0.1,-0.26 c 0.07,-0.14 0.16,-0.26 0.24,-0.39 0.07,-0.1 0.12,-0.21 0.2,-0.31 l 0.21,-0.22 c 0.11,-0.12 0.22,-0.26 0.35,-0.37 0.09,-0.08 0.2,-0.15 0.31,-0.22 0.11,-0.08 0.22,-0.17 0.34,-0.24 0.14,-0.08 0.29,-0.14 0.43,-0.2 0.1,-0.04 0.2,-0.1 0.3,-0.14 0.11,-0.04 0.23,-0.05 0.34,-0.08 0.15,-0.04 0.3,-0.09 0.46,-0.11 l 0.27,-0.01 c 0.14,-0.01 0.29,-0.02 0.43,-0.02 0.05,0 0.09,0 0.14,0 h 0.03 c 0.13,0.01 0.25,0.04 0.38,0.07 0.13,0.02 0.27,0.03 0.4,0.06 l 0.03,0.01 c 0.18,0.05 0.35,0.12 0.53,0.2 l 0.26,0.1 c 0.14,0.07 0.26,0.16 0.38,0.24 0.1,0.07 0.22,0.12 0.31,0.2 l 0.22,0.21 c 0.12,0.11 0.26,0.22 0.37,0.35 0.08,0.1 0.15,0.21 0.22,0.31 0.08,0.11 0.17,0.22 0.25,0.34 0.08,0.14 0.14,0.29 0.2,0.44 0.04,0.1 0.1,0.19 0.14,0.29 0.04,0.11 0.06,0.23 0.08,0.35 0.04,0.15 0.09,0.3 0.11,0.45 0.01,0.09 0,0.18 0.01,0.27 0.01,0.19 0.03,0.38 0.02,0.57 v 0.03 c -0.01,0.14 -0.05,0.26 -0.07,0.39 -0.02,0.13 -0.03,0.26 -0.06,0.39 l -0.01,0.02 c -0.05,0.19 -0.13,0.36 -0.2,0.54 l -0.1,0.25 c -0.07,0.14 -0.16,0.27 -0.25,0.4 -0.07,0.1 -0.12,0.2 -0.19,0.3 l -0.23,0.24 c -0.11,0.12 -0.21,0.24 -0.33,0.34 -0.11,0.09 -0.23,0.17 -0.34,0.25 -0.1,0.07 -0.2,0.16 -0.31,0.22 -0.14,0.08 -0.3,0.14 -0.45,0.21 -0.09,0.04 -0.18,0.1 -0.28,0.13 -0.11,0.04 -0.24,0.06 -0.36,0.09 -0.15,0.04 -0.29,0.08 -0.44,0.1 -0.09,0.01 -0.19,0.01 -0.28,0.01 l -0.25,0.01 -8.73,33.23 0.06,0.04 0.16,0.11 0.17,0.12 0.03,0.02 0.03,0.02 0.08,0.07 0.17,0.14 0.14,0.13 0.15,0.16 0.13,0.15 0.13,0.16 0.04,0.04 27.54,-10.32 c -0.16,-1.84 0.9,-3.63 2.71,-4.31 0.49,-0.18 0.98,-0.27 1.47,-0.27 1.7,0 3.3,1.04 3.93,2.73 0.81,2.17 -0.29,4.59 -2.46,5.41 -0.48,0.18 -0.98,0.27 -1.47,0.27 -1.33,0 -2.61,-0.64 -3.4,-1.74 l -27.55,10.32 0.01,0.22 v 0.2 0.17 0.04 l -0.02,0.21 -0.03,0.19 -0.04,0.22 -0.04,0.17 v 0.03 l -0.01,0.02 -0.05,0.18 -0.06,0.17 -0.08,0.2 -0.08,0.18 -0.01,0.02 -0.02,0.05 -0.06,0.11 -0.1,0.18 -0.1,0.16 -0.12,0.18 -0.02,0.03 -0.02,0.03 -0.07,0.08 -0.14,0.17 -0.13,0.13 -0.16,0.15 -0.05,0.05 v 0 l -0.1,0.08 -0.17,0.13 -0.17,0.12 -0.16,0.11 -0.19,0.11 4.26,18.86 c 1.84,0.09 3.47,1.38 3.9,3.27 0.51,2.26 -0.91,4.51 -3.17,5.02 -0.33,0.05 -0.64,0.08 -0.95,0.08 m 23.31,17.69 H 42.12 L 14.2,145.61 c -0.07,0.1 -0.14,0.19 -0.22,0.28 l -0.03,0.03 6.61,9.99 h -2.68 l -5.8,-8.76 -0.14,0.05 -0.02,0.01 -0.1,0.02 -0.09,0.02 c -0.2,0.05 -0.4,0.08 -0.6,0.1 H 11.1 11.03 l -0.11,0.01 c -0.05,0 -0.1,0 -0.15,0 -0.16,0 -0.31,-0.01 -0.47,-0.03 h -0.02 l -0.04,-0.01 H 10.22 L 10.11,147.3 C 9.9,147.27 9.7,147.22 9.5,147.15 L 9.41,147.12 H 9.4 L 9.35,147.11 9.31,147.09 C 9.12,147.02 8.93,146.93 8.75,146.83 L 8.67,146.78 8.63,146.76 8.56,146.72 C 8.39,146.61 8.23,146.49 8.08,146.36 L 8,146.29 7.96,146.25 7.89,146.19 C 7.75,146.06 7.62,145.92 7.5,145.76 L 7.45,145.7 7.42,145.66 7.35,145.57 7.28,145.48 c -0.09,-0.13 -0.16,-0.26 -0.23,-0.4 L 7.03,145.04 7,144.96 6.96,144.87 C 6.88,144.69 6.81,144.5 6.75,144.31 L 6.74,144.29 6.72,144.19 6.7,144.11 C 6.67,144 6.65,143.89 6.64,143.78 l -20.81,-2.54 v -2.25 l 21.08,2.57 c 0.06,-0.16 0.14,-0.31 0.22,-0.46 l 0.05,-0.08 0.02,-0.04 0.04,-0.07 c 0.11,-0.17 0.22,-0.33 0.35,-0.48 l 0.05,-0.06 0.04,-0.04 0.06,-0.07 c 0.13,-0.14 0.28,-0.27 0.43,-0.39 l 0.06,-0.05 0.04,-0.03 0.09,-0.07 0.09,-0.07 c 0.13,-0.09 0.26,-0.16 0.4,-0.23 l 0.04,-0.02 0.08,-0.04 0.09,-0.04 c 0.18,-0.08 0.37,-0.15 0.56,-0.21 l 0.02,-0.01 0.1,-0.02 0.09,-0.02 c 0.2,-0.05 0.4,-0.08 0.6,-0.1 h 0.03 0.07 0.11 c 0.05,0 0.1,0 0.15,0 0.16,0 0.31,0.01 0.47,0.03 h 0.02 l 0.04,0.01 h 0.02 l 0.11,0.02 c 0.21,0.04 0.41,0.08 0.62,0.15 l 0.09,0.03 h 0.01 l 0.05,0.01 0.04,0.02 c 0.19,0.07 0.38,0.16 0.56,0.26 l 0.08,0.05 0.03,0.02 0.07,0.04 c 0.17,0.11 0.33,0.22 0.48,0.36 l 0.06,0.05 0.04,0.04 0.07,0.06 c 0.14,0.13 0.27,0.27 0.39,0.43 l 0.05,0.07 0.03,0.04 0.07,0.09 0.07,0.09 c 0.08,0.13 0.16,0.26 0.23,0.4 l 0.02,0.04 0.03,0.08 0.04,0.09 c 0.08,0.18 0.15,0.37 0.21,0.55 l 0.01,0.03 0.02,0.1 0.02,0.08 c 0.05,0.2 0.08,0.4 0.1,0.6 v 0.04 0.07 0.11 c 0.01,0.16 0,0.33 -0.01,0.49 l 32.24,11.89 0.12,-0.16 c 0.07,-0.09 0.14,-0.19 0.22,-0.28 l 0.25,-0.22 c 0.12,-0.11 0.23,-0.22 0.36,-0.32 0.11,-0.08 0.23,-0.13 0.34,-0.2 0.12,-0.07 0.23,-0.15 0.35,-0.2 0.14,-0.07 0.3,-0.11 0.45,-0.16 0.1,-0.04 0.2,-0.08 0.31,-0.11 0.11,-0.03 0.23,-0.03 0.35,-0.05 l 0.2,-0.03 3.56,-21.42 c -0.12,-0.06 -0.23,-0.11 -0.34,-0.18 -0.12,-0.07 -0.23,-0.14 -0.34,-0.22 -0.11,-0.08 -0.22,-0.16 -0.32,-0.25 -0.1,-0.09 -0.19,-0.18 -0.29,-0.28 -0.09,-0.1 -0.18,-0.2 -0.26,-0.3 -0.08,-0.1 -0.15,-0.21 -0.22,-0.33 -0.07,-0.12 -0.14,-0.23 -0.21,-0.35 -0.06,-0.12 -0.11,-0.24 -0.16,-0.37 -0.05,-0.13 -0.1,-0.25 -0.13,-0.39 -0.04,-0.13 -0.06,-0.27 -0.09,-0.4 -0.02,-0.13 -0.04,-0.27 -0.06,-0.4 -0.01,-0.14 -0.01,-0.29 -0.01,-0.43 v -0.26 l 0.03,-0.16 0.01,-0.16 0.07,-0.25 c 0.03,-0.14 0.07,-0.28 0.11,-0.42 0.04,-0.13 0.1,-0.25 0.15,-0.37 0.06,-0.13 0.12,-0.25 0.19,-0.37 0.07,-0.12 0.15,-0.23 0.22,-0.34 0.08,-0.11 0.16,-0.22 0.25,-0.32 0.09,-0.1 0.18,-0.2 0.28,-0.29 0.1,-0.09 0.2,-0.18 0.3,-0.26 0.11,-0.08 0.22,-0.15 0.33,-0.23 0.12,-0.07 0.23,-0.14 0.35,-0.2 0.12,-0.06 0.24,-0.11 0.37,-0.16 0.13,-0.05 0.25,-0.1 0.39,-0.13 0.13,-0.04 0.27,-0.06 0.4,-0.09 0.13,-0.02 0.26,-0.04 0.4,-0.06 0.08,-0.01 0.16,-0.01 0.24,-0.01 0.07,0 0.13,0 0.2,0 h 0.26 l 0.16,0.03 0.16,0.01 0.25,0.07 c 0.14,0.03 0.28,0.07 0.42,0.11 0.13,0.04 0.25,0.1 0.38,0.15 0.13,0.06 0.25,0.12 0.37,0.19 0.12,0.07 0.23,0.15 0.34,0.23 0.11,0.08 0.22,0.16 0.32,0.25 0.1,0.09 0.2,0.19 0.29,0.28 0.09,0.1 0.18,0.2 0.26,0.3 0.08,0.11 0.15,0.22 0.23,0.33 0.07,0.11 0.14,0.23 0.2,0.35 0.06,0.12 0.11,0.24 0.16,0.37 0.05,0.13 0.1,0.25 0.13,0.39 0.03,0.12 0.06,0.25 0.08,0.37 l 19.1,1.7 c 0.61,-1.61 2.14,-2.73 3.91,-2.73 0.12,0 0.25,0 0.37,0.02 2.31,0.21 4.02,2.24 3.81,4.55 -0.19,2.18 -2.03,3.83 -4.18,3.83 -0.12,0 -0.25,-0.01 -0.38,-0.02 -1.92,-0.17 -3.41,-1.62 -3.74,-3.43 l -19.09,-1.7 c -0.03,0.09 -0.08,0.18 -0.12,0.26 -0.06,0.13 -0.12,0.25 -0.19,0.37 -0.07,0.12 -0.15,0.23 -0.23,0.34 -0.08,0.11 -0.16,0.21 -0.25,0.32 -0.09,0.1 -0.19,0.2 -0.28,0.29 -0.1,0.09 -0.2,0.18 -0.3,0.26 -0.11,0.08 -0.22,0.15 -0.33,0.23 -0.11,0.07 -0.23,0.14 -0.35,0.2 -0.12,0.06 -0.24,0.11 -0.37,0.16 -0.13,0.05 -0.25,0.1 -0.38,0.13 -0.13,0.04 -0.27,0.06 -0.4,0.09 -0.1,0.02 -0.19,0.04 -0.29,0.05 l -3.56,21.41 0.22,0.11 0.25,0.13 c 0.13,0.08 0.24,0.18 0.36,0.28 0.1,0.08 0.2,0.14 0.29,0.23 l 0.2,0.23 c 0.11,0.12 0.23,0.24 0.33,0.38 0.07,0.1 0.13,0.22 0.19,0.33 0.1,0.07 0.14,0.13 0.18,0.19"
   clip-path="url(#SVGID_00000174573040052392124570000018036103671273787047_)"
   id="path22" />
	</g><g
   id="g34"
   transform="rotate(47.433699,76.405849,174.40461)">
		<defs
   id="defs27">
			<rect
   id="SVGID_00000121999800245487107500000001811837451098558341_"
   x="-14.17"
   y="-14.17"
   width="269.29001"
   height="170.08" />
		</defs>
		<clipPath
   id="SVGID_00000102513375672454776240000016709738139238537406_">
			<use
   xlink:href="#SVGID_00000121999800245487107500000001811837451098558341_"
   style="overflow:visible"
   id="use29"
   x="0"
   y="0"
   width="100%"
   height="100%" />
		</clipPath>
		<path
   style="fill:#a7a9ac"
   d="m 0.41,92.78 c -1.22,-0.27 -2,-1.48 -1.73,-2.7 0.27,-1.22 1.48,-2 2.7,-1.73 1.02,0.22 1.73,1.1 1.78,2.1 l 15.85,3.47 c 0.46,-0.88 1.47,-1.38 2.49,-1.16 1.22,0.27 2,1.48 1.73,2.7 -0.27,1.22 -1.48,2 -2.7,1.73 -1.02,-0.22 -1.73,-1.1 -1.78,-2.1 L 2.91,91.62 C 2.44,92.5 1.43,93 0.41,92.78 m 15.23,38.41 -0.03,0.01 -0.11,0.01 -0.08,0.01 h -0.03 l -0.12,0.01 H 15.21 15.2 15.18 l -0.12,-0.01 h -0.03 l -0.07,-0.01 -0.1,-0.02 -0.04,-0.01 -0.05,-0.01 -0.03,-0.01 -0.07,-0.02 -0.06,-0.01 -0.06,-0.02 -0.03,-0.01 -0.05,-0.02 -0.05,-0.02 -0.08,-0.03 -0.02,-0.01 -0.07,-0.03 -0.02,0.01 -0.1,-0.05 -0.02,-0.01 -0.08,-0.05 -0.1,-0.06 -0.01,-0.01 -0.09,-0.07 -0.08,-0.06 v 0 l -0.1,-0.09 -0.07,-0.06 -0.08,-0.09 -0.06,-0.07 v -0.01 l -0.01,-0.01 -0.05,-0.07 -0.07,-0.09 -0.02,-0.02 -0.01,-0.01 -0.03,-0.06 -0.06,-0.1 -0.02,-0.03 -0.03,-0.07 -0.04,-0.1 -0.02,-0.04 -0.03,-0.08 -0.03,-0.09 -0.01,-0.04 -0.01,-0.08 -0.02,-0.09 -0.01,-0.03 -0.01,-0.11 -0.01,-0.08 v -0.03 -0.12 -0.07 -0.01 -0.02 l 0.01,-0.12 v -0.03 l 0.01,-0.07 0.02,-0.1 v -0.03 l 0.01,-0.06 0.01,-0.03 0.02,-0.07 0.01,-0.05 0.02,-0.07 0.01,-0.03 0.02,-0.05 0.02,-0.05 0.03,-0.08 0.01,-0.02 0.03,-0.07 v 0 l 0.05,-0.1 0.01,-0.01 0.05,-0.08 0.06,-0.09 0.01,-0.01 0.07,-0.09 0.06,-0.08 v 0 l 0.09,-0.1 0.06,-0.07 0.09,-0.08 0.07,-0.06 h 0.01 l 0.01,-0.01 0.08,-0.06 0.09,-0.07 0.02,-0.02 0.01,-0.01 0.06,-0.03 0.1,-0.06 0.03,-0.02 0.07,-0.03 0.1,-0.04 0.04,-0.02 0.08,-0.03 0.09,-0.03 0.04,-0.01 0.01,-0.01 0.04,-15.94 -0.02,-0.01 -0.12,-0.04 -0.09,-0.03 -0.12,-0.05 -0.08,-0.04 -0.11,-0.06 -0.08,-0.05 -0.09,-0.06 -0.09,-0.07 -0.08,-0.06 -0.09,-0.08 -0.06,-0.06 -0.09,-0.1 -0.06,-0.07 -0.08,-0.1 -0.02,-0.02 -11.1,3.75 0.01,0.1 v 0.11 0.11 l -0.01,0.1 -0.02,0.11 -0.02,0.1 -0.03,0.11 -0.03,0.1 -0.04,0.11 -0.04,0.1 -0.04,0.1 -0.06,0.1 -0.09,0.07 -0.07,0.1 -0.06,0.08 -0.08,0.09 -0.07,0.08 -0.08,0.08 -0.07,0.07 -0.08,0.07 -0.09,0.07 -0.09,0.06 -0.1,0.07 -0.09,0.05 -0.11,0.06 -0.03,0.01 -0.08,0.03 -0.08,0.03 -0.03,0.01 -0.12,0.03 -0.1,0.02 -0.12,0.02 -0.1,0.02 -0.12,0.01 -0.11,0.01 h -0.11 l -0.11,-0.01 -0.1,-0.01 -0.12,-0.02 -0.1,-0.02 -0.12,-0.03 -0.1,-0.03 -0.11,-0.04 -0.1,-0.04 -0.1,-0.05 -0.1,-0.06 -0.09,-0.05 -0.1,-0.07 -0.08,-0.06 -0.09,-0.07 -0.08,-0.07 -0.08,-0.08 -0.07,-0.08 -0.07,-0.08 -0.07,-0.09 -0.06,-0.08 -0.07,-0.11 -0.02,-0.1 -0.06,-0.11 -0.01,-0.03 -0.03,-0.08 -0.03,-0.08 -0.01,-0.03 -0.03,-0.12 -0.02,-0.1 -0.02,-0.12 -0.02,-0.1 -0.01,-0.12 -0.01,-0.11 v -0.11 l 0.01,-0.11 0.01,-0.1 0.02,-0.12 0.02,-0.1 0.03,-0.12 0.03,-0.09 0.04,-0.11 0.04,-0.1 0.05,-0.1 0.05,-0.1 0.05,-0.09 0.07,-0.09 0.06,-0.08 0.07,-0.09 0.07,-0.08 0.08,-0.08 0.08,-0.08 0.08,-0.06 -4.05,-9.52 c -0.99,0.13 -1.98,-0.4 -2.39,-1.36 -0.49,-1.15 0.05,-2.49 1.2,-2.97 1.15,-0.49 2.49,0.05 2.98,1.2 0.41,0.96 0.1,2.04 -0.68,2.66 l 4.05,9.52 h 0.05 l 0.12,-0.01 H 0 0.11 l 0.11,0.01 0.1,0.01 0.11,0.02 0.1,0.02 0.11,0.03 0.1,0.03 0.11,0.04 0.1,0.04 0.1,0.04 0.1,0.06 0.09,0.05 0.1,0.07 0.07,0.05 0.09,0.08 0.08,0.07 0.08,0.08 0.07,0.08 0.07,0.08 0.07,0.09 0.03,0.04 11.1,-3.75 v -0.11 -0.02 -0.06 l 0.01,-0.14 0.01,-0.1 0.02,-0.12 0.03,-0.11 0.03,-0.1 0.04,-0.12 0.03,-0.08 0.05,-0.12 0.04,-0.08 0.06,-0.11 0.05,-0.08 0.06,-0.09 0.07,-0.09 0.06,-0.08 0.08,-0.09 0.06,-0.07 0.1,-0.09 0.07,-0.06 0.1,-0.08 0.09,-0.06 0.1,-0.06 0.11,-0.06 0.08,-0.04 0.14,-0.06 0.05,-0.02 0.02,-0.01 0.14,-0.04 0.08,-0.02 0.12,-0.02 0.11,-0.02 0.09,-0.01 0.14,-0.01 h 0.02 0.06 l 0.15,0.01 0.09,0.01 0.12,0.02 0.11,0.03 0.1,0.03 0.12,0.04 0.08,0.03 0.12,0.05 0.08,0.04 0.11,0.06 0.08,0.05 0.09,0.06 0.09,0.07 0.07,0.06 0.09,0.09 0.06,0.06 0.09,0.1 0.05,0.07 0.08,0.1 0.05,0.08 0.06,0.1 0.06,0.11 0.04,0.09 0.05,0.14 0.02,0.05 0.01,0.02 0.04,0.14 0.02,0.08 0.02,0.11 0.02,0.12 0.01,0.09 0.01,0.15 v 0.02 0.06 l -0.01,0.15 -0.01,0.09 -0.02,0.12 -0.02,0.11 -0.03,0.1 -0.04,0.12 -0.03,0.08 -0.05,0.12 -0.04,0.08 -0.06,0.11 -0.05,0.08 -0.06,0.09 -0.07,0.09 -0.06,0.07 -0.09,0.09 -0.06,0.06 -0.1,0.09 -0.07,0.06 -0.1,0.08 -0.08,0.05 -0.1,0.06 -0.11,0.06 -0.09,0.04 -0.13,0.05 -0.05,0.02 -0.02,0.01 -0.11,0.03 -0.04,15.95 0.06,0.02 0.03,0.01 0.05,0.02 0.04,0.02 0.08,0.03 0.02,0.01 0.08,0.04 0.1,0.05 0.01,0.01 0.08,0.05 0.1,0.06 0.01,0.01 0.09,0.07 0.08,0.06 v 0 l 0.07,0.06 14.29,-9.1 c -0.29,-0.95 0.07,-2.02 0.95,-2.58 1.06,-0.67 2.46,-0.36 3.13,0.69 0.67,1.06 0.36,2.46 -0.69,3.13 -0.88,0.56 -2,0.44 -2.74,-0.23 l -14.29,9.1 v 0.02 l 0.01,0.04 0.02,0.09 0.02,0.09 0.01,0.03 0.02,0.11 0.01,0.08 v 0.03 0.12 0.07 0.01 0.02 l -0.01,0.12 v 0.02 l -0.01,0.08 -0.02,0.1 -0.01,0.05 -0.01,0.04 -0.01,0.03 -0.02,0.07 -0.01,0.06 -0.02,0.06 -0.01,0.03 -0.02,0.05 -0.02,0.05 -0.03,0.08 -0.01,0.02 -0.03,0.07 -0.01,0.01 -0.05,0.1 -0.01,0.01 -0.05,0.08 -0.06,0.09 -0.01,0.01 -0.03,0.04 8.99,11.1 c 0.91,-0.4 2.01,-0.16 2.67,0.65 0.79,0.97 0.64,2.4 -0.33,3.19 -0.97,0.79 -2.4,0.64 -3.19,-0.33 -0.66,-0.81 -0.66,-1.94 -0.08,-2.75 l -8.99,-11.1 -0.05,0.02 -0.03,0.01 -0.08,0.03 -0.09,0.03 -0.04,0.01 -0.09,0.02 -0.04,0.06 m -14.19,28.2 v 0 l -0.22,0.03 H 1.13 1.01 l -0.14,-0.01 -0.08,-0.01 -0.15,-0.02 -0.07,-0.01 -0.13,-0.04 -0.08,-0.02 -0.11,-0.04 -0.09,-0.04 -0.09,-0.04 -0.11,-0.05 -0.07,-0.04 -0.12,-0.07 -0.05,-0.04 -0.12,-0.09 -0.06,-0.05 -0.1,-0.1 -0.08,-0.09 -0.07,-0.08 -0.12,-0.17 -0.01,-0.01 c -0.08,-0.13 -0.15,-0.26 -0.21,-0.41 -0.06,-0.15 -0.1,-0.29 -0.12,-0.44 v -0.01 l -0.03,-0.21 v -0.1 -0.11 l 0.01,-0.14 0.01,-0.07 0.02,-0.15 0.01,-0.07 0.04,-0.14 0.02,-0.07 0.04,-0.12 0.03,-0.09 0.04,-0.09 0.05,-0.11 0.04,-0.07 0.07,-0.12 0.04,-0.06 0.09,-0.12 0.06,-0.06 0.09,-0.1 0.05,-0.04 -6.59,-12.79 -0.07,0.01 -0.11,0.02 -0.11,0.01 -0.19,0.01 h -0.03 l -0.23,-0.02 v 0 l -0.06,-0.01 -0.15,-0.03 -0.12,-0.03 -0.09,-0.02 -0.13,-0.05 -0.07,-0.03 -0.12,-0.06 -0.07,-0.04 -0.1,-0.06 -0.09,-0.06 -0.08,-0.06 -0.1,-0.09 -0.06,-0.06 -0.1,-0.1 -0.05,-0.06 -0.09,-0.11 -0.06,-0.08 -0.07,-0.1 -0.09,-0.15 -0.02,-0.04 v 0 l -0.09,-0.21 v 0 l -0.07,-0.21 -0.03,-0.08 -0.03,-0.13 -0.02,-0.13 -0.01,-0.09 -0.01,-0.21 v -0.01 l 0.02,-0.23 v 0 l 0.01,-0.05 0.03,-0.16 0.03,-0.12 0.02,-0.09 0.05,-0.13 0.03,-0.07 0.06,-0.12 0.04,-0.07 0.07,-0.1 0.05,-0.08 0.06,-0.08 0.07,-0.1 0.06,-0.06 0.09,-0.1 0.06,-0.05 0.11,-0.09 0.08,-0.06 0.1,-0.07 0.14,-0.08 0.05,-0.03 v 0 l 0.21,-0.09 0.01,-0.01 0.2,-0.07 0.1,-0.02 0.12,-0.03 0.14,-0.02 0.08,-0.01 c 0.15,-0.01 0.3,-0.01 0.45,0.01 v 0 l 0.03,0.01 0.18,0.03 0.11,0.03 0.1,0.03 0.13,0.05 0.08,0.03 0.12,0.06 0.08,0.04 0.1,0.06 0.09,0.06 0.08,0.06 0.1,0.08 0.06,0.06 0.1,0.1 0.05,0.06 0.09,0.11 0.06,0.08 0.07,0.1 0.08,0.14 0.03,0.05 v 0 l 0.09,0.21 v 0.01 l 0.07,0.2 0.02,0.09 0.03,0.13 0.01,0.07 13.95,1.7 c 0.38,-0.92 1.34,-1.51 2.37,-1.39 1.24,0.15 2.13,1.28 1.98,2.53 -0.15,1.24 -1.28,2.13 -2.53,1.98 -1.04,-0.13 -1.82,-0.93 -1.97,-1.92 l -13.95,-1.7 -0.02,0.04 -0.06,0.12 -0.04,0.08 -0.06,0.1 -0.06,0.09 -0.06,0.08 -0.08,0.1 -0.06,0.06 -0.09,0.1 -0.04,0.03 6.59,12.79 0.08,-0.02 v 0 l 0.22,-0.03 h 0.1 0.12 l 0.14,0.01 0.08,0.01 0.15,0.02 0.07,0.01 0.14,0.04 0.07,0.02 0.12,0.04 0.09,0.04 0.09,0.04 0.11,0.05 0.07,0.04 0.12,0.07 0.06,0.04 0.12,0.09 0.06,0.06 0.1,0.09 0.08,0.09 0.06,0.07 0.13,0.18 v 0 l 0.04,0.07 13.48,-3.76 v -0.02 -0.09 l 0.03,-0.15 0.01,-0.12 0.01,-0.08 0.01,-0.04 0.02,-0.09 0.03,-0.12 0.03,-0.09 0.03,-0.09 0.01,-0.04 0.03,-0.07 0.06,-0.11 0.05,-0.08 0.06,-0.1 0.01,-0.02 0.01,-0.01 0.04,-0.06 0.07,-0.08 0.07,-0.09 0.07,-0.07 0.03,-0.03 0.01,-0.01 0.05,-0.04 0.07,-0.06 0.1,-0.08 0.08,-0.06 0.05,-0.03 0.01,-0.01 0.04,-0.03 0.1,-0.05 0.09,-0.05 0.12,-0.05 0.02,-0.01 0.02,-0.01 0.04,-0.02 0.14,-0.04 0.06,-0.02 0.02,-0.01 0.12,-0.03 0.04,-0.01 0.07,-0.01 0.1,-0.01 0.13,-0.01 h 0.03 0.06 v 0 h 0.04 0.1 l 0.09,0.01 0.13,0.01 0.08,0.01 0.04,0.01 0.09,0.02 0.11,0.03 0.09,0.03 0.09,0.03 0.04,0.02 0.07,0.03 0.11,0.06 0.08,0.05 0.1,0.06 v 0 l 0.02,0.01 0.01,0.01 0.06,0.04 0.08,0.06 0.09,0.08 0.07,0.07 0.03,0.03 0.01,0.01 0.04,0.05 0.06,0.07 0.08,0.1 0.06,0.08 0.03,0.05 0.01,0.01 0.03,0.05 0.05,0.09 0.05,0.1 0.05,0.12 0.01,0.02 0.01,0.02 0.02,0.04 0.04,0.11 18.54,-0.75 0.02,-0.08 0.02,-0.07 0.05,-0.14 0.01,-0.03 0.08,-0.18 v -0.01 l 0.1,-0.18 0.03,-0.04 0.09,-0.13 0.11,-0.12 0.03,-0.04 0.15,-0.14 0.01,-0.01 0.14,-0.12 0.03,-0.02 0.12,-0.08 0.06,-0.04 0.07,-0.04 -2.66,-11.41 -0.1,-0.01 -0.11,-0.01 -0.11,-0.02 -0.1,-0.02 -0.11,-0.03 -0.1,-0.03 -0.11,-0.04 -0.1,-0.04 -0.1,-0.05 -0.1,-0.05 -0.09,-0.05 -0.09,-0.06 -0.08,-0.06 -0.09,-0.07 -0.08,-0.07 -0.08,-0.09 -0.07,-0.07 -0.07,-0.09 -0.07,-0.09 -0.06,-0.09 -0.06,-0.1 -0.05,-0.09 -0.06,-0.11 -0.04,-0.1 -0.04,-0.12 -0.01,-0.03 -0.02,-0.08 -0.02,-0.08 v -0.03 l -0.02,-0.13 -0.01,-0.1 -0.01,-0.13 v -0.1 -0.12 -0.11 l 0.01,-0.11 0.02,-0.11 0.02,-0.1 0.03,-0.11 0.03,-0.09 0.04,-0.11 0.04,-0.09 0.05,-0.1 0.05,-0.09 0.05,-0.09 0.07,-0.09 0.06,-0.08 0.08,-0.09 0.07,-0.08 0.08,-0.08 0.08,-0.07 0.09,-0.07 0.09,-0.07 0.09,-0.06 0.1,-0.06 0.09,-0.04 0.12,-0.06 0.09,-0.04 0.12,-0.05 0.03,-0.01 0.08,-0.02 0.08,-0.03 h 0.03 l 0.12,-0.02 0.1,-0.02 0.12,-0.01 0.1,-0.01 h 0.12 l 0.11,0.01 0.11,0.01 0.11,0.02 0.1,0.02 0.11,0.03 0.1,0.03 0.11,0.04 0.09,0.04 0.1,0.05 0.09,0.05 0.09,0.05 0.09,0.07 0.08,0.06 0.09,0.08 0.08,0.07 0.08,0.08 0.07,0.07 0.07,0.09 0.07,0.09 0.05,0.08 9.87,-3.11 c -0.04,-0.99 0.59,-1.93 1.58,-2.25 1.2,-0.38 2.47,0.29 2.85,1.48 0.38,1.2 -0.29,2.47 -1.48,2.85 -1,0.31 -2.04,-0.1 -2.58,-0.93 l -9.87,3.11 v 0.05 0.12 0.11 l -0.01,0.11 -0.02,0.11 -0.02,0.1 -0.03,0.12 -0.03,0.09 -0.04,0.11 -0.04,0.09 -0.05,0.11 -0.05,0.09 -0.06,0.09 -0.07,0.09 -0.03,0.03 -0.08,0.09 -0.07,0.08 -0.08,0.08 -0.07,0.07 -0.09,0.07 -0.09,0.07 -0.09,0.06 -0.1,0.06 -0.04,0.02 2.66,11.41 h 0.06 l 0.15,0.02 0.08,0.01 0.11,0.02 0.11,0.02 0.07,0.02 0.14,0.05 0.02,0.01 c 0.13,0.05 0.25,0.11 0.37,0.18 l 0.04,0.03 0.14,0.1 0.12,0.1 0.05,0.04 0.14,0.15 0.01,0.01 0.12,0.14 0.02,0.03 0.08,0.12 0.04,0.07 0.05,0.09 0.06,0.11 0.03,0.07 0.06,0.14 0.02,0.06 0.05,0.16 v 0.01 l 0.01,0.07 0.03,0.14 0.01,0.14 0.01,0.08 v 0.01 0.16 0.07 l -0.02,0.15 -0.01,0.08 -0.02,0.11 -0.02,0.11 -0.02,0.07 -0.05,0.15 -0.01,0.02 c -0.05,0.13 -0.11,0.25 -0.18,0.37 l -0.03,0.04 -0.1,0.14 -0.1,0.12 -0.04,0.05 -0.15,0.14 -0.01,0.01 -0.15,0.12 -0.02,0.02 -0.13,0.08 -0.06,0.04 -0.1,0.05 -0.1,0.05 -0.07,0.03 -0.14,0.06 -0.06,0.02 -0.16,0.04 h -0.01 l -0.08,0.01 -0.13,0.02 -0.14,0.01 -0.07,0.01 h -0.01 -0.17 -0.06 l -0.15,-0.02 -0.07,-0.01 -0.12,-0.03 -0.1,-0.02 -0.09,-0.03 -0.14,-0.05 -0.03,-0.01 -0.17,-0.07 h -0.01 l -0.18,-0.1 -0.05,-0.03 -0.13,-0.09 -0.12,-0.1 -0.04,-0.04 -0.15,-0.15 v -0.01 l -0.12,-0.15 -0.01,-0.02 -0.08,-0.12 -0.04,-0.06 -0.05,-0.1 -0.06,-0.11 -0.03,-0.07 -0.06,-0.14 -0.02,-0.05 -18.54,0.75 -0.01,0.03 -0.03,0.11 -0.02,0.06 -0.67,1 h -0.01 l -0.1,0.08 -0.08,0.06 -0.05,0.03 -0.01,0.01 -0.05,0.03 -0.09,0.06 -0.1,0.05 -0.12,0.05 -0.02,0.01 -0.02,0.01 -0.04,0.02 -0.14,0.05 -0.06,0.02 -0.03,0.01 -0.12,0.03 -0.04,0.01 -0.07,0.01 -0.1,0.01 -0.13,0.01 h -0.03 -0.06 -0.01 -0.04 -0.1 l -0.09,-0.01 -0.13,-0.01 -0.08,-0.01 -0.04,-0.01 -0.09,-0.02 -0.11,-0.03 -0.08,-0.05 -0.09,-0.04 -0.04,-0.01 -0.07,-0.03 -0.11,-0.06 -0.08,-0.05 -0.1,-0.06 -0.02,-0.01 -0.01,-0.01 -0.06,-0.04 -0.08,-0.07 -0.09,-0.07 -0.07,-0.07 -0.03,-0.03 -0.01,-0.01 -0.04,-0.04 -0.06,-0.07 -0.08,-0.1 -0.06,-0.08 -0.03,-0.04 -0.01,-0.01 -0.03,-0.04 -0.02,-0.02 -13.47,3.76 v 0.06 l -0.01,0.14 -0.01,0.08 -0.03,0.15 -0.01,0.07 -0.04,0.14 -0.02,0.08 -0.04,0.11 -0.04,0.09 -0.04,0.09 -0.06,0.11 -0.04,0.07 -0.08,0.12 -0.04,0.05 -0.09,0.12 -0.05,0.06 -0.1,0.1 -0.09,0.08 -0.08,0.07 -0.17,0.13 v 0 c -0.13,0.08 -0.26,0.15 -0.41,0.21 -0.14,0.04 -0.29,0.08 -0.44,0.11"
   clip-path="url(#SVGID_00000102513375672454776240000016709738139238537406_)"
   id="path32" />
	</g><g
   id="g44">
		<defs
   id="defs37">
			<rect
   id="SVGID_00000168806232085508166860000011445406775909433233_"
   x="-14.17"
   y="-14.17"
   width="269.29001"
   height="170.08" />
		</defs>
		<clipPath
   id="SVGID_00000136404237964210308650000006338486452852483991_">
			<use
   xlink:href="#SVGID_00000168806232085508166860000011445406775909433233_"
   style="overflow:visible"
   id="use39"
   x="0"
   y="0"
   width="100%"
   height="100%" />
		</clipPath>
		<path
   style="fill:#797b7d"
   d="m 221.44,-14.08 -0.09,-0.04 -0.01,-0.01 -0.06,-0.02 -0.05,-0.02 c -0.01,-0.01 -0.03,-0.01 -0.04,-0.01 h 0.34 z m -2.36,0.13 -0.19,-0.22 h 0.69 c -0.09,0.03 -0.18,0.06 -0.27,0.1 l -0.06,0.03 -0.02,0.01 -0.05,0.02 c -0.03,0.02 -0.07,0.04 -0.1,0.06 m 3.59,0.97 -0.12,-0.19 -0.01,-0.02 0.44,-0.54 0.48,0.55 -0.79,0.2 m 7.89,12.06 -8.06,-9.14 0.11,-0.15 0.02,-0.03 0.03,-0.04 0.03,-0.05 c 0.06,-0.11 0.12,-0.22 0.16,-0.33 l 0.01,-0.02 0.02,-0.06 0.02,-0.05 c 0.04,-0.12 0.07,-0.25 0.1,-0.37 v -0.02 l 0.01,-0.04 0.01,-0.07 c 0.01,-0.1 0.02,-0.21 0.02,-0.31 l 1.46,-0.4 5.58,6.33 c -0.02,0.05 -0.04,0.11 -0.06,0.16 -0.38,1.16 0.08,2.39 1.05,3.03 l -0.51,1.56 m -33.46,9.71 -0.03,-0.04 -0.11,-0.12 -0.07,-0.07 -0.11,-0.09 -0.05,-0.04 1.82,-0.28 -1.45,0.64 m 0.52,2.31 0.02,-0.1 0.01,-0.06 v 0 l 0.03,-0.26 v -0.01 l 0.01,-0.25 -0.01,-0.1 -0.01,-0.15 -0.01,-0.08 6.17,-2.75 25.29,-3.89 -0.98,2.96 -30.52,4.69 m -9.63,5.3 c -2.53,0 -4.76,-1.85 -5.16,-4.43 -0.44,-2.85 1.52,-5.52 4.37,-5.96 0.27,-0.04 0.53,-0.06 0.8,-0.06 2.07,0 3.93,1.23 4.76,3.09 l 0.07,-0.01 -0.02,0.03 -0.05,0.09 -0.08,0.14 -0.04,0.08 -0.07,0.15 -0.04,0.11 -0.04,0.13 -0.05,0.2 -0.01,0.05 v 0 c -0.03,0.17 -0.04,0.35 -0.04,0.53 l 0.01,0.1 0.01,0.16 0.03,0.15 0.02,0.11 0.07,0.24 v 0.01 l 0.1,0.25 v 0 l 0.03,0.05 0.09,0.18 0.08,0.12 0.06,0.09 0.1,0.13 0.06,0.07 0.06,0.07 c -0.44,2.06 -2.11,3.73 -4.31,4.07 -0.28,0.04 -0.54,0.06 -0.81,0.06 m 50.4,0.09 -2.84,-1.39 -0.25,-6.3 -0.11,-0.03 h -0.02 L 234.93,8.7 234.72,8.63 234.68,8.62 234.45,8.52 234.43,8.51 234.27,8.44 234.22,8.41 234.05,8.32 233.94,8.26 233.83,8.2 233.77,8.16 233.65,8.08 233.53,8 233.4,7.91 233.34,7.87 233.26,7.8 l -0.09,-0.07 -0.18,-0.15 -0.13,-0.13 -0.04,-0.04 -0.19,-0.2 -0.04,-0.04 -0.01,-0.01 -0.09,-0.12 -0.18,-0.22 -0.04,-0.06 -0.1,-0.15 -0.14,-0.21 -0.04,-0.07 -0.1,-0.18 -0.1,-0.19 -0.04,-0.08 -0.02,-0.04 -2.02,0.31 0.98,-2.96 0.62,-0.1 0.02,-0.21 V 2.87 l 0.05,-0.22 0.05,-0.26 0.01,-0.02 0.08,-0.25 0.07,-0.21 0.01,-0.04 0.1,-0.24 0.08,-0.18 0.02,-0.05 0.1,-0.18 0.05,-0.1 0.06,-0.11 0.04,-0.06 0.08,-0.12 -0.49,-0.55 0.77,-2.34 c 0.04,0 0.09,0 0.13,0 0.23,0 0.45,-0.03 0.67,-0.09 l 1,1.13 0.03,0.02 0.08,-0.04 0.21,-0.09 0.18,-0.07 0.09,-0.03 0.24,-0.07 0.17,-0.05 0.08,-0.02 0.27,-0.05 0.15,-0.03 h 0.02 l 0.07,-0.01 0.26,-0.02 0.21,-0.02 h 0.03 0.02 0.21 c 0.04,0 0.08,0 0.12,0 0.06,0 0.11,0 0.17,0 l 0.21,0.02 c 0.1,0.01 0.21,0.02 0.31,0.04 h 0.01 l 0.22,0.05 0.26,0.05 0.02,0.01 0.25,0.08 0.21,0.06 0.04,0.01 0.24,0.1 0.01,0.01 0.17,0.07 0.05,0.02 0.18,0.1 0.1,0.06 0.11,0.06 0.06,0.04 0.13,0.09 0.1,0.07 0.13,0.09 0.06,0.04 0.11,0.09 0.06,0.05 0.18,0.15 0.12,0.12 0.05,0.05 0.19,0.19 0.04,0.04 0.01,0.01 0.09,0.12 0.18,0.22 0.04,0.06 0.1,0.15 0.14,0.21 0.04,0.07 0.1,0.18 0.1,0.2 0.04,0.08 0.09,0.21 0.07,0.18 0.03,0.09 0.07,0.24 0.05,0.17 0.02,0.08 0.05,0.27 0.03,0.15 v 0.03 l 0.01,0.06 0.02,0.26 0.02,0.21 v 0.02 0.02 0.21 c 0,0.09 0,0.19 0,0.28 l -0.02,0.21 c -0.01,0.1 -0.02,0.21 -0.03,0.31 v 0.01 l -0.05,0.22 -0.05,0.26 -0.01,0.02 -0.08,0.25 -0.06,0.2 -0.01,0.04 -0.1,0.24 -0.01,0.03 -0.07,0.15 -0.05,0.02 -0.1,0.17 -0.06,0.11 -0.05,0.1 -0.04,0.06 -0.08,0.12 -0.08,0.11 -0.09,0.13 -0.04,0.06 -0.08,0.09 -0.06,0.08 -0.15,0.18 -0.12,0.12 -0.05,0.05 -0.19,0.19 -0.04,0.04 -0.01,0.01 -0.12,0.09 -0.22,0.18 -0.06,0.04 -0.15,0.1 -0.21,0.14 -0.07,0.04 -0.18,0.1 -0.2,0.1 -0.08,0.04 -0.21,0.09 -0.18,0.07 -0.08,0.03 -0.12,0.04 0.31,7.81 m -0.22,35.37 c -2.79,0 -5.11,-2.21 -5.22,-5.02 -0.09,-2.4 1.45,-4.48 3.64,-5.18 l -0.97,-24.96 2.83,1.39 0.92,23.46 c 2.23,0.52 3.94,2.48 4.03,4.88 0.11,2.88 -2.14,5.31 -5.02,5.42 -0.07,0.01 -0.14,0.01 -0.21,0.01 m -26.34,0.24 0.36,-3.51 0.05,0.2 0.04,0.27 0.04,0.24 0.02,0.25 0.01,0.26 -0.01,0.24 c 0,0.09 -0.01,0.18 -0.01,0.27 l -0.03,0.23 -0.04,0.27 -0.05,0.23 -0.06,0.25 -0.08,0.23 -0.08,0.24 -0.11,0.24 -0.05,0.09 m -35.71,16.62 c -2.01,0 -3.92,-1.17 -4.79,-3.12 -1.16,-2.64 0.04,-5.72 2.68,-6.89 0.68,-0.3 1.39,-0.44 2.1,-0.44 1.56,0 3.06,0.7 4.06,1.93 l 21.8,-9.6 -0.03,-0.22 -0.01,-0.25 -0.01,-0.26 0.01,-0.24 c 0,-0.09 0.01,-0.18 0.01,-0.27 l 0.03,-0.23 0.04,-0.27 0.05,-0.23 0.06,-0.25 0.08,-0.24 0.08,-0.24 0.11,-0.24 0.1,-0.21 0.13,-0.24 0.12,-0.2 0.16,-0.22 0.14,-0.19 0.17,-0.2 0.16,-0.19 0.18,-0.17 0.2,-0.18 0.19,-0.15 0.23,-0.17 0.2,-0.13 0.25,-0.15 0.06,-0.03 0.18,-0.09 0.17,-0.09 0.06,-0.02 c 0.09,-0.04 0.19,-0.07 0.28,-0.11 l 0.21,-0.07 c 0.1,-0.03 0.19,-0.05 0.29,-0.08 l 0.22,-0.05 c 0.09,-0.02 0.18,-0.03 0.27,-0.04 l 0.24,-0.03 0.25,-0.02 0.26,-0.01 0.24,0.01 0.27,0.01 0.23,0.03 0.26,0.04 0.23,0.05 0.25,0.06 0.24,0.08 0.24,0.08 0.24,0.11 0.22,0.1 0.24,0.13 0.2,0.12 0.22,0.15 0.19,0.14 0.2,0.17 0.19,0.17 0.17,0.18 0.09,0.1 -0.61,5.83 c -1.15,0.19 -2.07,1.13 -2.2,2.34 -0.01,0.15 -0.02,0.29 -0.01,0.43 h -0.02 l -0.28,0.05 -0.24,0.03 -0.25,0.02 -0.26,0.01 -0.24,-0.01 c -0.09,0 -0.18,-0.01 -0.27,-0.01 l -0.23,-0.03 -0.27,-0.04 -0.23,-0.05 -0.26,-0.06 -0.24,-0.08 -0.23,-0.08 -0.24,-0.11 -0.21,-0.1 -0.24,-0.13 -0.2,-0.12 -0.23,-0.16 -0.18,-0.14 -0.2,-0.17 -0.18,-0.16 -0.18,-0.18 -0.18,-0.2 -0.07,-0.08 -21.8,9.6 c 0.33,2.27 -0.86,4.57 -3.06,5.54 -0.68,0.29 -1.4,0.43 -2.1,0.43 m 48.46,19.02 c -0.02,0 -0.03,0 -0.05,0 h -0.02 c -0.16,0 -0.32,-0.01 -0.47,-0.03 l -0.14,-0.02 c -0.12,-0.02 -0.24,-0.03 -0.35,-0.06 -0.13,-0.03 -0.26,-0.06 -0.38,-0.1 l -0.1,-0.03 c -0.3,-0.09 -0.59,-0.21 -0.87,-0.36 l -0.05,-0.03 c -0.1,-0.06 -0.2,-0.12 -0.3,-0.18 l -0.14,-0.08 -0.21,-0.15 -0.21,-0.16 -0.14,-0.12 -0.26,-0.23 -0.1,-0.11 c -0.09,-0.09 -0.17,-0.18 -0.25,-0.28 l -0.02,-0.02 -0.1,-0.14 -0.19,-0.26 c -0.06,-0.09 -0.11,-0.18 -0.17,-0.28 l -0.09,-0.14 -0.01,-0.02 c -0.06,-0.11 -0.11,-0.23 -0.17,-0.35 l -0.06,-0.13 c -0.04,-0.11 -0.08,-0.22 -0.12,-0.34 l -0.05,-0.16 c -0.03,-0.09 -0.05,-0.18 -0.07,-0.27 l -0.05,-0.23 -0.02,-0.18 c -0.02,-0.11 -0.04,-0.22 -0.04,-0.33 v -0.08 c -0.01,-0.14 -0.02,-0.28 -0.01,-0.43 v -0.03 c 0,-0.16 0.01,-0.31 0.03,-0.47 l 0.02,-0.15 c 0.02,-0.11 0.03,-0.23 0.05,-0.34 0.03,-0.13 0.06,-0.25 0.1,-0.38 l 0.03,-0.1 c 0.09,-0.3 0.21,-0.59 0.36,-0.87 l 0.03,-0.06 c 0.05,-0.1 0.12,-0.2 0.18,-0.3 l 0.08,-0.14 0.15,-0.2 0.16,-0.21 0.12,-0.13 0.23,-0.26 0.1,-0.09 L 209.41,57 c 0.34,0.23 0.74,0.37 1.18,0.42 0.09,0.01 0.19,0.01 0.28,0.01 0.61,0 1.17,-0.21 1.63,-0.56 l 10.97,20.53 0.18,-0.04 0.17,-0.02 c 0.11,-0.02 0.22,-0.04 0.33,-0.05 h 0.08 c 0.13,-0.01 0.26,-0.02 0.39,-0.02 0.01,0 0.03,0 0.04,0 h 0.03 c 0.16,0 0.31,0.01 0.47,0.03 l 0.12,0.02 c 0.12,0.02 0.25,0.03 0.37,0.06 0.12,0.02 0.24,0.06 0.36,0.09 l 0.12,0.03 c 0.15,0.05 0.31,0.1 0.46,0.16 l 0.01,0.01 c 0.14,0.06 0.27,0.12 0.4,0.19 l 0.06,0.03 c 0.1,0.05 0.2,0.11 0.3,0.18 l 0.14,0.08 0.15,0.11 27.49,-22.2 v 3.57 l -25.74,20.79 0.05,0.12 c 0.04,0.11 0.08,0.22 0.12,0.33 l 0.06,0.17 0.07,0.26 0.06,0.24 0.02,0.17 c 0.02,0.11 0.04,0.23 0.04,0.34 v 0.06 c 0.01,0.15 0.02,0.3 0.02,0.45 v 0.02 c 0,0.16 -0.01,0.32 -0.03,0.48 l -0.02,0.13 c -0.02,0.12 -0.03,0.25 -0.06,0.36 -0.02,0.12 -0.06,0.23 -0.09,0.34 l -0.04,0.14 c -0.05,0.15 -0.1,0.3 -0.16,0.45 l -0.01,0.02 c -0.05,0.13 -0.12,0.26 -0.18,0.39 l -0.03,0.07 c -0.05,0.1 -0.11,0.2 -0.17,0.29 l -0.09,0.15 -0.14,0.2 -0.17,0.22 -0.11,0.12 -0.24,0.26 -0.1,0.09 c -0.09,0.09 -0.19,0.18 -0.29,0.26 l -0.02,0.02 -0.13,0.1 c -0.09,0.07 -0.17,0.13 -0.26,0.19 -0.09,0.06 -0.18,0.11 -0.27,0.16 l -0.15,0.09 -0.03,0.01 c -0.11,0.06 -0.23,0.11 -0.34,0.16 l -0.14,0.06 c -0.11,0.04 -0.21,0.08 -0.32,0.11 l -0.17,0.06 -0.26,0.06 -0.25,0.06 -0.16,0.02 c -0.11,0.02 -0.23,0.04 -0.35,0.05 H 225 c -0.16,0.03 -0.29,0.04 -0.42,0.04"
   clip-path="url(#SVGID_00000136404237964210308650000006338486452852483991_)"
   id="path42" />
	</g><g
   id="g54">
		<defs
   id="defs47">
			<rect
   id="SVGID_00000075851645891734388500000003089617127040713857_"
   x="-14.17"
   y="-14.17"
   width="269.29001"
   height="170.08" />
		</defs>
		<clipPath
   id="SVGID_00000052086906258721936200000008229089435748218021_">
			<use
   xlink:href="#SVGID_00000075851645891734388500000003089617127040713857_"
   style="overflow:visible"
   id="use49"
   x="0"
   y="0"
   width="100%"
   height="100%" />
		</clipPath>
		<path
   style="fill:#a7a9ac"
   d="m 222.5,-10.07 -3.43,-3.89 c 0.04,-0.02 0.07,-0.04 0.11,-0.06 l 0.05,-0.02 0.02,-0.01 0.05,-0.03 c 0.09,-0.04 0.18,-0.07 0.27,-0.1 h 1.6 c 0.01,0 0.03,0.01 0.04,0.01 l 0.05,0.02 0.06,0.02 h 0.01 l 0.09,0.04 0.08,-0.1 h 1.07 l 0.39,0.44 -0.44,0.54 0.01,0.02 0.12,0.19 0.79,-0.21 1.06,1.21 -1.47,0.39 c 0,0.1 -0.01,0.21 -0.02,0.31 l -0.01,0.06 -0.01,0.04 v 0.02 c -0.02,0.12 -0.06,0.25 -0.1,0.37 l -0.02,0.05 -0.02,0.06 -0.01,0.02 c -0.04,0.11 -0.1,0.23 -0.16,0.34 l -0.03,0.05 -0.03,0.04 -0.02,0.03 z m 9.14,10.37 -1.08,-1.23 0.51,-1.55 c -0.97,-0.64 -1.43,-1.88 -1.05,-3.03 0.02,-0.06 0.04,-0.11 0.06,-0.16 l 3.13,3.55 c -0.22,0.06 -0.44,0.09 -0.67,0.09 -0.04,0 -0.09,0 -0.13,0 l -0.77,2.33 m -3.49,6.1 0.97,-2.96 1.56,-0.24 -0.97,2.96 -1.56,0.24 m -35.05,5.87 -0.06,-0.07 -0.06,-0.07 -0.1,-0.13 -0.06,-0.09 -0.08,-0.12 -0.09,-0.17 -0.03,-0.05 v 0 l -0.1,-0.25 v -0.01 l -0.07,-0.24 -0.02,-0.11 -0.03,-0.15 -0.01,-0.16 -0.01,-0.1 c 0,-0.18 0.01,-0.35 0.04,-0.53 v 0 l 0.01,-0.05 0.05,-0.2 0.04,-0.13 0.04,-0.11 0.07,-0.15 0.04,-0.08 0.08,-0.14 0.05,-0.09 0.02,-0.03 3.89,-0.6 0.05,0.04 0.11,0.09 0.07,0.07 0.11,0.12 0.04,0.04 1.45,-0.65 5.29,-0.81 -6.17,2.75 0.01,0.08 0.01,0.15 0.01,0.1 -0.01,0.25 v 0.01 l -0.03,0.26 v 0 0.06 l -0.02,0.1 -4.44,0.68 c -0.03,0.17 -0.05,0.33 -0.09,0.49 m 45.35,5.82 -2.84,-1.39 -0.06,-1.6 2.84,1.39 0.06,1.6 m -27.6,39.36 c -0.09,0 -0.18,0 -0.28,-0.01 -0.44,-0.05 -0.84,-0.19 -1.18,-0.42 l -1.11,-2.08 -0.08,0.02 c -0.01,-0.14 -0.01,-0.28 0.01,-0.43 0.13,-1.21 1.05,-2.15 2.2,-2.34 l 0.61,-5.83 0.1,0.11 0.14,0.18 0.17,0.23 0.12,0.19 0.15,0.25 0.03,0.06 0.08,0.18 0.09,0.18 0.02,0.06 c 0.04,0.09 0.07,0.18 0.1,0.27 l 0.08,0.22 c 0.03,0.09 0.05,0.18 0.07,0.28 l 0.01,0.03 -0.37,3.51 -0.06,0.13 -0.13,0.24 -0.12,0.2 -0.16,0.22 -0.14,0.19 -0.17,0.2 -0.16,0.19 -0.16,0.16 1.75,3.27 c -0.44,0.33 -1.01,0.54 -1.61,0.54"
   clip-path="url(#SVGID_00000052086906258721936200000008229089435748218021_)"
   id="path52" />
	</g>
<g
   id="g148"
   transform="translate(53.38,30.82)">
	<g
   id="g66"
   transform="rotate(-137.45624,82.439252,45.745977)">
		<defs
   id="defs59">
			<rect
   id="SVGID_00000126305352059341569870000015361770892689915577_"
   x="-14.17"
   y="-14.17"
   width="269.29001"
   height="170.08" />
		</defs>
		<clipPath
   id="SVGID_00000080178903962363158540000009175296397841137556_">
			<use
   xlink:href="#SVGID_00000126305352059341569870000015361770892689915577_"
   style="overflow:visible"
   id="use61"
   x="0"
   y="0"
   width="100%"
   height="100%" />
		</clipPath>
		<path
   style="fill:#72bf44"
   d="m 108.1,38.23 4.64,-2.33 c 0.81,1.08 2.09,1.78 3.55,1.78 2.44,0 4.43,-1.99 4.43,-4.43 0,-2.45 -1.98,-4.43 -4.43,-4.43 -2.45,0 -4.43,1.98 -4.43,4.43 0,0.44 0.07,0.86 0.18,1.26 l -4.27,2.14 -3.4,-5.84 c 0.95,-0.81 1.56,-2.02 1.56,-3.37 0,-2.45 -1.98,-4.43 -4.43,-4.43 -2.45,0 -4.43,1.98 -4.43,4.43 0,2.45 1.98,4.43 4.43,4.43 0.54,0 1.04,-0.1 1.52,-0.27 l 3.59,6.16 -7.19,20.78 -8.1,-12.25 c 0.85,-0.81 1.38,-1.94 1.38,-3.21 0,-2.45 -1.98,-4.43 -4.43,-4.43 -2.45,0 -4.43,1.98 -4.43,4.43 0,2.45 1.98,4.43 4.43,4.43 0.62,0 1.22,-0.13 1.76,-0.36 l 9.84,14.88 z"
   clip-path="url(#SVGID_00000080178903962363158540000009175296397841137556_)"
   id="path64" />
	</g>
	<g
   id="g76"
   transform="rotate(89.795684,120.23845,33.326836)">
		<defs
   id="defs69">
			<rect
   id="SVGID_00000170990375298280655410000011641669720212517814_"
   x="-14.17"
   y="-14.17"
   width="269.29001"
   height="170.08" />
		</defs>
		<clipPath
   id="SVGID_00000075155272269551171670000002258682400307786654_">
			<use
   xlink:href="#SVGID_00000170990375298280655410000011641669720212517814_"
   style="overflow:visible"
   id="use71"
   x="0"
   y="0"
   width="100%"
   height="100%" />
		</clipPath>
		<path
   style="fill:#72bf44"
   d="m 131.71,45.31 c -2.45,0 -4.43,1.98 -4.43,4.43 0,0.6 0.12,1.17 0.34,1.69 l -10.67,7.24 -1.1,-9.12 c 1.82,-0.56 3.14,-2.24 3.14,-4.24 0,-2.45 -1.98,-4.43 -4.43,-4.43 -2.45,0 -4.43,1.98 -4.43,4.43 0,2.36 1.85,4.29 4.18,4.42 l 1.4,11.67 12.75,-8.65 c 0.81,0.88 1.97,1.43 3.26,1.43 2.45,0 4.43,-1.99 4.43,-4.43 -0.01,-2.46 -1.99,-4.44 -4.44,-4.44"
   clip-path="url(#SVGID_00000075155272269551171670000002258682400307786654_)"
   id="path74" />
	</g>
	<g
   id="g86"
   transform="rotate(-41.31594,104.31755,52.450955)">
		<defs
   id="defs79">
			<rect
   id="SVGID_00000153680498148228333400000005675053934777878712_"
   x="-14.17"
   y="-14.17"
   width="269.29001"
   height="170.08" />
		</defs>
		<clipPath
   id="SVGID_00000083782321525241234100000011762547220339602335_">
			<use
   xlink:href="#SVGID_00000153680498148228333400000005675053934777878712_"
   style="overflow:visible"
   id="use81"
   x="0"
   y="0"
   width="100%"
   height="100%" />
		</clipPath>
		<path
   style="fill:#ffffff"
   d="m 131.48,81.53 c -2.79,0 -5.06,-1.01 -6.8,-3.02 -1.74,-2.04 -2.62,-4.65 -2.62,-7.85 0,-3.19 0.87,-5.81 2.62,-7.85 1.75,-2.01 4.01,-3.02 6.8,-3.02 2.84,0 5.12,1.01 6.84,3.02 1.74,2.04 2.62,4.65 2.62,7.85 0,3.19 -0.87,5.81 -2.62,7.85 -1.71,2.02 -3.99,3.02 -6.84,3.02 m 5.64,-4.06 c 1.4,-1.72 2.09,-3.98 2.09,-6.8 0,-2.82 -0.7,-5.08 -2.09,-6.8 -1.4,-1.72 -3.27,-2.58 -5.63,-2.58 -2.33,0 -4.2,0.86 -5.59,2.58 -1.4,1.72 -2.09,3.98 -2.09,6.8 0,2.82 0.69,5.08 2.09,6.8 1.4,1.72 3.26,2.58 5.59,2.58 2.35,-0.01 4.23,-0.86 5.63,-2.58"
   clip-path="url(#SVGID_00000083782321525241234100000011762547220339602335_)"
   id="path84" />
	</g>
	<g
   id="g96"
   transform="rotate(-48.879299,64.357326,89.007133)">
		<defs
   id="defs89">
			<rect
   id="SVGID_00000111151744668767207780000007475186454104802217_"
   x="-14.17"
   y="-14.17"
   width="269.29001"
   height="170.08" />
		</defs>
		<clipPath
   id="SVGID_00000054962699503602119040000014831707230502921903_">
			<use
   xlink:href="#SVGID_00000111151744668767207780000007475186454104802217_"
   style="overflow:visible"
   id="use91"
   x="0"
   y="0"
   width="100%"
   height="100%" />
		</clipPath>
		<path
   style="fill:#ffffff"
   d="m 68.75,81.05 c 0,0 -0.54,-3.19 -0.54,-5.93 v -9.64 c 0,-1.74 -0.62,-3.11 -1.87,-4.1 -1.25,-0.99 -3.09,-1.49 -5.53,-1.49 -2.74,0 -4.76,0.55 -6.08,1.65 -1.31,1.1 -2,2.75 -2.05,4.95 h 1.61 c 0.08,-1.83 0.62,-3.14 1.63,-3.94 1.01,-0.8 2.64,-1.21 4.89,-1.21 3.86,0 5.8,1.38 5.8,4.14 v 3.84 h -4 c -4.07,0 -10.81,0.18 -10.81,6.33 0,1.8 0.6,3.23 1.79,4.29 1.19,1.06 2.86,1.59 5.01,1.59 3.94,0 6.74,-1.52 8.18,-4.6 0.04,1.49 0.48,4.12 0.48,4.12 0,0 1.49,0 1.49,0 z M 66.6,72.48 c 0,2.47 -0.72,4.36 -2.17,5.68 -1.45,1.31 -3.37,1.97 -5.76,1.97 -1.66,0 -2.94,-0.4 -3.84,-1.21 -0.9,-0.81 -1.35,-1.9 -1.35,-3.3 0,-4.02 3.74,-4.88 9.03,-4.88 h 4.09 z"
   clip-path="url(#SVGID_00000054962699503602119040000014831707230502921903_)"
   id="path94" />
	</g>
	<g
   id="g106">
		<defs
   id="defs99">
			<rect
   id="SVGID_00000077297859567744721600000000130895800889904309_"
   x="-14.17"
   y="-14.17"
   width="269.29001"
   height="170.08" />
		</defs>
		<clipPath
   id="SVGID_00000008831313024805234730000009645722141617254800_">
			<use
   xlink:href="#SVGID_00000077297859567744721600000000130895800889904309_"
   style="overflow:visible"
   id="use101"
   x="0"
   y="0"
   width="100%"
   height="100%" />
		</clipPath>
		<path
   style="fill:#ffffff"
   d="m 189.15,81.05 c 0,0 -0.54,-3.19 -0.54,-5.93 v -9.64 c 0,-1.74 -0.62,-3.11 -1.87,-4.1 -1.25,-0.99 -3.09,-1.49 -5.53,-1.49 -2.74,0 -4.76,0.55 -6.08,1.65 -1.31,1.1 -2,2.75 -2.05,4.95 h 1.61 c 0.08,-1.83 0.62,-3.14 1.63,-3.94 1.01,-0.8 2.64,-1.21 4.89,-1.21 3.86,0 5.8,1.38 5.8,4.14 v 3.84 h -4 c -4.07,0 -10.81,0.18 -10.81,6.33 0,1.8 0.6,3.23 1.79,4.29 1.19,1.06 2.86,1.59 5.01,1.59 3.95,0 6.74,-1.52 8.18,-4.6 0.04,1.49 0.48,4.12 0.48,4.12 0,0 1.49,0 1.49,0 z m -2.14,-8.57 c 0,2.47 -0.72,4.36 -2.18,5.68 -1.45,1.31 -3.37,1.97 -5.75,1.97 -1.66,0 -2.94,-0.4 -3.84,-1.21 -0.9,-0.81 -1.35,-1.9 -1.35,-3.3 0,-4.02 3.74,-4.88 9.03,-4.88 h 4.09 z"
   clip-path="url(#SVGID_00000008831313024805234730000009645722141617254800_)"
   id="path104"
   transform="rotate(-57.560647,154.32077,60.538247)" />
	</g>
	<g
   id="g116"
   transform="rotate(40.948479,105.35353,50.777675)">
		<defs
   id="defs109">
			<rect
   id="SVGID_00000078005107483889642300000014514987834852640421_"
   x="-14.17"
   y="-14.17"
   width="269.29001"
   height="170.08" />
		</defs>
		<clipPath
   id="SVGID_00000090287789361234342670000009444094154549282495_">
			<use
   xlink:href="#SVGID_00000078005107483889642300000014514987834852640421_"
   style="overflow:visible"
   id="use111"
   x="0"
   y="0"
   width="100%"
   height="100%" />
		</clipPath>
		<path
   style="fill:#ffffff"
   d="m 94.67,81.05 -5.4,-9.49 c 2.67,-0.69 4.89,-2.25 4.89,-5.79 0,-1.8 -0.6,-3.23 -1.79,-4.29 -1.19,-1.06 -2.86,-1.59 -5.01,-1.59 -3.95,0 -6.74,1.52 -8.18,4.6 C 79.14,63 78.7,60.38 78.7,60.38 h -1.5 c 0,0 0.54,3.18 0.54,5.92 v 9.64 5.11 h 1.61 c 0,-5.09 0,-5.1 0,-5.11 V 72.1 h 4 c 1.23,0 2.71,-0.02 4.17,-0.21 l 5.26,9.16 z M 79.35,70.7 v -1.74 c 0,-2.47 0.73,-4.36 2.17,-5.67 1.45,-1.31 3.37,-1.97 5.75,-1.97 1.66,0 2.94,0.4 3.84,1.21 0.9,0.8 1.35,1.9 1.35,3.3 0,4.03 -3.74,4.88 -9.03,4.88 h -4.08 z"
   clip-path="url(#SVGID_00000090287789361234342670000009444094154549282495_)"
   id="path114" />
	</g>
	<g
   id="g126">
		<defs
   id="defs119">
			<rect
   id="SVGID_00000162347801148829573620000010032683929557197446_"
   x="-14.17"
   y="-14.17"
   width="269.29001"
   height="170.08" />
		</defs>
		<clipPath
   id="SVGID_00000144308924516846598620000003004294029825333653_">
			<use
   xlink:href="#SVGID_00000162347801148829573620000010032683929557197446_"
   style="overflow:visible"
   id="use121"
   x="0"
   y="0"
   width="100%"
   height="100%" />
		</clipPath>
		<path
   style="fill:#ffffff"
   d="m 165.89,81.05 -5.4,-9.49 c 2.66,-0.69 4.89,-2.25 4.89,-5.79 0,-1.8 -0.6,-3.23 -1.79,-4.29 -1.2,-1.06 -2.87,-1.59 -5.01,-1.59 -3.95,0 -6.74,1.52 -8.18,4.6 -0.04,-1.49 -0.48,-4.11 -0.48,-4.11 h -1.49 c 0,0 0.54,3.18 0.54,5.92 v 9.64 5.11 h 1.61 c 0,-5.09 0,-5.1 0,-5.11 V 72.1 h 4 c 1.23,0 2.71,-0.02 4.17,-0.21 l 5.26,9.16 z M 150.57,70.7 v -1.74 c 0,-2.47 0.72,-4.36 2.17,-5.67 1.45,-1.31 3.37,-1.97 5.75,-1.97 1.66,0 2.95,0.4 3.84,1.21 0.9,0.8 1.35,1.9 1.35,3.3 0,4.03 -3.74,4.88 -9.03,4.88 h -4.08 V 70.7 Z"
   clip-path="url(#SVGID_00000144308924516846598620000003004294029825333653_)"
   id="path124" />
	</g>
	<g
   id="g136"
   transform="rotate(-133.56817,107.995,70.675)">
		<defs
   id="defs129">
			<rect
   id="SVGID_00000011031771310372341200000011625105044243241617_"
   x="-14.17"
   y="-14.17"
   width="269.29001"
   height="170.08" />
		</defs>
		<clipPath
   id="SVGID_00000041263043200965134910000008745430012839042734_">
			<use
   xlink:href="#SVGID_00000011031771310372341200000011625105044243241617_"
   style="overflow:visible"
   id="use131"
   x="0"
   y="0"
   width="100%"
   height="100%" />
		</clipPath>
		<path
   style="fill:#ffffff"
   d="m 115.53,60.29 c 0,0 -2.2,11.77 -7.53,19.04 -5.32,-7.27 -7.53,-19.04 -7.53,-19.04 H 98.7 c 0,0 2.42,12.81 8.59,20.77 h 1.41 c 6.18,-7.96 8.59,-20.77 8.59,-20.77 0,0 -1.76,0 -1.76,0 z"
   clip-path="url(#SVGID_00000041263043200965134910000008745430012839042734_)"
   id="path134" />
	</g>
	<g
   id="g146">
		<defs
   id="defs139">
			<rect
   id="SVGID_00000029747736839247882920000015807071203720784003_"
   x="-14.17"
   y="-14.17"
   width="269.29001"
   height="170.08" />
		</defs>
		<clipPath
   id="SVGID_00000131326438786456357230000018135962481285122436_">
			<use
   xlink:href="#SVGID_00000029747736839247882920000015807071203720784003_"
   style="overflow:visible"
   id="use141"
   x="0"
   y="0"
   width="100%"
   height="100%" />
		</clipPath>
		
	</g>
</g>
















<text
   xml:space="preserve"
   style="font-style:normal;font-weight:normal;font-size:29.3333px;line-height:1.25;font-family:sans-serif;fill:#000000;fill-opacity:1;stroke:none"
   x="2.3578753"
   y="23.045109"
   id="text2852"><tspan
     sodipodi:role="line"
     id="tspan2850"
     x="2.3578753"
     y="23.045109"
     style="font-size:29.3333px;fill:#ffffff">Desculpe,</tspan><tspan
     sodipodi:role="line"
     x="2.3578753"
     y="59.711735"
     style="font-size:29.3333px;fill:#ffffff"
     id="tspan14280">em Obras</tspan></text></svg>
