<svg width="1643" height="1024" viewBox="0 0 1643 1024" fill="none" xmlns="http://www.w3.org/2000/svg">
<g clip-path="url(#clip0_21_2)">
<rect width="1643" height="1024" fill="#434542" fill-opacity="0.03"/>
<g clip-path="url(#clip1_21_2)">
<path d="M280.824 624.881C267.944 624.886 255.593 630.141 246.485 639.491C237.377 648.84 232.258 661.52 232.253 674.742C232.262 683.782 234.664 692.649 239.202 700.396C243.74 708.143 250.243 714.479 258.017 718.725L231.236 770.887C224.685 768.699 217.841 767.577 210.953 767.561C193.446 767.561 176.655 774.701 164.276 787.409C151.897 800.117 144.942 817.353 144.942 835.325C144.972 840.171 145.509 844.999 146.543 849.728L93.2443 869.757C88.2124 861.535 81.2316 854.758 72.9546 850.058C64.6777 845.358 55.3749 842.89 45.9162 842.884C31.0911 842.889 16.8743 848.936 6.38963 859.695C-4.09506 870.455 -9.99002 885.047 -10 900.265C-10 915.494 -4.10687 930.099 6.38298 940.867C16.8728 951.636 31.1001 957.685 45.935 957.685C60.7666 957.68 74.9891 951.628 85.4748 940.861C95.9606 930.093 101.851 915.491 101.851 900.265C101.829 896.141 101.375 892.032 100.495 888.008L151.647 864.943C157.059 876.368 165.492 886.001 175.982 892.742C186.471 899.483 198.596 903.062 210.971 903.069C225.472 903.05 239.563 898.131 251.068 889.071L293.932 930.967C284.744 944.79 279.828 961.135 279.826 977.869C279.826 988.801 281.924 999.625 286 1009.72C290.075 1019.82 296.049 1029 303.58 1036.73C311.111 1044.46 320.051 1050.59 329.89 1054.77C339.729 1058.95 350.274 1061.1 360.923 1061.1C382.422 1061.1 403.042 1052.33 418.246 1036.73C433.451 1021.12 441.995 999.959 442 977.889C442 955.815 433.458 934.645 418.253 919.036C403.048 903.428 382.426 894.659 360.923 894.659C342.268 894.672 324.189 901.289 309.733 913.393L264.082 875.422C272.426 863.806 276.939 849.758 276.964 835.325C276.965 824.324 274.358 813.489 269.367 803.754C264.376 794.019 257.152 785.678 248.318 779.451L270.993 723.559C274.227 724.249 277.521 724.599 280.824 724.603C293.711 724.603 306.07 719.347 315.183 709.993C324.295 700.639 329.414 687.952 329.414 674.723C329.404 661.5 324.281 648.823 315.169 639.477C306.058 630.131 293.705 624.881 280.824 624.881Z" fill="#008000" fill-opacity="0.22"/>
<path d="M187.5 891.333C212.295 891.333 232.396 869.694 232.396 843C232.396 816.306 212.295 794.667 187.5 794.667C162.705 794.667 142.604 816.306 142.604 843C142.604 869.694 162.705 891.333 187.5 891.333Z" stroke="#008000"/>
<path d="M151.583 881.667L88.7292 949.333M160.563 814L79.75 727" stroke="#008000" stroke-linejoin="round"/>
<path d="M277.292 968.667C292.169 968.667 304.229 955.683 304.229 939.667C304.229 923.65 292.169 910.667 277.292 910.667C262.414 910.667 250.354 923.65 250.354 939.667C250.354 955.683 262.414 968.667 277.292 968.667Z" stroke="#008000"/>
<path d="M331.167 872C346.044 872 358.104 859.016 358.104 843C358.104 826.984 346.044 814 331.167 814C316.289 814 304.229 826.984 304.229 843C304.229 859.016 316.289 872 331.167 872Z" stroke="#008000"/>
<path d="M304.229 843H232.396M223.417 881.667L259.333 920.333" stroke="#008000" stroke-linejoin="round"/>
<path d="M313.208 756C338.004 756 358.104 734.36 358.104 707.667C358.104 680.973 338.004 659.333 313.208 659.333C288.413 659.333 268.312 680.973 268.312 707.667C268.312 734.36 288.413 756 313.208 756Z" stroke="#008000"/>
<path d="M277.292 746.333L223.417 804.333" stroke="#008000" stroke-linejoin="round"/>
<path d="M61.7916 736.667C76.6688 736.667 88.7291 723.683 88.7291 707.667C88.7291 691.65 76.6688 678.667 61.7916 678.667C46.9145 678.667 34.8541 691.65 34.8541 707.667C34.8541 723.683 46.9145 736.667 61.7916 736.667Z" stroke="#008000"/>
<path d="M61.7916 1026.67C86.5869 1026.67 106.687 1005.03 106.687 978.333C106.687 951.64 86.5869 930 61.7916 930C36.9964 930 16.8958 951.64 16.8958 978.333C16.8958 1005.03 36.9964 1026.67 61.7916 1026.67Z" stroke="#008000"/>
</g>
<g clip-path="url(#clip2_21_2)">
<path d="M1576.75 -78.4134C1559.87 -78.4076 1543.69 -72.5073 1531.76 -62.0092C1519.83 -51.5111 1513.12 -37.2742 1513.11 -22.4276C1513.13 -12.2773 1516.27 -2.32061 1522.22 6.37812C1528.16 15.0769 1536.68 22.1906 1546.87 26.9589L1511.78 85.528C1503.2 83.071 1494.23 81.8111 1485.21 81.7941C1462.27 81.7941 1440.28 89.8105 1424.06 104.08C1407.84 118.349 1398.73 137.702 1398.73 157.882C1398.77 163.323 1399.47 168.745 1400.83 174.055L1331 196.544C1324.41 187.312 1315.26 179.702 1304.42 174.425C1293.57 169.148 1281.39 166.377 1268.99 166.37C1249.57 166.376 1230.95 173.165 1217.21 185.246C1203.47 197.327 1195.75 213.712 1195.74 230.8C1195.74 247.9 1203.46 264.299 1217.2 276.39C1230.94 288.481 1249.58 295.274 1269.02 295.274C1288.45 295.268 1307.08 288.473 1320.82 276.382C1334.56 264.292 1342.27 247.896 1342.27 230.8C1342.25 226.17 1341.65 221.555 1340.5 217.037L1407.51 191.139C1414.6 203.967 1425.65 214.783 1439.39 222.352C1453.14 229.922 1469.02 233.94 1485.23 233.948C1504.23 233.927 1522.69 228.404 1537.76 218.231L1593.92 265.273C1581.88 280.794 1575.44 299.147 1575.44 317.937C1575.44 330.212 1578.19 342.366 1583.53 353.706C1588.87 365.046 1596.69 375.349 1606.56 384.027C1616.43 392.706 1628.14 399.589 1641.03 404.284C1653.92 408.979 1667.73 411.395 1681.68 411.392C1709.85 411.392 1736.86 401.549 1756.78 384.027C1776.7 366.506 1787.9 342.741 1787.9 317.959C1787.9 293.173 1776.71 269.403 1756.79 251.877C1736.87 234.351 1709.86 224.505 1681.68 224.505C1657.24 224.52 1633.56 231.949 1614.62 245.54L1554.81 202.905C1565.74 189.861 1571.66 174.088 1571.69 157.882C1571.69 145.53 1568.28 133.363 1561.74 122.433C1555.2 111.502 1545.73 102.137 1534.16 95.1447L1563.87 32.3859C1568.1 33.1608 1572.42 33.5536 1576.75 33.5582C1593.63 33.5582 1609.82 27.6574 1621.76 17.154C1633.7 6.65054 1640.41 -7.59519 1640.41 -22.4493C1640.39 -37.2959 1633.68 -51.5305 1621.74 -62.0245C1609.81 -72.5186 1593.62 -78.4134 1576.75 -78.4134Z" fill="#008000" fill-opacity="0.17"/>
<path d="M1541.65 129.772C1531.23 105.826 1500.18 93.2912 1472.31 101.775C1444.44 110.258 1430.29 136.548 1440.71 160.494C1451.14 184.44 1482.18 196.975 1510.05 188.492C1537.93 180.008 1552.07 153.719 1541.65 129.772Z" stroke="#008000"/>
<path d="M1544.95 164.92L1643.41 204.98M1469.46 178.036L1411.78 286.059" stroke="#008000" stroke-linejoin="round"/>
<path d="M1590.07 18.4782C1583.81 4.11047 1565.19 -3.41057 1548.46 1.67952C1531.74 6.76961 1523.25 22.5433 1529.5 36.9111C1535.76 51.2788 1554.38 58.7999 1571.11 53.7098C1587.83 48.6197 1596.32 32.846 1590.07 18.4782Z" stroke="#008000"/>
<path d="M1465.4 0.914265C1459.15 -13.4535 1440.52 -20.9745 1423.8 -15.8844C1407.07 -10.7944 1398.58 4.97935 1404.84 19.3471C1411.09 33.7149 1429.72 41.2359 1446.44 36.1458C1463.17 31.0557 1471.65 15.282 1465.4 0.914265Z" stroke="#008000"/>
<path d="M1445.63 33.5151L1475.75 102.731M1519.8 99.122L1545.02 52.2537" stroke="#008000" stroke-linejoin="round"/>
<path d="M1347.5 57.9321C1337.07 33.9858 1306.03 21.4507 1278.15 29.9342C1250.28 38.4177 1236.14 64.7072 1246.56 88.6535C1256.98 112.6 1288.03 125.135 1315.9 116.651C1343.77 108.168 1357.92 81.8783 1347.5 57.9321Z" stroke="#008000"/>
<path d="M1352.5 92.4142L1435.71 126.012" stroke="#008000" stroke-linejoin="round"/>
<path d="M1425.42 300.331C1419.17 285.963 1400.54 278.442 1383.82 283.532C1367.09 288.622 1358.6 304.396 1364.86 318.764C1371.11 333.131 1389.74 340.652 1406.46 335.562C1423.19 330.472 1431.67 314.698 1425.42 300.331Z" stroke="#008000"/>
<path d="M1735.81 201.613C1725.38 177.667 1694.34 165.132 1666.47 173.615C1638.59 182.099 1624.45 208.388 1634.87 232.334C1645.29 256.281 1676.34 268.816 1704.21 260.332C1732.08 251.849 1746.23 225.559 1735.81 201.613Z" stroke="#008000"/>
</g>
</g>
<defs>
<clipPath id="clip0_21_2">
<rect width="1643" height="1024" fill="white"/>
</clipPath>
<clipPath id="clip1_21_2">
<rect width="452" height="464" fill="white" transform="translate(-10 611)"/>
</clipPath>
<clipPath id="clip2_21_2">
<rect width="592.165" height="521" fill="white" transform="translate(1195.74 -94)"/>
</clipPath>
</defs>
</svg>
