<svg width="38" height="35" viewBox="0 0 41 39" fill="none" xmlns="http://www.w3.org/2000/svg">
<path d="M4.26031 16.8581C4.26031 23.7529 10.1352 29.3385 17.3803 29.3385C19.7671 29.3421 22.1093 28.7232 24.1523 27.5492L30.5134 33.6001L30.5356 33.579C31.1854 34.2248 32.1079 34.6215 33.1506 34.6215C35.1649 34.6219 36.7401 33.0954 36.7397 31.1813C36.7393 30.2035 36.3281 29.3292 35.6589 28.7052L35.6749 28.69L29.1112 22.4468C30.0266 20.7126 30.5023 18.7987 30.5003 16.8581C30.5003 9.96294 24.6262 4.37853 17.3803 4.37853C10.1352 4.37853 4.26031 9.96333 4.26031 16.8581ZM25.3413 16.7825C25.3413 21.092 21.6701 24.5829 17.1413 24.5829C12.6132 24.5829 8.94129 21.092 8.94129 16.7825C8.94129 12.473 12.6128 8.98287 17.1413 8.98287C21.6701 8.98248 25.3413 12.473 25.3413 16.7825Z" fill="#008000"/>
</svg>
